G04 #@! TF.GenerationSoftware,KiCad,Pcbnew,(5.1.10)-1*
G04 #@! TF.CreationDate,2021-11-18T19:13:28-07:00*
G04 #@! TF.ProjectId,ATSAME51Demo,41545341-4d45-4353-9144-656d6f2e6b69,1.0*
G04 #@! TF.SameCoordinates,Original*
G04 #@! TF.FileFunction,Soldermask,Top*
G04 #@! TF.FilePolarity,Negative*
%FSLAX46Y46*%
G04 Gerber Fmt 4.6, Leading zero omitted, Abs format (unit mm)*
G04 Created by KiCad (PCBNEW (5.1.10)-1) date 2021-11-18 19:13:28*
%MOMM*%
%LPD*%
G01*
G04 APERTURE LIST*
%ADD10O,1.700000X1.700000*%
%ADD11R,1.700000X1.700000*%
%ADD12R,1.400000X0.400000*%
%ADD13R,1.900000X2.300000*%
%ADD14R,1.900000X1.800000*%
%ADD15C,0.500000*%
%ADD16R,1.100000X2.400000*%
%ADD17R,0.620000X1.400000*%
%ADD18R,1.500000X0.650000*%
%ADD19R,1.200000X0.600000*%
%ADD20R,1.200000X1.400000*%
%ADD21C,1.540000*%
%ADD22R,1.550000X1.000000*%
%ADD23C,0.900000*%
%ADD24R,2.500000X0.500000*%
%ADD25R,2.500000X2.000000*%
%ADD26R,4.400000X1.800000*%
%ADD27O,4.000000X1.800000*%
%ADD28O,1.800000X4.000000*%
%ADD29R,1.850000X3.200000*%
%ADD30R,1.850000X0.900000*%
%ADD31R,0.300000X1.475000*%
%ADD32R,1.475000X0.300000*%
%ADD33R,0.900000X1.200000*%
%ADD34R,1.200000X0.900000*%
G04 APERTURE END LIST*
G36*
G01*
X125386250Y-75044000D02*
X124473750Y-75044000D01*
G75*
G02*
X124230000Y-74800250I0J243750D01*
G01*
X124230000Y-74312750D01*
G75*
G02*
X124473750Y-74069000I243750J0D01*
G01*
X125386250Y-74069000D01*
G75*
G02*
X125630000Y-74312750I0J-243750D01*
G01*
X125630000Y-74800250D01*
G75*
G02*
X125386250Y-75044000I-243750J0D01*
G01*
G37*
G36*
G01*
X125386250Y-76919000D02*
X124473750Y-76919000D01*
G75*
G02*
X124230000Y-76675250I0J243750D01*
G01*
X124230000Y-76187750D01*
G75*
G02*
X124473750Y-75944000I243750J0D01*
G01*
X125386250Y-75944000D01*
G75*
G02*
X125630000Y-76187750I0J-243750D01*
G01*
X125630000Y-76675250D01*
G75*
G02*
X125386250Y-76919000I-243750J0D01*
G01*
G37*
G36*
G01*
X120814250Y-75044000D02*
X119901750Y-75044000D01*
G75*
G02*
X119658000Y-74800250I0J243750D01*
G01*
X119658000Y-74312750D01*
G75*
G02*
X119901750Y-74069000I243750J0D01*
G01*
X120814250Y-74069000D01*
G75*
G02*
X121058000Y-74312750I0J-243750D01*
G01*
X121058000Y-74800250D01*
G75*
G02*
X120814250Y-75044000I-243750J0D01*
G01*
G37*
G36*
G01*
X120814250Y-76919000D02*
X119901750Y-76919000D01*
G75*
G02*
X119658000Y-76675250I0J243750D01*
G01*
X119658000Y-76187750D01*
G75*
G02*
X119901750Y-75944000I243750J0D01*
G01*
X120814250Y-75944000D01*
G75*
G02*
X121058000Y-76187750I0J-243750D01*
G01*
X121058000Y-76675250D01*
G75*
G02*
X120814250Y-76919000I-243750J0D01*
G01*
G37*
G36*
G01*
X61886250Y-111366000D02*
X60973750Y-111366000D01*
G75*
G02*
X60730000Y-111122250I0J243750D01*
G01*
X60730000Y-110634750D01*
G75*
G02*
X60973750Y-110391000I243750J0D01*
G01*
X61886250Y-110391000D01*
G75*
G02*
X62130000Y-110634750I0J-243750D01*
G01*
X62130000Y-111122250D01*
G75*
G02*
X61886250Y-111366000I-243750J0D01*
G01*
G37*
G36*
G01*
X61886250Y-113241000D02*
X60973750Y-113241000D01*
G75*
G02*
X60730000Y-112997250I0J243750D01*
G01*
X60730000Y-112509750D01*
G75*
G02*
X60973750Y-112266000I243750J0D01*
G01*
X61886250Y-112266000D01*
G75*
G02*
X62130000Y-112509750I0J-243750D01*
G01*
X62130000Y-112997250D01*
G75*
G02*
X61886250Y-113241000I-243750J0D01*
G01*
G37*
G36*
G01*
X57314250Y-111366000D02*
X56401750Y-111366000D01*
G75*
G02*
X56158000Y-111122250I0J243750D01*
G01*
X56158000Y-110634750D01*
G75*
G02*
X56401750Y-110391000I243750J0D01*
G01*
X57314250Y-110391000D01*
G75*
G02*
X57558000Y-110634750I0J-243750D01*
G01*
X57558000Y-111122250D01*
G75*
G02*
X57314250Y-111366000I-243750J0D01*
G01*
G37*
G36*
G01*
X57314250Y-113241000D02*
X56401750Y-113241000D01*
G75*
G02*
X56158000Y-112997250I0J243750D01*
G01*
X56158000Y-112509750D01*
G75*
G02*
X56401750Y-112266000I243750J0D01*
G01*
X57314250Y-112266000D01*
G75*
G02*
X57558000Y-112509750I0J-243750D01*
G01*
X57558000Y-112997250D01*
G75*
G02*
X57314250Y-113241000I-243750J0D01*
G01*
G37*
G36*
G01*
X138375000Y-84075000D02*
X137825000Y-84075000D01*
G75*
G02*
X137625000Y-83875000I0J200000D01*
G01*
X137625000Y-83475000D01*
G75*
G02*
X137825000Y-83275000I200000J0D01*
G01*
X138375000Y-83275000D01*
G75*
G02*
X138575000Y-83475000I0J-200000D01*
G01*
X138575000Y-83875000D01*
G75*
G02*
X138375000Y-84075000I-200000J0D01*
G01*
G37*
G36*
G01*
X138375000Y-85725000D02*
X137825000Y-85725000D01*
G75*
G02*
X137625000Y-85525000I0J200000D01*
G01*
X137625000Y-85125000D01*
G75*
G02*
X137825000Y-84925000I200000J0D01*
G01*
X138375000Y-84925000D01*
G75*
G02*
X138575000Y-85125000I0J-200000D01*
G01*
X138575000Y-85525000D01*
G75*
G02*
X138375000Y-85725000I-200000J0D01*
G01*
G37*
G36*
G01*
X138675000Y-87425000D02*
X138675000Y-87975000D01*
G75*
G02*
X138475000Y-88175000I-200000J0D01*
G01*
X138075000Y-88175000D01*
G75*
G02*
X137875000Y-87975000I0J200000D01*
G01*
X137875000Y-87425000D01*
G75*
G02*
X138075000Y-87225000I200000J0D01*
G01*
X138475000Y-87225000D01*
G75*
G02*
X138675000Y-87425000I0J-200000D01*
G01*
G37*
G36*
G01*
X140325000Y-87425000D02*
X140325000Y-87975000D01*
G75*
G02*
X140125000Y-88175000I-200000J0D01*
G01*
X139725000Y-88175000D01*
G75*
G02*
X139525000Y-87975000I0J200000D01*
G01*
X139525000Y-87425000D01*
G75*
G02*
X139725000Y-87225000I200000J0D01*
G01*
X140125000Y-87225000D01*
G75*
G02*
X140325000Y-87425000I0J-200000D01*
G01*
G37*
D10*
X138100000Y-91560000D03*
D11*
X138100000Y-94100000D03*
D12*
X144200000Y-78550000D03*
X144200000Y-77900000D03*
X144200000Y-77250000D03*
X144200000Y-76600000D03*
X144200000Y-75950000D03*
D13*
X147050000Y-81000000D03*
X147050000Y-73500000D03*
D14*
X147050000Y-78400000D03*
X147050000Y-76100000D03*
D15*
X144975000Y-75265000D03*
X144975000Y-79225000D03*
D16*
X71800000Y-145050000D03*
X72875000Y-154075000D03*
X56725000Y-154075000D03*
X56725000Y-145075000D03*
D17*
X58105000Y-143075000D03*
X59205000Y-143075000D03*
X60305000Y-143075000D03*
X61405000Y-143075000D03*
X62505000Y-143075000D03*
X63605000Y-143075000D03*
X64705000Y-143075000D03*
X65805000Y-143075000D03*
X66905000Y-143075000D03*
D10*
X92164000Y-154234000D03*
X92164000Y-156774000D03*
X89624000Y-154234000D03*
X89624000Y-156774000D03*
X87084000Y-154234000D03*
X87084000Y-156774000D03*
X84544000Y-154234000D03*
X84544000Y-156774000D03*
X82004000Y-154234000D03*
X82004000Y-156774000D03*
X79464000Y-154234000D03*
D11*
X79464000Y-156774000D03*
D18*
X66775000Y-70935000D03*
X66775000Y-69665000D03*
X66775000Y-68395000D03*
X66775000Y-67125000D03*
X66775000Y-65855000D03*
X66775000Y-64585000D03*
X66775000Y-63315000D03*
X72175000Y-63315000D03*
X72175000Y-64585000D03*
X72175000Y-65855000D03*
X72175000Y-67125000D03*
X72175000Y-68395000D03*
X72175000Y-69665000D03*
X72175000Y-70935000D03*
D10*
X94185000Y-82690000D03*
X94185000Y-80150000D03*
X96725000Y-82690000D03*
X96725000Y-80150000D03*
X99265000Y-82690000D03*
X99265000Y-80150000D03*
X101805000Y-82690000D03*
X101805000Y-80150000D03*
X104345000Y-82690000D03*
X104345000Y-80150000D03*
X106885000Y-82690000D03*
X106885000Y-80150000D03*
X109425000Y-82690000D03*
D11*
X109425000Y-80150000D03*
D19*
X91075000Y-104300000D03*
X91075000Y-103100000D03*
D20*
X106150000Y-121575000D03*
X106150000Y-119375000D03*
X108050000Y-119375000D03*
X108050000Y-121575000D03*
D21*
X74310000Y-87270000D03*
X80810000Y-87270000D03*
X74310000Y-91770000D03*
X80810000Y-91770000D03*
X54025000Y-87270000D03*
X60525000Y-87270000D03*
X54025000Y-91770000D03*
X60525000Y-91770000D03*
D22*
X127675000Y-66970000D03*
X122425000Y-66970000D03*
X127675000Y-63770000D03*
X122425000Y-63770000D03*
G36*
G01*
X77685000Y-66525000D02*
X77135000Y-66525000D01*
G75*
G02*
X76935000Y-66325000I0J200000D01*
G01*
X76935000Y-65925000D01*
G75*
G02*
X77135000Y-65725000I200000J0D01*
G01*
X77685000Y-65725000D01*
G75*
G02*
X77885000Y-65925000I0J-200000D01*
G01*
X77885000Y-66325000D01*
G75*
G02*
X77685000Y-66525000I-200000J0D01*
G01*
G37*
G36*
G01*
X77685000Y-68175000D02*
X77135000Y-68175000D01*
G75*
G02*
X76935000Y-67975000I0J200000D01*
G01*
X76935000Y-67575000D01*
G75*
G02*
X77135000Y-67375000I200000J0D01*
G01*
X77685000Y-67375000D01*
G75*
G02*
X77885000Y-67575000I0J-200000D01*
G01*
X77885000Y-67975000D01*
G75*
G02*
X77685000Y-68175000I-200000J0D01*
G01*
G37*
G36*
G01*
X77135000Y-71145000D02*
X77685000Y-71145000D01*
G75*
G02*
X77885000Y-71345000I0J-200000D01*
G01*
X77885000Y-71745000D01*
G75*
G02*
X77685000Y-71945000I-200000J0D01*
G01*
X77135000Y-71945000D01*
G75*
G02*
X76935000Y-71745000I0J200000D01*
G01*
X76935000Y-71345000D01*
G75*
G02*
X77135000Y-71145000I200000J0D01*
G01*
G37*
G36*
G01*
X77135000Y-69495000D02*
X77685000Y-69495000D01*
G75*
G02*
X77885000Y-69695000I0J-200000D01*
G01*
X77885000Y-70095000D01*
G75*
G02*
X77685000Y-70295000I-200000J0D01*
G01*
X77135000Y-70295000D01*
G75*
G02*
X76935000Y-70095000I0J200000D01*
G01*
X76935000Y-69695000D01*
G75*
G02*
X77135000Y-69495000I200000J0D01*
G01*
G37*
G36*
G01*
X78305000Y-63265000D02*
X78305000Y-63815000D01*
G75*
G02*
X78105000Y-64015000I-200000J0D01*
G01*
X77705000Y-64015000D01*
G75*
G02*
X77505000Y-63815000I0J200000D01*
G01*
X77505000Y-63265000D01*
G75*
G02*
X77705000Y-63065000I200000J0D01*
G01*
X78105000Y-63065000D01*
G75*
G02*
X78305000Y-63265000I0J-200000D01*
G01*
G37*
G36*
G01*
X79955000Y-63265000D02*
X79955000Y-63815000D01*
G75*
G02*
X79755000Y-64015000I-200000J0D01*
G01*
X79355000Y-64015000D01*
G75*
G02*
X79155000Y-63815000I0J200000D01*
G01*
X79155000Y-63265000D01*
G75*
G02*
X79355000Y-63065000I200000J0D01*
G01*
X79755000Y-63065000D01*
G75*
G02*
X79955000Y-63265000I0J-200000D01*
G01*
G37*
G36*
G01*
X105335000Y-69525000D02*
X104785000Y-69525000D01*
G75*
G02*
X104585000Y-69325000I0J200000D01*
G01*
X104585000Y-68925000D01*
G75*
G02*
X104785000Y-68725000I200000J0D01*
G01*
X105335000Y-68725000D01*
G75*
G02*
X105535000Y-68925000I0J-200000D01*
G01*
X105535000Y-69325000D01*
G75*
G02*
X105335000Y-69525000I-200000J0D01*
G01*
G37*
G36*
G01*
X105335000Y-71175000D02*
X104785000Y-71175000D01*
G75*
G02*
X104585000Y-70975000I0J200000D01*
G01*
X104585000Y-70575000D01*
G75*
G02*
X104785000Y-70375000I200000J0D01*
G01*
X105335000Y-70375000D01*
G75*
G02*
X105535000Y-70575000I0J-200000D01*
G01*
X105535000Y-70975000D01*
G75*
G02*
X105335000Y-71175000I-200000J0D01*
G01*
G37*
G36*
G01*
X94121000Y-150241000D02*
X94671000Y-150241000D01*
G75*
G02*
X94871000Y-150441000I0J-200000D01*
G01*
X94871000Y-150841000D01*
G75*
G02*
X94671000Y-151041000I-200000J0D01*
G01*
X94121000Y-151041000D01*
G75*
G02*
X93921000Y-150841000I0J200000D01*
G01*
X93921000Y-150441000D01*
G75*
G02*
X94121000Y-150241000I200000J0D01*
G01*
G37*
G36*
G01*
X94121000Y-148591000D02*
X94671000Y-148591000D01*
G75*
G02*
X94871000Y-148791000I0J-200000D01*
G01*
X94871000Y-149191000D01*
G75*
G02*
X94671000Y-149391000I-200000J0D01*
G01*
X94121000Y-149391000D01*
G75*
G02*
X93921000Y-149191000I0J200000D01*
G01*
X93921000Y-148791000D01*
G75*
G02*
X94121000Y-148591000I200000J0D01*
G01*
G37*
G36*
G01*
X84223400Y-150241000D02*
X84773400Y-150241000D01*
G75*
G02*
X84973400Y-150441000I0J-200000D01*
G01*
X84973400Y-150841000D01*
G75*
G02*
X84773400Y-151041000I-200000J0D01*
G01*
X84223400Y-151041000D01*
G75*
G02*
X84023400Y-150841000I0J200000D01*
G01*
X84023400Y-150441000D01*
G75*
G02*
X84223400Y-150241000I200000J0D01*
G01*
G37*
G36*
G01*
X84223400Y-148591000D02*
X84773400Y-148591000D01*
G75*
G02*
X84973400Y-148791000I0J-200000D01*
G01*
X84973400Y-149191000D01*
G75*
G02*
X84773400Y-149391000I-200000J0D01*
G01*
X84223400Y-149391000D01*
G75*
G02*
X84023400Y-149191000I0J200000D01*
G01*
X84023400Y-148791000D01*
G75*
G02*
X84223400Y-148591000I200000J0D01*
G01*
G37*
G36*
G01*
X128725000Y-129572501D02*
X128725000Y-129022501D01*
G75*
G02*
X128925000Y-128822501I200000J0D01*
G01*
X129325000Y-128822501D01*
G75*
G02*
X129525000Y-129022501I0J-200000D01*
G01*
X129525000Y-129572501D01*
G75*
G02*
X129325000Y-129772501I-200000J0D01*
G01*
X128925000Y-129772501D01*
G75*
G02*
X128725000Y-129572501I0J200000D01*
G01*
G37*
G36*
G01*
X127075000Y-129572501D02*
X127075000Y-129022501D01*
G75*
G02*
X127275000Y-128822501I200000J0D01*
G01*
X127675000Y-128822501D01*
G75*
G02*
X127875000Y-129022501I0J-200000D01*
G01*
X127875000Y-129572501D01*
G75*
G02*
X127675000Y-129772501I-200000J0D01*
G01*
X127275000Y-129772501D01*
G75*
G02*
X127075000Y-129572501I0J200000D01*
G01*
G37*
G36*
G01*
X80924200Y-150241000D02*
X81474200Y-150241000D01*
G75*
G02*
X81674200Y-150441000I0J-200000D01*
G01*
X81674200Y-150841000D01*
G75*
G02*
X81474200Y-151041000I-200000J0D01*
G01*
X80924200Y-151041000D01*
G75*
G02*
X80724200Y-150841000I0J200000D01*
G01*
X80724200Y-150441000D01*
G75*
G02*
X80924200Y-150241000I200000J0D01*
G01*
G37*
G36*
G01*
X80924200Y-148591000D02*
X81474200Y-148591000D01*
G75*
G02*
X81674200Y-148791000I0J-200000D01*
G01*
X81674200Y-149191000D01*
G75*
G02*
X81474200Y-149391000I-200000J0D01*
G01*
X80924200Y-149391000D01*
G75*
G02*
X80724200Y-149191000I0J200000D01*
G01*
X80724200Y-148791000D01*
G75*
G02*
X80924200Y-148591000I200000J0D01*
G01*
G37*
G36*
G01*
X90821800Y-150241000D02*
X91371800Y-150241000D01*
G75*
G02*
X91571800Y-150441000I0J-200000D01*
G01*
X91571800Y-150841000D01*
G75*
G02*
X91371800Y-151041000I-200000J0D01*
G01*
X90821800Y-151041000D01*
G75*
G02*
X90621800Y-150841000I0J200000D01*
G01*
X90621800Y-150441000D01*
G75*
G02*
X90821800Y-150241000I200000J0D01*
G01*
G37*
G36*
G01*
X90821800Y-148591000D02*
X91371800Y-148591000D01*
G75*
G02*
X91571800Y-148791000I0J-200000D01*
G01*
X91571800Y-149191000D01*
G75*
G02*
X91371800Y-149391000I-200000J0D01*
G01*
X90821800Y-149391000D01*
G75*
G02*
X90621800Y-149191000I0J200000D01*
G01*
X90621800Y-148791000D01*
G75*
G02*
X90821800Y-148591000I200000J0D01*
G01*
G37*
G36*
G01*
X132275000Y-129022501D02*
X132275000Y-129572501D01*
G75*
G02*
X132075000Y-129772501I-200000J0D01*
G01*
X131675000Y-129772501D01*
G75*
G02*
X131475000Y-129572501I0J200000D01*
G01*
X131475000Y-129022501D01*
G75*
G02*
X131675000Y-128822501I200000J0D01*
G01*
X132075000Y-128822501D01*
G75*
G02*
X132275000Y-129022501I0J-200000D01*
G01*
G37*
G36*
G01*
X133925000Y-129022501D02*
X133925000Y-129572501D01*
G75*
G02*
X133725000Y-129772501I-200000J0D01*
G01*
X133325000Y-129772501D01*
G75*
G02*
X133125000Y-129572501I0J200000D01*
G01*
X133125000Y-129022501D01*
G75*
G02*
X133325000Y-128822501I200000J0D01*
G01*
X133725000Y-128822501D01*
G75*
G02*
X133925000Y-129022501I0J-200000D01*
G01*
G37*
G36*
G01*
X87522600Y-150241000D02*
X88072600Y-150241000D01*
G75*
G02*
X88272600Y-150441000I0J-200000D01*
G01*
X88272600Y-150841000D01*
G75*
G02*
X88072600Y-151041000I-200000J0D01*
G01*
X87522600Y-151041000D01*
G75*
G02*
X87322600Y-150841000I0J200000D01*
G01*
X87322600Y-150441000D01*
G75*
G02*
X87522600Y-150241000I200000J0D01*
G01*
G37*
G36*
G01*
X87522600Y-148591000D02*
X88072600Y-148591000D01*
G75*
G02*
X88272600Y-148791000I0J-200000D01*
G01*
X88272600Y-149191000D01*
G75*
G02*
X88072600Y-149391000I-200000J0D01*
G01*
X87522600Y-149391000D01*
G75*
G02*
X87322600Y-149191000I0J200000D01*
G01*
X87322600Y-148791000D01*
G75*
G02*
X87522600Y-148591000I200000J0D01*
G01*
G37*
G36*
G01*
X77625000Y-150241000D02*
X78175000Y-150241000D01*
G75*
G02*
X78375000Y-150441000I0J-200000D01*
G01*
X78375000Y-150841000D01*
G75*
G02*
X78175000Y-151041000I-200000J0D01*
G01*
X77625000Y-151041000D01*
G75*
G02*
X77425000Y-150841000I0J200000D01*
G01*
X77425000Y-150441000D01*
G75*
G02*
X77625000Y-150241000I200000J0D01*
G01*
G37*
G36*
G01*
X77625000Y-148591000D02*
X78175000Y-148591000D01*
G75*
G02*
X78375000Y-148791000I0J-200000D01*
G01*
X78375000Y-149191000D01*
G75*
G02*
X78175000Y-149391000I-200000J0D01*
G01*
X77625000Y-149391000D01*
G75*
G02*
X77425000Y-149191000I0J200000D01*
G01*
X77425000Y-148791000D01*
G75*
G02*
X77625000Y-148591000I200000J0D01*
G01*
G37*
G36*
G01*
X124655000Y-79983000D02*
X125205000Y-79983000D01*
G75*
G02*
X125405000Y-80183000I0J-200000D01*
G01*
X125405000Y-80583000D01*
G75*
G02*
X125205000Y-80783000I-200000J0D01*
G01*
X124655000Y-80783000D01*
G75*
G02*
X124455000Y-80583000I0J200000D01*
G01*
X124455000Y-80183000D01*
G75*
G02*
X124655000Y-79983000I200000J0D01*
G01*
G37*
G36*
G01*
X124655000Y-78333000D02*
X125205000Y-78333000D01*
G75*
G02*
X125405000Y-78533000I0J-200000D01*
G01*
X125405000Y-78933000D01*
G75*
G02*
X125205000Y-79133000I-200000J0D01*
G01*
X124655000Y-79133000D01*
G75*
G02*
X124455000Y-78933000I0J200000D01*
G01*
X124455000Y-78533000D01*
G75*
G02*
X124655000Y-78333000I200000J0D01*
G01*
G37*
G36*
G01*
X120083000Y-79983000D02*
X120633000Y-79983000D01*
G75*
G02*
X120833000Y-80183000I0J-200000D01*
G01*
X120833000Y-80583000D01*
G75*
G02*
X120633000Y-80783000I-200000J0D01*
G01*
X120083000Y-80783000D01*
G75*
G02*
X119883000Y-80583000I0J200000D01*
G01*
X119883000Y-80183000D01*
G75*
G02*
X120083000Y-79983000I200000J0D01*
G01*
G37*
G36*
G01*
X120083000Y-78333000D02*
X120633000Y-78333000D01*
G75*
G02*
X120833000Y-78533000I0J-200000D01*
G01*
X120833000Y-78933000D01*
G75*
G02*
X120633000Y-79133000I-200000J0D01*
G01*
X120083000Y-79133000D01*
G75*
G02*
X119883000Y-78933000I0J200000D01*
G01*
X119883000Y-78533000D01*
G75*
G02*
X120083000Y-78333000I200000J0D01*
G01*
G37*
G36*
G01*
X61155000Y-115797000D02*
X61705000Y-115797000D01*
G75*
G02*
X61905000Y-115997000I0J-200000D01*
G01*
X61905000Y-116397000D01*
G75*
G02*
X61705000Y-116597000I-200000J0D01*
G01*
X61155000Y-116597000D01*
G75*
G02*
X60955000Y-116397000I0J200000D01*
G01*
X60955000Y-115997000D01*
G75*
G02*
X61155000Y-115797000I200000J0D01*
G01*
G37*
G36*
G01*
X61155000Y-114147000D02*
X61705000Y-114147000D01*
G75*
G02*
X61905000Y-114347000I0J-200000D01*
G01*
X61905000Y-114747000D01*
G75*
G02*
X61705000Y-114947000I-200000J0D01*
G01*
X61155000Y-114947000D01*
G75*
G02*
X60955000Y-114747000I0J200000D01*
G01*
X60955000Y-114347000D01*
G75*
G02*
X61155000Y-114147000I200000J0D01*
G01*
G37*
G36*
G01*
X56583000Y-115797000D02*
X57133000Y-115797000D01*
G75*
G02*
X57333000Y-115997000I0J-200000D01*
G01*
X57333000Y-116397000D01*
G75*
G02*
X57133000Y-116597000I-200000J0D01*
G01*
X56583000Y-116597000D01*
G75*
G02*
X56383000Y-116397000I0J200000D01*
G01*
X56383000Y-115997000D01*
G75*
G02*
X56583000Y-115797000I200000J0D01*
G01*
G37*
G36*
G01*
X56583000Y-114147000D02*
X57133000Y-114147000D01*
G75*
G02*
X57333000Y-114347000I0J-200000D01*
G01*
X57333000Y-114747000D01*
G75*
G02*
X57133000Y-114947000I-200000J0D01*
G01*
X56583000Y-114947000D01*
G75*
G02*
X56383000Y-114747000I0J200000D01*
G01*
X56383000Y-114347000D01*
G75*
G02*
X56583000Y-114147000I200000J0D01*
G01*
G37*
G36*
G01*
X132745000Y-156085000D02*
X132745000Y-155535000D01*
G75*
G02*
X132945000Y-155335000I200000J0D01*
G01*
X133345000Y-155335000D01*
G75*
G02*
X133545000Y-155535000I0J-200000D01*
G01*
X133545000Y-156085000D01*
G75*
G02*
X133345000Y-156285000I-200000J0D01*
G01*
X132945000Y-156285000D01*
G75*
G02*
X132745000Y-156085000I0J200000D01*
G01*
G37*
G36*
G01*
X131095000Y-156085000D02*
X131095000Y-155535000D01*
G75*
G02*
X131295000Y-155335000I200000J0D01*
G01*
X131695000Y-155335000D01*
G75*
G02*
X131895000Y-155535000I0J-200000D01*
G01*
X131895000Y-156085000D01*
G75*
G02*
X131695000Y-156285000I-200000J0D01*
G01*
X131295000Y-156285000D01*
G75*
G02*
X131095000Y-156085000I0J200000D01*
G01*
G37*
G36*
G01*
X131645000Y-63375000D02*
X131645000Y-63925000D01*
G75*
G02*
X131445000Y-64125000I-200000J0D01*
G01*
X131045000Y-64125000D01*
G75*
G02*
X130845000Y-63925000I0J200000D01*
G01*
X130845000Y-63375000D01*
G75*
G02*
X131045000Y-63175000I200000J0D01*
G01*
X131445000Y-63175000D01*
G75*
G02*
X131645000Y-63375000I0J-200000D01*
G01*
G37*
G36*
G01*
X133295000Y-63375000D02*
X133295000Y-63925000D01*
G75*
G02*
X133095000Y-64125000I-200000J0D01*
G01*
X132695000Y-64125000D01*
G75*
G02*
X132495000Y-63925000I0J200000D01*
G01*
X132495000Y-63375000D01*
G75*
G02*
X132695000Y-63175000I200000J0D01*
G01*
X133095000Y-63175000D01*
G75*
G02*
X133295000Y-63375000I0J-200000D01*
G01*
G37*
G36*
G01*
X101373750Y-100660000D02*
X101886250Y-100660000D01*
G75*
G02*
X102105000Y-100878750I0J-218750D01*
G01*
X102105000Y-101316250D01*
G75*
G02*
X101886250Y-101535000I-218750J0D01*
G01*
X101373750Y-101535000D01*
G75*
G02*
X101155000Y-101316250I0J218750D01*
G01*
X101155000Y-100878750D01*
G75*
G02*
X101373750Y-100660000I218750J0D01*
G01*
G37*
G36*
G01*
X101373750Y-99085000D02*
X101886250Y-99085000D01*
G75*
G02*
X102105000Y-99303750I0J-218750D01*
G01*
X102105000Y-99741250D01*
G75*
G02*
X101886250Y-99960000I-218750J0D01*
G01*
X101373750Y-99960000D01*
G75*
G02*
X101155000Y-99741250I0J218750D01*
G01*
X101155000Y-99303750D01*
G75*
G02*
X101373750Y-99085000I218750J0D01*
G01*
G37*
G36*
G01*
X87900000Y-109218750D02*
X87900000Y-109731250D01*
G75*
G02*
X87681250Y-109950000I-218750J0D01*
G01*
X87243750Y-109950000D01*
G75*
G02*
X87025000Y-109731250I0J218750D01*
G01*
X87025000Y-109218750D01*
G75*
G02*
X87243750Y-109000000I218750J0D01*
G01*
X87681250Y-109000000D01*
G75*
G02*
X87900000Y-109218750I0J-218750D01*
G01*
G37*
G36*
G01*
X89475000Y-109218750D02*
X89475000Y-109731250D01*
G75*
G02*
X89256250Y-109950000I-218750J0D01*
G01*
X88818750Y-109950000D01*
G75*
G02*
X88600000Y-109731250I0J218750D01*
G01*
X88600000Y-109218750D01*
G75*
G02*
X88818750Y-109000000I218750J0D01*
G01*
X89256250Y-109000000D01*
G75*
G02*
X89475000Y-109218750I0J-218750D01*
G01*
G37*
D10*
X129460000Y-104300000D03*
X132000000Y-104300000D03*
X129460000Y-106840000D03*
X132000000Y-106840000D03*
X129460000Y-109380000D03*
X132000000Y-109380000D03*
X129460000Y-111920000D03*
X132000000Y-111920000D03*
X129460000Y-114460000D03*
X132000000Y-114460000D03*
X129460000Y-117000000D03*
D11*
X132000000Y-117000000D03*
D10*
X107080000Y-135460000D03*
X107080000Y-138000000D03*
X104540000Y-135460000D03*
X104540000Y-138000000D03*
X102000000Y-135460000D03*
X102000000Y-138000000D03*
X99460000Y-135460000D03*
X99460000Y-138000000D03*
X96920000Y-135460000D03*
X96920000Y-138000000D03*
X94380000Y-135460000D03*
X94380000Y-138000000D03*
X91840000Y-135460000D03*
X91840000Y-138000000D03*
X89300000Y-135460000D03*
D11*
X89300000Y-138000000D03*
D10*
X111780000Y-65000000D03*
X109240000Y-65000000D03*
X106700000Y-65000000D03*
X104160000Y-65000000D03*
X101620000Y-65000000D03*
X99080000Y-65000000D03*
X96540000Y-65000000D03*
D11*
X94000000Y-65000000D03*
D10*
X98890000Y-70310000D03*
D11*
X101430000Y-70310000D03*
D10*
X73540000Y-118240000D03*
X71000000Y-118240000D03*
X73540000Y-115700000D03*
X71000000Y-115700000D03*
X73540000Y-113160000D03*
X71000000Y-113160000D03*
X73540000Y-110620000D03*
X71000000Y-110620000D03*
X73540000Y-108080000D03*
X71000000Y-108080000D03*
X73540000Y-105540000D03*
X71000000Y-105540000D03*
X73540000Y-103000000D03*
D11*
X71000000Y-103000000D03*
D10*
X131700000Y-132740000D03*
X131700000Y-135280000D03*
X129160000Y-132740000D03*
D11*
X129160000Y-135280000D03*
D10*
X132000000Y-125770000D03*
X129460000Y-125770000D03*
X132000000Y-123230000D03*
D11*
X129460000Y-123230000D03*
D10*
X123914000Y-84384000D03*
D11*
X121374000Y-84384000D03*
D23*
X55350000Y-71650000D03*
X55350000Y-67250000D03*
D24*
X57950000Y-71050000D03*
X57950000Y-70250000D03*
X57950000Y-69450000D03*
X57950000Y-68650000D03*
X57950000Y-67850000D03*
D25*
X57950000Y-73850000D03*
X57950000Y-65050000D03*
X52450000Y-73850000D03*
X52450000Y-65050000D03*
D10*
X60668000Y-120452000D03*
D11*
X58128000Y-120452000D03*
D10*
X130800000Y-151610000D03*
X128260000Y-151610000D03*
X130800000Y-149070000D03*
X128260000Y-149070000D03*
X130800000Y-146530000D03*
D11*
X128260000Y-146530000D03*
D26*
X142425000Y-145300000D03*
D27*
X142425000Y-151100000D03*
D28*
X147225000Y-148300000D03*
D29*
X147300000Y-138925000D03*
D30*
X141100000Y-141225000D03*
X141100000Y-138925000D03*
X141100000Y-136625000D03*
D31*
X96250000Y-104262000D03*
X96750000Y-104262000D03*
X97250000Y-104262000D03*
X97750000Y-104262000D03*
X98250000Y-104262000D03*
X98750000Y-104262000D03*
X99250000Y-104262000D03*
X99750000Y-104262000D03*
X100250000Y-104262000D03*
X100750000Y-104262000D03*
X101250000Y-104262000D03*
X101750000Y-104262000D03*
X102250000Y-104262000D03*
X102750000Y-104262000D03*
X103250000Y-104262000D03*
X103750000Y-104262000D03*
D32*
X105738000Y-106250000D03*
X105738000Y-106750000D03*
X105738000Y-107250000D03*
X105738000Y-107750000D03*
X105738000Y-108250000D03*
X105738000Y-108750000D03*
X105738000Y-109250000D03*
X105738000Y-109750000D03*
X105738000Y-110250000D03*
X105738000Y-110750000D03*
X105738000Y-111250000D03*
X105738000Y-111750000D03*
X105738000Y-112250000D03*
X105738000Y-112750000D03*
X105738000Y-113250000D03*
X105738000Y-113750000D03*
D31*
X103750000Y-115738000D03*
X103250000Y-115738000D03*
X102750000Y-115738000D03*
X102250000Y-115738000D03*
X101750000Y-115738000D03*
X101250000Y-115738000D03*
X100750000Y-115738000D03*
X100250000Y-115738000D03*
X99750000Y-115738000D03*
X99250000Y-115738000D03*
X98750000Y-115738000D03*
X98250000Y-115738000D03*
X97750000Y-115738000D03*
X97250000Y-115738000D03*
X96750000Y-115738000D03*
X96250000Y-115738000D03*
D32*
X94262000Y-113750000D03*
X94262000Y-113250000D03*
X94262000Y-112750000D03*
X94262000Y-112250000D03*
X94262000Y-111750000D03*
X94262000Y-111250000D03*
X94262000Y-110750000D03*
X94262000Y-110250000D03*
X94262000Y-109750000D03*
X94262000Y-109250000D03*
X94262000Y-108750000D03*
X94262000Y-108250000D03*
X94262000Y-107750000D03*
X94262000Y-107250000D03*
X94262000Y-106750000D03*
X94262000Y-106250000D03*
G36*
G01*
X80243750Y-67340000D02*
X80756250Y-67340000D01*
G75*
G02*
X80975000Y-67558750I0J-218750D01*
G01*
X80975000Y-67996250D01*
G75*
G02*
X80756250Y-68215000I-218750J0D01*
G01*
X80243750Y-68215000D01*
G75*
G02*
X80025000Y-67996250I0J218750D01*
G01*
X80025000Y-67558750D01*
G75*
G02*
X80243750Y-67340000I218750J0D01*
G01*
G37*
G36*
G01*
X80243750Y-65765000D02*
X80756250Y-65765000D01*
G75*
G02*
X80975000Y-65983750I0J-218750D01*
G01*
X80975000Y-66421250D01*
G75*
G02*
X80756250Y-66640000I-218750J0D01*
G01*
X80243750Y-66640000D01*
G75*
G02*
X80025000Y-66421250I0J218750D01*
G01*
X80025000Y-65983750D01*
G75*
G02*
X80243750Y-65765000I218750J0D01*
G01*
G37*
G36*
G01*
X80756250Y-70370000D02*
X80243750Y-70370000D01*
G75*
G02*
X80025000Y-70151250I0J218750D01*
G01*
X80025000Y-69713750D01*
G75*
G02*
X80243750Y-69495000I218750J0D01*
G01*
X80756250Y-69495000D01*
G75*
G02*
X80975000Y-69713750I0J-218750D01*
G01*
X80975000Y-70151250D01*
G75*
G02*
X80756250Y-70370000I-218750J0D01*
G01*
G37*
G36*
G01*
X80756250Y-71945000D02*
X80243750Y-71945000D01*
G75*
G02*
X80025000Y-71726250I0J218750D01*
G01*
X80025000Y-71288750D01*
G75*
G02*
X80243750Y-71070000I218750J0D01*
G01*
X80756250Y-71070000D01*
G75*
G02*
X80975000Y-71288750I0J-218750D01*
G01*
X80975000Y-71726250D01*
G75*
G02*
X80756250Y-71945000I-218750J0D01*
G01*
G37*
D33*
X55970000Y-79050000D03*
X59270000Y-79050000D03*
D34*
X143760000Y-84170000D03*
X143760000Y-87470000D03*
G36*
G01*
X127550000Y-155543750D02*
X127550000Y-156056250D01*
G75*
G02*
X127331250Y-156275000I-218750J0D01*
G01*
X126893750Y-156275000D01*
G75*
G02*
X126675000Y-156056250I0J218750D01*
G01*
X126675000Y-155543750D01*
G75*
G02*
X126893750Y-155325000I218750J0D01*
G01*
X127331250Y-155325000D01*
G75*
G02*
X127550000Y-155543750I0J-218750D01*
G01*
G37*
G36*
G01*
X129125000Y-155543750D02*
X129125000Y-156056250D01*
G75*
G02*
X128906250Y-156275000I-218750J0D01*
G01*
X128468750Y-156275000D01*
G75*
G02*
X128250000Y-156056250I0J218750D01*
G01*
X128250000Y-155543750D01*
G75*
G02*
X128468750Y-155325000I218750J0D01*
G01*
X128906250Y-155325000D01*
G75*
G02*
X129125000Y-155543750I0J-218750D01*
G01*
G37*
G36*
G01*
X64330000Y-65475000D02*
X63830000Y-65475000D01*
G75*
G02*
X63605000Y-65250000I0J225000D01*
G01*
X63605000Y-64800000D01*
G75*
G02*
X63830000Y-64575000I225000J0D01*
G01*
X64330000Y-64575000D01*
G75*
G02*
X64555000Y-64800000I0J-225000D01*
G01*
X64555000Y-65250000D01*
G75*
G02*
X64330000Y-65475000I-225000J0D01*
G01*
G37*
G36*
G01*
X64330000Y-67025000D02*
X63830000Y-67025000D01*
G75*
G02*
X63605000Y-66800000I0J225000D01*
G01*
X63605000Y-66350000D01*
G75*
G02*
X63830000Y-66125000I225000J0D01*
G01*
X64330000Y-66125000D01*
G75*
G02*
X64555000Y-66350000I0J-225000D01*
G01*
X64555000Y-66800000D01*
G75*
G02*
X64330000Y-67025000I-225000J0D01*
G01*
G37*
G36*
G01*
X74810000Y-72765000D02*
X74310000Y-72765000D01*
G75*
G02*
X74085000Y-72540000I0J225000D01*
G01*
X74085000Y-72090000D01*
G75*
G02*
X74310000Y-71865000I225000J0D01*
G01*
X74810000Y-71865000D01*
G75*
G02*
X75035000Y-72090000I0J-225000D01*
G01*
X75035000Y-72540000D01*
G75*
G02*
X74810000Y-72765000I-225000J0D01*
G01*
G37*
G36*
G01*
X74810000Y-74315000D02*
X74310000Y-74315000D01*
G75*
G02*
X74085000Y-74090000I0J225000D01*
G01*
X74085000Y-73640000D01*
G75*
G02*
X74310000Y-73415000I225000J0D01*
G01*
X74810000Y-73415000D01*
G75*
G02*
X75035000Y-73640000I0J-225000D01*
G01*
X75035000Y-74090000D01*
G75*
G02*
X74810000Y-74315000I-225000J0D01*
G01*
G37*
G36*
G01*
X64735000Y-139026000D02*
X64735000Y-138526000D01*
G75*
G02*
X64960000Y-138301000I225000J0D01*
G01*
X65410000Y-138301000D01*
G75*
G02*
X65635000Y-138526000I0J-225000D01*
G01*
X65635000Y-139026000D01*
G75*
G02*
X65410000Y-139251000I-225000J0D01*
G01*
X64960000Y-139251000D01*
G75*
G02*
X64735000Y-139026000I0J225000D01*
G01*
G37*
G36*
G01*
X63185000Y-139026000D02*
X63185000Y-138526000D01*
G75*
G02*
X63410000Y-138301000I225000J0D01*
G01*
X63860000Y-138301000D01*
G75*
G02*
X64085000Y-138526000I0J-225000D01*
G01*
X64085000Y-139026000D01*
G75*
G02*
X63860000Y-139251000I-225000J0D01*
G01*
X63410000Y-139251000D01*
G75*
G02*
X63185000Y-139026000I0J225000D01*
G01*
G37*
G36*
G01*
X64085000Y-136500000D02*
X64085000Y-137000000D01*
G75*
G02*
X63860000Y-137225000I-225000J0D01*
G01*
X63410000Y-137225000D01*
G75*
G02*
X63185000Y-137000000I0J225000D01*
G01*
X63185000Y-136500000D01*
G75*
G02*
X63410000Y-136275000I225000J0D01*
G01*
X63860000Y-136275000D01*
G75*
G02*
X64085000Y-136500000I0J-225000D01*
G01*
G37*
G36*
G01*
X65635000Y-136500000D02*
X65635000Y-137000000D01*
G75*
G02*
X65410000Y-137225000I-225000J0D01*
G01*
X64960000Y-137225000D01*
G75*
G02*
X64735000Y-137000000I0J225000D01*
G01*
X64735000Y-136500000D01*
G75*
G02*
X64960000Y-136275000I225000J0D01*
G01*
X65410000Y-136275000D01*
G75*
G02*
X65635000Y-136500000I0J-225000D01*
G01*
G37*
G36*
G01*
X103160000Y-97270000D02*
X102820000Y-97270000D01*
G75*
G02*
X102680000Y-97130000I0J140000D01*
G01*
X102680000Y-96850000D01*
G75*
G02*
X102820000Y-96710000I140000J0D01*
G01*
X103160000Y-96710000D01*
G75*
G02*
X103300000Y-96850000I0J-140000D01*
G01*
X103300000Y-97130000D01*
G75*
G02*
X103160000Y-97270000I-140000J0D01*
G01*
G37*
G36*
G01*
X103160000Y-98230000D02*
X102820000Y-98230000D01*
G75*
G02*
X102680000Y-98090000I0J140000D01*
G01*
X102680000Y-97810000D01*
G75*
G02*
X102820000Y-97670000I140000J0D01*
G01*
X103160000Y-97670000D01*
G75*
G02*
X103300000Y-97810000I0J-140000D01*
G01*
X103300000Y-98090000D01*
G75*
G02*
X103160000Y-98230000I-140000J0D01*
G01*
G37*
G36*
G01*
X101910000Y-96855000D02*
X101410000Y-96855000D01*
G75*
G02*
X101185000Y-96630000I0J225000D01*
G01*
X101185000Y-96180000D01*
G75*
G02*
X101410000Y-95955000I225000J0D01*
G01*
X101910000Y-95955000D01*
G75*
G02*
X102135000Y-96180000I0J-225000D01*
G01*
X102135000Y-96630000D01*
G75*
G02*
X101910000Y-96855000I-225000J0D01*
G01*
G37*
G36*
G01*
X101910000Y-98405000D02*
X101410000Y-98405000D01*
G75*
G02*
X101185000Y-98180000I0J225000D01*
G01*
X101185000Y-97730000D01*
G75*
G02*
X101410000Y-97505000I225000J0D01*
G01*
X101910000Y-97505000D01*
G75*
G02*
X102135000Y-97730000I0J-225000D01*
G01*
X102135000Y-98180000D01*
G75*
G02*
X101910000Y-98405000I-225000J0D01*
G01*
G37*
G36*
G01*
X90975000Y-109495000D02*
X90975000Y-109155000D01*
G75*
G02*
X91115000Y-109015000I140000J0D01*
G01*
X91395000Y-109015000D01*
G75*
G02*
X91535000Y-109155000I0J-140000D01*
G01*
X91535000Y-109495000D01*
G75*
G02*
X91395000Y-109635000I-140000J0D01*
G01*
X91115000Y-109635000D01*
G75*
G02*
X90975000Y-109495000I0J140000D01*
G01*
G37*
G36*
G01*
X90015000Y-109495000D02*
X90015000Y-109155000D01*
G75*
G02*
X90155000Y-109015000I140000J0D01*
G01*
X90435000Y-109015000D01*
G75*
G02*
X90575000Y-109155000I0J-140000D01*
G01*
X90575000Y-109495000D01*
G75*
G02*
X90435000Y-109635000I-140000J0D01*
G01*
X90155000Y-109635000D01*
G75*
G02*
X90015000Y-109495000I0J140000D01*
G01*
G37*
G36*
G01*
X139050000Y-137285000D02*
X138550000Y-137285000D01*
G75*
G02*
X138325000Y-137060000I0J225000D01*
G01*
X138325000Y-136610000D01*
G75*
G02*
X138550000Y-136385000I225000J0D01*
G01*
X139050000Y-136385000D01*
G75*
G02*
X139275000Y-136610000I0J-225000D01*
G01*
X139275000Y-137060000D01*
G75*
G02*
X139050000Y-137285000I-225000J0D01*
G01*
G37*
G36*
G01*
X139050000Y-138835000D02*
X138550000Y-138835000D01*
G75*
G02*
X138325000Y-138610000I0J225000D01*
G01*
X138325000Y-138160000D01*
G75*
G02*
X138550000Y-137935000I225000J0D01*
G01*
X139050000Y-137935000D01*
G75*
G02*
X139275000Y-138160000I0J-225000D01*
G01*
X139275000Y-138610000D01*
G75*
G02*
X139050000Y-138835000I-225000J0D01*
G01*
G37*
G36*
G01*
X100470000Y-101500000D02*
X100130000Y-101500000D01*
G75*
G02*
X99990000Y-101360000I0J140000D01*
G01*
X99990000Y-101080000D01*
G75*
G02*
X100130000Y-100940000I140000J0D01*
G01*
X100470000Y-100940000D01*
G75*
G02*
X100610000Y-101080000I0J-140000D01*
G01*
X100610000Y-101360000D01*
G75*
G02*
X100470000Y-101500000I-140000J0D01*
G01*
G37*
G36*
G01*
X100470000Y-102460000D02*
X100130000Y-102460000D01*
G75*
G02*
X99990000Y-102320000I0J140000D01*
G01*
X99990000Y-102040000D01*
G75*
G02*
X100130000Y-101900000I140000J0D01*
G01*
X100470000Y-101900000D01*
G75*
G02*
X100610000Y-102040000I0J-140000D01*
G01*
X100610000Y-102320000D01*
G75*
G02*
X100470000Y-102460000I-140000J0D01*
G01*
G37*
G36*
G01*
X136770000Y-141555000D02*
X136770000Y-142505000D01*
G75*
G02*
X136520000Y-142755000I-250000J0D01*
G01*
X136020000Y-142755000D01*
G75*
G02*
X135770000Y-142505000I0J250000D01*
G01*
X135770000Y-141555000D01*
G75*
G02*
X136020000Y-141305000I250000J0D01*
G01*
X136520000Y-141305000D01*
G75*
G02*
X136770000Y-141555000I0J-250000D01*
G01*
G37*
G36*
G01*
X138670000Y-141555000D02*
X138670000Y-142505000D01*
G75*
G02*
X138420000Y-142755000I-250000J0D01*
G01*
X137920000Y-142755000D01*
G75*
G02*
X137670000Y-142505000I0J250000D01*
G01*
X137670000Y-141555000D01*
G75*
G02*
X137920000Y-141305000I250000J0D01*
G01*
X138420000Y-141305000D01*
G75*
G02*
X138670000Y-141555000I0J-250000D01*
G01*
G37*
G36*
G01*
X107430000Y-106200000D02*
X107770000Y-106200000D01*
G75*
G02*
X107910000Y-106340000I0J-140000D01*
G01*
X107910000Y-106620000D01*
G75*
G02*
X107770000Y-106760000I-140000J0D01*
G01*
X107430000Y-106760000D01*
G75*
G02*
X107290000Y-106620000I0J140000D01*
G01*
X107290000Y-106340000D01*
G75*
G02*
X107430000Y-106200000I140000J0D01*
G01*
G37*
G36*
G01*
X107430000Y-105240000D02*
X107770000Y-105240000D01*
G75*
G02*
X107910000Y-105380000I0J-140000D01*
G01*
X107910000Y-105660000D01*
G75*
G02*
X107770000Y-105800000I-140000J0D01*
G01*
X107430000Y-105800000D01*
G75*
G02*
X107290000Y-105660000I0J140000D01*
G01*
X107290000Y-105380000D01*
G75*
G02*
X107430000Y-105240000I140000J0D01*
G01*
G37*
G36*
G01*
X107630000Y-114175000D02*
X107970000Y-114175000D01*
G75*
G02*
X108110000Y-114315000I0J-140000D01*
G01*
X108110000Y-114595000D01*
G75*
G02*
X107970000Y-114735000I-140000J0D01*
G01*
X107630000Y-114735000D01*
G75*
G02*
X107490000Y-114595000I0J140000D01*
G01*
X107490000Y-114315000D01*
G75*
G02*
X107630000Y-114175000I140000J0D01*
G01*
G37*
G36*
G01*
X107630000Y-113215000D02*
X107970000Y-113215000D01*
G75*
G02*
X108110000Y-113355000I0J-140000D01*
G01*
X108110000Y-113635000D01*
G75*
G02*
X107970000Y-113775000I-140000J0D01*
G01*
X107630000Y-113775000D01*
G75*
G02*
X107490000Y-113635000I0J140000D01*
G01*
X107490000Y-113355000D01*
G75*
G02*
X107630000Y-113215000I140000J0D01*
G01*
G37*
G36*
G01*
X98355000Y-118500000D02*
X98695000Y-118500000D01*
G75*
G02*
X98835000Y-118640000I0J-140000D01*
G01*
X98835000Y-118920000D01*
G75*
G02*
X98695000Y-119060000I-140000J0D01*
G01*
X98355000Y-119060000D01*
G75*
G02*
X98215000Y-118920000I0J140000D01*
G01*
X98215000Y-118640000D01*
G75*
G02*
X98355000Y-118500000I140000J0D01*
G01*
G37*
G36*
G01*
X98355000Y-117540000D02*
X98695000Y-117540000D01*
G75*
G02*
X98835000Y-117680000I0J-140000D01*
G01*
X98835000Y-117960000D01*
G75*
G02*
X98695000Y-118100000I-140000J0D01*
G01*
X98355000Y-118100000D01*
G75*
G02*
X98215000Y-117960000I0J140000D01*
G01*
X98215000Y-117680000D01*
G75*
G02*
X98355000Y-117540000I140000J0D01*
G01*
G37*
G36*
G01*
X88150000Y-104200000D02*
X88150000Y-104700000D01*
G75*
G02*
X87925000Y-104925000I-225000J0D01*
G01*
X87475000Y-104925000D01*
G75*
G02*
X87250000Y-104700000I0J225000D01*
G01*
X87250000Y-104200000D01*
G75*
G02*
X87475000Y-103975000I225000J0D01*
G01*
X87925000Y-103975000D01*
G75*
G02*
X88150000Y-104200000I0J-225000D01*
G01*
G37*
G36*
G01*
X89700000Y-104200000D02*
X89700000Y-104700000D01*
G75*
G02*
X89475000Y-104925000I-225000J0D01*
G01*
X89025000Y-104925000D01*
G75*
G02*
X88800000Y-104700000I0J225000D01*
G01*
X88800000Y-104200000D01*
G75*
G02*
X89025000Y-103975000I225000J0D01*
G01*
X89475000Y-103975000D01*
G75*
G02*
X89700000Y-104200000I0J-225000D01*
G01*
G37*
G36*
G01*
X88150000Y-102675000D02*
X88150000Y-103175000D01*
G75*
G02*
X87925000Y-103400000I-225000J0D01*
G01*
X87475000Y-103400000D01*
G75*
G02*
X87250000Y-103175000I0J225000D01*
G01*
X87250000Y-102675000D01*
G75*
G02*
X87475000Y-102450000I225000J0D01*
G01*
X87925000Y-102450000D01*
G75*
G02*
X88150000Y-102675000I0J-225000D01*
G01*
G37*
G36*
G01*
X89700000Y-102675000D02*
X89700000Y-103175000D01*
G75*
G02*
X89475000Y-103400000I-225000J0D01*
G01*
X89025000Y-103400000D01*
G75*
G02*
X88800000Y-103175000I0J225000D01*
G01*
X88800000Y-102675000D01*
G75*
G02*
X89025000Y-102450000I225000J0D01*
G01*
X89475000Y-102450000D01*
G75*
G02*
X89700000Y-102675000I0J-225000D01*
G01*
G37*
G36*
G01*
X109895000Y-120325000D02*
X109555000Y-120325000D01*
G75*
G02*
X109415000Y-120185000I0J140000D01*
G01*
X109415000Y-119905000D01*
G75*
G02*
X109555000Y-119765000I140000J0D01*
G01*
X109895000Y-119765000D01*
G75*
G02*
X110035000Y-119905000I0J-140000D01*
G01*
X110035000Y-120185000D01*
G75*
G02*
X109895000Y-120325000I-140000J0D01*
G01*
G37*
G36*
G01*
X109895000Y-121285000D02*
X109555000Y-121285000D01*
G75*
G02*
X109415000Y-121145000I0J140000D01*
G01*
X109415000Y-120865000D01*
G75*
G02*
X109555000Y-120725000I140000J0D01*
G01*
X109895000Y-120725000D01*
G75*
G02*
X110035000Y-120865000I0J-140000D01*
G01*
X110035000Y-121145000D01*
G75*
G02*
X109895000Y-121285000I-140000J0D01*
G01*
G37*
M02*
