%FSLAX45Y45*%
G04 Gerber Fmt 4.5, Leading zero omitted, Abs format (unit mm)*
G04 Created by KiCad (PCBNEW (5.1.10)-1) date 2021-11-18 19:13:32*
%MOMM*%
%LPD*%
G01*
G04 APERTURE LIST*
%TA.AperFunction,Profile*%
%ADD10C,0.050000*%
%TD*%
%ADD11C,0.200000*%
%ADD12C,0.300000*%
G04 APERTURE END LIST*
D10*
X5350000Y-16000000D02*
X5750000Y-16000000D01*
X5900000Y-15850000D02*
X5750000Y-16000000D01*
X6850000Y-15850000D02*
X5900000Y-15850000D01*
X7000000Y-16000000D02*
X6850000Y-15850000D01*
X15000000Y-6350000D02*
X15000000Y-7150000D01*
X14850000Y-8150000D02*
X14850000Y-7300000D01*
X15000000Y-8300000D02*
G75*
G02*
X14850000Y-8150000I0J150000D01*
G01*
X14850000Y-7300000D02*
G75*
G02*
X15000000Y-7150000I150000J0D01*
G01*
X5000000Y-6350000D02*
G75*
G02*
X5350000Y-6000000I350000J0D01*
G01*
X5350000Y-16000000D02*
G75*
G02*
X5000000Y-15650000I0J350000D01*
G01*
X15000000Y-15650000D02*
G75*
G02*
X14650000Y-16000000I-350000J0D01*
G01*
X14650000Y-6000000D02*
G75*
G02*
X15000000Y-6350000I0J-350000D01*
G01*
X5000000Y-6350000D02*
X5000000Y-15650000D01*
X14650000Y-6000000D02*
X5350000Y-6000000D01*
X15000000Y-15650000D02*
X15000000Y-8300000D01*
X7000000Y-16000000D02*
X14650000Y-16000000D01*
D11*
X14472500Y-7501500D02*
X14522500Y-7551500D01*
X14522500Y-7501500D02*
X14472500Y-7551500D01*
X14472500Y-7897500D02*
X14522500Y-7947500D01*
X14522500Y-7897500D02*
X14472500Y-7947500D01*
X5580000Y-6725000D02*
G75*
G03*
X5580000Y-6725000I-45000J0D01*
G01*
X5580000Y-7165000D02*
G75*
G03*
X5580000Y-7165000I-45000J0D01*
G01*
X6000000Y-15392500D02*
X6000000Y-15487500D01*
X5952500Y-15440000D02*
X6047500Y-15440000D01*
X6800000Y-15392500D02*
X6800000Y-15487500D01*
X6752500Y-15440000D02*
X6847500Y-15440000D01*
D12*
X5283928Y-16468214D02*
X5283928Y-16168214D01*
X5355357Y-16168214D01*
X5398214Y-16182500D01*
X5426786Y-16211071D01*
X5441071Y-16239643D01*
X5455357Y-16296786D01*
X5455357Y-16339643D01*
X5441071Y-16396786D01*
X5426786Y-16425357D01*
X5398214Y-16453929D01*
X5355357Y-16468214D01*
X5283928Y-16468214D01*
X5583928Y-16468214D02*
X5583928Y-16268214D01*
X5583928Y-16325357D02*
X5598214Y-16296786D01*
X5612500Y-16282500D01*
X5641071Y-16268214D01*
X5669643Y-16268214D01*
X5769643Y-16468214D02*
X5769643Y-16268214D01*
X5769643Y-16168214D02*
X5755357Y-16182500D01*
X5769643Y-16196786D01*
X5783928Y-16182500D01*
X5769643Y-16168214D01*
X5769643Y-16196786D01*
X5955357Y-16468214D02*
X5926786Y-16453929D01*
X5912500Y-16425357D01*
X5912500Y-16168214D01*
X6112500Y-16468214D02*
X6083928Y-16453929D01*
X6069643Y-16425357D01*
X6069643Y-16168214D01*
X6455357Y-16468214D02*
X6455357Y-16168214D01*
X6555357Y-16382500D01*
X6655357Y-16168214D01*
X6655357Y-16468214D01*
X6926786Y-16468214D02*
X6926786Y-16311071D01*
X6912500Y-16282500D01*
X6883928Y-16268214D01*
X6826786Y-16268214D01*
X6798214Y-16282500D01*
X6926786Y-16453929D02*
X6898214Y-16468214D01*
X6826786Y-16468214D01*
X6798214Y-16453929D01*
X6783928Y-16425357D01*
X6783928Y-16396786D01*
X6798214Y-16368214D01*
X6826786Y-16353929D01*
X6898214Y-16353929D01*
X6926786Y-16339643D01*
X7069643Y-16268214D02*
X7069643Y-16568214D01*
X7069643Y-16282500D02*
X7098214Y-16268214D01*
X7155357Y-16268214D01*
X7183928Y-16282500D01*
X7198214Y-16296786D01*
X7212500Y-16325357D01*
X7212500Y-16411071D01*
X7198214Y-16439643D01*
X7183928Y-16453929D01*
X7155357Y-16468214D01*
X7098214Y-16468214D01*
X7069643Y-16453929D01*
X7341071Y-16439643D02*
X7355357Y-16453929D01*
X7341071Y-16468214D01*
X7326786Y-16453929D01*
X7341071Y-16439643D01*
X7341071Y-16468214D01*
X7341071Y-16282500D02*
X7355357Y-16296786D01*
X7341071Y-16311071D01*
X7326786Y-16296786D01*
X7341071Y-16282500D01*
X7341071Y-16311071D01*
X4947500Y-16937500D02*
X4997500Y-16987500D01*
X4997500Y-16937500D02*
X4947500Y-16987500D01*
X5341071Y-16798214D02*
X5369643Y-16798214D01*
X5398214Y-16812500D01*
X5412500Y-16826786D01*
X5426786Y-16855357D01*
X5441071Y-16912500D01*
X5441071Y-16983929D01*
X5426786Y-17041072D01*
X5412500Y-17069643D01*
X5398214Y-17083929D01*
X5369643Y-17098214D01*
X5341071Y-17098214D01*
X5312500Y-17083929D01*
X5298214Y-17069643D01*
X5283928Y-17041072D01*
X5269643Y-16983929D01*
X5269643Y-16912500D01*
X5283928Y-16855357D01*
X5298214Y-16826786D01*
X5312500Y-16812500D01*
X5341071Y-16798214D01*
X5569643Y-17069643D02*
X5583928Y-17083929D01*
X5569643Y-17098214D01*
X5555357Y-17083929D01*
X5569643Y-17069643D01*
X5569643Y-17098214D01*
X5855357Y-16798214D02*
X5712500Y-16798214D01*
X5698214Y-16941072D01*
X5712500Y-16926786D01*
X5741071Y-16912500D01*
X5812500Y-16912500D01*
X5841071Y-16926786D01*
X5855357Y-16941072D01*
X5869643Y-16969643D01*
X5869643Y-17041072D01*
X5855357Y-17069643D01*
X5841071Y-17083929D01*
X5812500Y-17098214D01*
X5741071Y-17098214D01*
X5712500Y-17083929D01*
X5698214Y-17069643D01*
X6055357Y-16798214D02*
X6083928Y-16798214D01*
X6112500Y-16812500D01*
X6126786Y-16826786D01*
X6141071Y-16855357D01*
X6155357Y-16912500D01*
X6155357Y-16983929D01*
X6141071Y-17041072D01*
X6126786Y-17069643D01*
X6112500Y-17083929D01*
X6083928Y-17098214D01*
X6055357Y-17098214D01*
X6026786Y-17083929D01*
X6012500Y-17069643D01*
X5998214Y-17041072D01*
X5983928Y-16983929D01*
X5983928Y-16912500D01*
X5998214Y-16855357D01*
X6012500Y-16826786D01*
X6026786Y-16812500D01*
X6055357Y-16798214D01*
X6341071Y-16798214D02*
X6369643Y-16798214D01*
X6398214Y-16812500D01*
X6412500Y-16826786D01*
X6426786Y-16855357D01*
X6441071Y-16912500D01*
X6441071Y-16983929D01*
X6426786Y-17041072D01*
X6412500Y-17069643D01*
X6398214Y-17083929D01*
X6369643Y-17098214D01*
X6341071Y-17098214D01*
X6312500Y-17083929D01*
X6298214Y-17069643D01*
X6283928Y-17041072D01*
X6269643Y-16983929D01*
X6269643Y-16912500D01*
X6283928Y-16855357D01*
X6298214Y-16826786D01*
X6312500Y-16812500D01*
X6341071Y-16798214D01*
X6569643Y-17098214D02*
X6569643Y-16898214D01*
X6569643Y-16926786D02*
X6583928Y-16912500D01*
X6612500Y-16898214D01*
X6655357Y-16898214D01*
X6683928Y-16912500D01*
X6698214Y-16941072D01*
X6698214Y-17098214D01*
X6698214Y-16941072D02*
X6712500Y-16912500D01*
X6741071Y-16898214D01*
X6783928Y-16898214D01*
X6812500Y-16912500D01*
X6826786Y-16941072D01*
X6826786Y-17098214D01*
X6969643Y-17098214D02*
X6969643Y-16898214D01*
X6969643Y-16926786D02*
X6983928Y-16912500D01*
X7012500Y-16898214D01*
X7055357Y-16898214D01*
X7083928Y-16912500D01*
X7098214Y-16941072D01*
X7098214Y-17098214D01*
X7098214Y-16941072D02*
X7112500Y-16912500D01*
X7141071Y-16898214D01*
X7183928Y-16898214D01*
X7212500Y-16912500D01*
X7226786Y-16941072D01*
X7226786Y-17098214D01*
X7812500Y-16783929D02*
X7555357Y-17169643D01*
X8198214Y-16798214D02*
X8226786Y-16798214D01*
X8255357Y-16812500D01*
X8269643Y-16826786D01*
X8283928Y-16855357D01*
X8298214Y-16912500D01*
X8298214Y-16983929D01*
X8283928Y-17041072D01*
X8269643Y-17069643D01*
X8255357Y-17083929D01*
X8226786Y-17098214D01*
X8198214Y-17098214D01*
X8169643Y-17083929D01*
X8155357Y-17069643D01*
X8141071Y-17041072D01*
X8126786Y-16983929D01*
X8126786Y-16912500D01*
X8141071Y-16855357D01*
X8155357Y-16826786D01*
X8169643Y-16812500D01*
X8198214Y-16798214D01*
X8426786Y-17069643D02*
X8441071Y-17083929D01*
X8426786Y-17098214D01*
X8412500Y-17083929D01*
X8426786Y-17069643D01*
X8426786Y-17098214D01*
X8626786Y-16798214D02*
X8655357Y-16798214D01*
X8683928Y-16812500D01*
X8698214Y-16826786D01*
X8712500Y-16855357D01*
X8726786Y-16912500D01*
X8726786Y-16983929D01*
X8712500Y-17041072D01*
X8698214Y-17069643D01*
X8683928Y-17083929D01*
X8655357Y-17098214D01*
X8626786Y-17098214D01*
X8598214Y-17083929D01*
X8583928Y-17069643D01*
X8569643Y-17041072D01*
X8555357Y-16983929D01*
X8555357Y-16912500D01*
X8569643Y-16855357D01*
X8583928Y-16826786D01*
X8598214Y-16812500D01*
X8626786Y-16798214D01*
X9012500Y-17098214D02*
X8841071Y-17098214D01*
X8926786Y-17098214D02*
X8926786Y-16798214D01*
X8898214Y-16841072D01*
X8869643Y-16869643D01*
X8841071Y-16883929D01*
X9155357Y-17098214D02*
X9212500Y-17098214D01*
X9241071Y-17083929D01*
X9255357Y-17069643D01*
X9283928Y-17026786D01*
X9298214Y-16969643D01*
X9298214Y-16855357D01*
X9283928Y-16826786D01*
X9269643Y-16812500D01*
X9241071Y-16798214D01*
X9183928Y-16798214D01*
X9155357Y-16812500D01*
X9141071Y-16826786D01*
X9126786Y-16855357D01*
X9126786Y-16926786D01*
X9141071Y-16955357D01*
X9155357Y-16969643D01*
X9183928Y-16983929D01*
X9241071Y-16983929D01*
X9269643Y-16969643D01*
X9283928Y-16955357D01*
X9298214Y-16926786D01*
X9398214Y-16798214D02*
X9598214Y-16798214D01*
X9469643Y-17098214D01*
X9698214Y-16798214D02*
X9698214Y-16855357D01*
X9812500Y-16798214D02*
X9812500Y-16855357D01*
X10255357Y-17212500D02*
X10241071Y-17198214D01*
X10212500Y-17155357D01*
X10198214Y-17126786D01*
X10183928Y-17083929D01*
X10169643Y-17012500D01*
X10169643Y-16955357D01*
X10183928Y-16883929D01*
X10198214Y-16841072D01*
X10212500Y-16812500D01*
X10241071Y-16769643D01*
X10255357Y-16755357D01*
X10355357Y-16826786D02*
X10369643Y-16812500D01*
X10398214Y-16798214D01*
X10469643Y-16798214D01*
X10498214Y-16812500D01*
X10512500Y-16826786D01*
X10526786Y-16855357D01*
X10526786Y-16883929D01*
X10512500Y-16926786D01*
X10341071Y-17098214D01*
X10526786Y-17098214D01*
X10883928Y-17098214D02*
X10883928Y-16798214D01*
X11012500Y-17098214D02*
X11012500Y-16941072D01*
X10998214Y-16912500D01*
X10969643Y-16898214D01*
X10926786Y-16898214D01*
X10898214Y-16912500D01*
X10883928Y-16926786D01*
X11198214Y-17098214D02*
X11169643Y-17083929D01*
X11155357Y-17069643D01*
X11141071Y-17041072D01*
X11141071Y-16955357D01*
X11155357Y-16926786D01*
X11169643Y-16912500D01*
X11198214Y-16898214D01*
X11241071Y-16898214D01*
X11269643Y-16912500D01*
X11283928Y-16926786D01*
X11298214Y-16955357D01*
X11298214Y-17041072D01*
X11283928Y-17069643D01*
X11269643Y-17083929D01*
X11241071Y-17098214D01*
X11198214Y-17098214D01*
X11469643Y-17098214D02*
X11441071Y-17083929D01*
X11426786Y-17055357D01*
X11426786Y-16798214D01*
X11698214Y-17083929D02*
X11669643Y-17098214D01*
X11612500Y-17098214D01*
X11583928Y-17083929D01*
X11569643Y-17055357D01*
X11569643Y-16941072D01*
X11583928Y-16912500D01*
X11612500Y-16898214D01*
X11669643Y-16898214D01*
X11698214Y-16912500D01*
X11712500Y-16941072D01*
X11712500Y-16969643D01*
X11569643Y-16998214D01*
X11826786Y-17083929D02*
X11855357Y-17098214D01*
X11912500Y-17098214D01*
X11941071Y-17083929D01*
X11955357Y-17055357D01*
X11955357Y-17041072D01*
X11941071Y-17012500D01*
X11912500Y-16998214D01*
X11869643Y-16998214D01*
X11841071Y-16983929D01*
X11826786Y-16955357D01*
X11826786Y-16941072D01*
X11841071Y-16912500D01*
X11869643Y-16898214D01*
X11912500Y-16898214D01*
X11941071Y-16912500D01*
X12055357Y-17212500D02*
X12069643Y-17198214D01*
X12098214Y-17155357D01*
X12112500Y-17126786D01*
X12126786Y-17083929D01*
X12141071Y-17012500D01*
X12141071Y-16955357D01*
X12126786Y-16883929D01*
X12112500Y-16841072D01*
X12098214Y-16812500D01*
X12069643Y-16769643D01*
X12055357Y-16755357D01*
X12598214Y-17212500D02*
X12583928Y-17198214D01*
X12555357Y-17155357D01*
X12541071Y-17126786D01*
X12526786Y-17083929D01*
X12512500Y-17012500D01*
X12512500Y-16955357D01*
X12526786Y-16883929D01*
X12541071Y-16841072D01*
X12555357Y-16812500D01*
X12583928Y-16769643D01*
X12598214Y-16755357D01*
X12712500Y-16898214D02*
X12712500Y-17098214D01*
X12712500Y-16926786D02*
X12726786Y-16912500D01*
X12755357Y-16898214D01*
X12798214Y-16898214D01*
X12826786Y-16912500D01*
X12841071Y-16941072D01*
X12841071Y-17098214D01*
X13026786Y-17098214D02*
X12998214Y-17083929D01*
X12983928Y-17069643D01*
X12969643Y-17041072D01*
X12969643Y-16955357D01*
X12983928Y-16926786D01*
X12998214Y-16912500D01*
X13026786Y-16898214D01*
X13069643Y-16898214D01*
X13098214Y-16912500D01*
X13112500Y-16926786D01*
X13126786Y-16955357D01*
X13126786Y-17041072D01*
X13112500Y-17069643D01*
X13098214Y-17083929D01*
X13069643Y-17098214D01*
X13026786Y-17098214D01*
X13212500Y-16898214D02*
X13326786Y-16898214D01*
X13255357Y-16798214D02*
X13255357Y-17055357D01*
X13269643Y-17083929D01*
X13298214Y-17098214D01*
X13326786Y-17098214D01*
X13655357Y-16898214D02*
X13655357Y-17198214D01*
X13655357Y-16912500D02*
X13683928Y-16898214D01*
X13741071Y-16898214D01*
X13769643Y-16912500D01*
X13783928Y-16926786D01*
X13798214Y-16955357D01*
X13798214Y-17041072D01*
X13783928Y-17069643D01*
X13769643Y-17083929D01*
X13741071Y-17098214D01*
X13683928Y-17098214D01*
X13655357Y-17083929D01*
X13969643Y-17098214D02*
X13941071Y-17083929D01*
X13926786Y-17055357D01*
X13926786Y-16798214D01*
X14212500Y-17098214D02*
X14212500Y-16941072D01*
X14198214Y-16912500D01*
X14169643Y-16898214D01*
X14112500Y-16898214D01*
X14083928Y-16912500D01*
X14212500Y-17083929D02*
X14183928Y-17098214D01*
X14112500Y-17098214D01*
X14083928Y-17083929D01*
X14069643Y-17055357D01*
X14069643Y-17026786D01*
X14083928Y-16998214D01*
X14112500Y-16983929D01*
X14183928Y-16983929D01*
X14212500Y-16969643D01*
X14312500Y-16898214D02*
X14426786Y-16898214D01*
X14355357Y-16798214D02*
X14355357Y-17055357D01*
X14369643Y-17083929D01*
X14398214Y-17098214D01*
X14426786Y-17098214D01*
X14641071Y-17083929D02*
X14612500Y-17098214D01*
X14555357Y-17098214D01*
X14526786Y-17083929D01*
X14512500Y-17055357D01*
X14512500Y-16941072D01*
X14526786Y-16912500D01*
X14555357Y-16898214D01*
X14612500Y-16898214D01*
X14641071Y-16912500D01*
X14655357Y-16941072D01*
X14655357Y-16969643D01*
X14512500Y-16998214D01*
X14912500Y-17098214D02*
X14912500Y-16798214D01*
X14912500Y-17083929D02*
X14883928Y-17098214D01*
X14826786Y-17098214D01*
X14798214Y-17083929D01*
X14783928Y-17069643D01*
X14769643Y-17041072D01*
X14769643Y-16955357D01*
X14783928Y-16926786D01*
X14798214Y-16912500D01*
X14826786Y-16898214D01*
X14883928Y-16898214D01*
X14912500Y-16912500D01*
X15026786Y-17212500D02*
X15041071Y-17198214D01*
X15069643Y-17155357D01*
X15083928Y-17126786D01*
X15098214Y-17083929D01*
X15112500Y-17012500D01*
X15112500Y-16955357D01*
X15098214Y-16883929D01*
X15083928Y-16841072D01*
X15069643Y-16812500D01*
X15041071Y-16769643D01*
X15026786Y-16755357D01*
X4997500Y-17358500D02*
G75*
G03*
X4997500Y-17358500I-45000J0D01*
G01*
X5341071Y-17194214D02*
X5369643Y-17194214D01*
X5398214Y-17208500D01*
X5412500Y-17222786D01*
X5426786Y-17251357D01*
X5441071Y-17308500D01*
X5441071Y-17379929D01*
X5426786Y-17437072D01*
X5412500Y-17465643D01*
X5398214Y-17479929D01*
X5369643Y-17494214D01*
X5341071Y-17494214D01*
X5312500Y-17479929D01*
X5298214Y-17465643D01*
X5283928Y-17437072D01*
X5269643Y-17379929D01*
X5269643Y-17308500D01*
X5283928Y-17251357D01*
X5298214Y-17222786D01*
X5312500Y-17208500D01*
X5341071Y-17194214D01*
X5569643Y-17465643D02*
X5583928Y-17479929D01*
X5569643Y-17494214D01*
X5555357Y-17479929D01*
X5569643Y-17465643D01*
X5569643Y-17494214D01*
X5726786Y-17494214D02*
X5783928Y-17494214D01*
X5812500Y-17479929D01*
X5826786Y-17465643D01*
X5855357Y-17422786D01*
X5869643Y-17365643D01*
X5869643Y-17251357D01*
X5855357Y-17222786D01*
X5841071Y-17208500D01*
X5812500Y-17194214D01*
X5755357Y-17194214D01*
X5726786Y-17208500D01*
X5712500Y-17222786D01*
X5698214Y-17251357D01*
X5698214Y-17322786D01*
X5712500Y-17351357D01*
X5726786Y-17365643D01*
X5755357Y-17379929D01*
X5812500Y-17379929D01*
X5841071Y-17365643D01*
X5855357Y-17351357D01*
X5869643Y-17322786D01*
X6055357Y-17194214D02*
X6083928Y-17194214D01*
X6112500Y-17208500D01*
X6126786Y-17222786D01*
X6141071Y-17251357D01*
X6155357Y-17308500D01*
X6155357Y-17379929D01*
X6141071Y-17437072D01*
X6126786Y-17465643D01*
X6112500Y-17479929D01*
X6083928Y-17494214D01*
X6055357Y-17494214D01*
X6026786Y-17479929D01*
X6012500Y-17465643D01*
X5998214Y-17437072D01*
X5983928Y-17379929D01*
X5983928Y-17308500D01*
X5998214Y-17251357D01*
X6012500Y-17222786D01*
X6026786Y-17208500D01*
X6055357Y-17194214D01*
X6341071Y-17194214D02*
X6369643Y-17194214D01*
X6398214Y-17208500D01*
X6412500Y-17222786D01*
X6426786Y-17251357D01*
X6441071Y-17308500D01*
X6441071Y-17379929D01*
X6426786Y-17437072D01*
X6412500Y-17465643D01*
X6398214Y-17479929D01*
X6369643Y-17494214D01*
X6341071Y-17494214D01*
X6312500Y-17479929D01*
X6298214Y-17465643D01*
X6283928Y-17437072D01*
X6269643Y-17379929D01*
X6269643Y-17308500D01*
X6283928Y-17251357D01*
X6298214Y-17222786D01*
X6312500Y-17208500D01*
X6341071Y-17194214D01*
X6569643Y-17494214D02*
X6569643Y-17294214D01*
X6569643Y-17322786D02*
X6583928Y-17308500D01*
X6612500Y-17294214D01*
X6655357Y-17294214D01*
X6683928Y-17308500D01*
X6698214Y-17337072D01*
X6698214Y-17494214D01*
X6698214Y-17337072D02*
X6712500Y-17308500D01*
X6741071Y-17294214D01*
X6783928Y-17294214D01*
X6812500Y-17308500D01*
X6826786Y-17337072D01*
X6826786Y-17494214D01*
X6969643Y-17494214D02*
X6969643Y-17294214D01*
X6969643Y-17322786D02*
X6983928Y-17308500D01*
X7012500Y-17294214D01*
X7055357Y-17294214D01*
X7083928Y-17308500D01*
X7098214Y-17337072D01*
X7098214Y-17494214D01*
X7098214Y-17337072D02*
X7112500Y-17308500D01*
X7141071Y-17294214D01*
X7183928Y-17294214D01*
X7212500Y-17308500D01*
X7226786Y-17337072D01*
X7226786Y-17494214D01*
X7812500Y-17179929D02*
X7555357Y-17565643D01*
X8198214Y-17194214D02*
X8226786Y-17194214D01*
X8255357Y-17208500D01*
X8269643Y-17222786D01*
X8283928Y-17251357D01*
X8298214Y-17308500D01*
X8298214Y-17379929D01*
X8283928Y-17437072D01*
X8269643Y-17465643D01*
X8255357Y-17479929D01*
X8226786Y-17494214D01*
X8198214Y-17494214D01*
X8169643Y-17479929D01*
X8155357Y-17465643D01*
X8141071Y-17437072D01*
X8126786Y-17379929D01*
X8126786Y-17308500D01*
X8141071Y-17251357D01*
X8155357Y-17222786D01*
X8169643Y-17208500D01*
X8198214Y-17194214D01*
X8426786Y-17465643D02*
X8441071Y-17479929D01*
X8426786Y-17494214D01*
X8412500Y-17479929D01*
X8426786Y-17465643D01*
X8426786Y-17494214D01*
X8626786Y-17194214D02*
X8655357Y-17194214D01*
X8683928Y-17208500D01*
X8698214Y-17222786D01*
X8712500Y-17251357D01*
X8726786Y-17308500D01*
X8726786Y-17379929D01*
X8712500Y-17437072D01*
X8698214Y-17465643D01*
X8683928Y-17479929D01*
X8655357Y-17494214D01*
X8626786Y-17494214D01*
X8598214Y-17479929D01*
X8583928Y-17465643D01*
X8569643Y-17437072D01*
X8555357Y-17379929D01*
X8555357Y-17308500D01*
X8569643Y-17251357D01*
X8583928Y-17222786D01*
X8598214Y-17208500D01*
X8626786Y-17194214D01*
X8826786Y-17194214D02*
X9012500Y-17194214D01*
X8912500Y-17308500D01*
X8955357Y-17308500D01*
X8983928Y-17322786D01*
X8998214Y-17337072D01*
X9012500Y-17365643D01*
X9012500Y-17437072D01*
X8998214Y-17465643D01*
X8983928Y-17479929D01*
X8955357Y-17494214D01*
X8869643Y-17494214D01*
X8841071Y-17479929D01*
X8826786Y-17465643D01*
X9283928Y-17194214D02*
X9141071Y-17194214D01*
X9126786Y-17337072D01*
X9141071Y-17322786D01*
X9169643Y-17308500D01*
X9241071Y-17308500D01*
X9269643Y-17322786D01*
X9283928Y-17337072D01*
X9298214Y-17365643D01*
X9298214Y-17437072D01*
X9283928Y-17465643D01*
X9269643Y-17479929D01*
X9241071Y-17494214D01*
X9169643Y-17494214D01*
X9141071Y-17479929D01*
X9126786Y-17465643D01*
X9555357Y-17294214D02*
X9555357Y-17494214D01*
X9483928Y-17179929D02*
X9412500Y-17394214D01*
X9598214Y-17394214D01*
X9698214Y-17194214D02*
X9698214Y-17251357D01*
X9812500Y-17194214D02*
X9812500Y-17251357D01*
X10255357Y-17608500D02*
X10241071Y-17594214D01*
X10212500Y-17551357D01*
X10198214Y-17522786D01*
X10183928Y-17479929D01*
X10169643Y-17408500D01*
X10169643Y-17351357D01*
X10183928Y-17279929D01*
X10198214Y-17237072D01*
X10212500Y-17208500D01*
X10241071Y-17165643D01*
X10255357Y-17151357D01*
X10355357Y-17222786D02*
X10369643Y-17208500D01*
X10398214Y-17194214D01*
X10469643Y-17194214D01*
X10498214Y-17208500D01*
X10512500Y-17222786D01*
X10526786Y-17251357D01*
X10526786Y-17279929D01*
X10512500Y-17322786D01*
X10341071Y-17494214D01*
X10526786Y-17494214D01*
X10883928Y-17494214D02*
X10883928Y-17194214D01*
X11012500Y-17494214D02*
X11012500Y-17337072D01*
X10998214Y-17308500D01*
X10969643Y-17294214D01*
X10926786Y-17294214D01*
X10898214Y-17308500D01*
X10883928Y-17322786D01*
X11198214Y-17494214D02*
X11169643Y-17479929D01*
X11155357Y-17465643D01*
X11141071Y-17437072D01*
X11141071Y-17351357D01*
X11155357Y-17322786D01*
X11169643Y-17308500D01*
X11198214Y-17294214D01*
X11241071Y-17294214D01*
X11269643Y-17308500D01*
X11283928Y-17322786D01*
X11298214Y-17351357D01*
X11298214Y-17437072D01*
X11283928Y-17465643D01*
X11269643Y-17479929D01*
X11241071Y-17494214D01*
X11198214Y-17494214D01*
X11469643Y-17494214D02*
X11441071Y-17479929D01*
X11426786Y-17451357D01*
X11426786Y-17194214D01*
X11698214Y-17479929D02*
X11669643Y-17494214D01*
X11612500Y-17494214D01*
X11583928Y-17479929D01*
X11569643Y-17451357D01*
X11569643Y-17337072D01*
X11583928Y-17308500D01*
X11612500Y-17294214D01*
X11669643Y-17294214D01*
X11698214Y-17308500D01*
X11712500Y-17337072D01*
X11712500Y-17365643D01*
X11569643Y-17394214D01*
X11826786Y-17479929D02*
X11855357Y-17494214D01*
X11912500Y-17494214D01*
X11941071Y-17479929D01*
X11955357Y-17451357D01*
X11955357Y-17437072D01*
X11941071Y-17408500D01*
X11912500Y-17394214D01*
X11869643Y-17394214D01*
X11841071Y-17379929D01*
X11826786Y-17351357D01*
X11826786Y-17337072D01*
X11841071Y-17308500D01*
X11869643Y-17294214D01*
X11912500Y-17294214D01*
X11941071Y-17308500D01*
X12055357Y-17608500D02*
X12069643Y-17594214D01*
X12098214Y-17551357D01*
X12112500Y-17522786D01*
X12126786Y-17479929D01*
X12141071Y-17408500D01*
X12141071Y-17351357D01*
X12126786Y-17279929D01*
X12112500Y-17237072D01*
X12098214Y-17208500D01*
X12069643Y-17165643D01*
X12055357Y-17151357D01*
X12598214Y-17608500D02*
X12583928Y-17594214D01*
X12555357Y-17551357D01*
X12541071Y-17522786D01*
X12526786Y-17479929D01*
X12512500Y-17408500D01*
X12512500Y-17351357D01*
X12526786Y-17279929D01*
X12541071Y-17237072D01*
X12555357Y-17208500D01*
X12583928Y-17165643D01*
X12598214Y-17151357D01*
X12712500Y-17294214D02*
X12712500Y-17494214D01*
X12712500Y-17322786D02*
X12726786Y-17308500D01*
X12755357Y-17294214D01*
X12798214Y-17294214D01*
X12826786Y-17308500D01*
X12841071Y-17337072D01*
X12841071Y-17494214D01*
X13026786Y-17494214D02*
X12998214Y-17479929D01*
X12983928Y-17465643D01*
X12969643Y-17437072D01*
X12969643Y-17351357D01*
X12983928Y-17322786D01*
X12998214Y-17308500D01*
X13026786Y-17294214D01*
X13069643Y-17294214D01*
X13098214Y-17308500D01*
X13112500Y-17322786D01*
X13126786Y-17351357D01*
X13126786Y-17437072D01*
X13112500Y-17465643D01*
X13098214Y-17479929D01*
X13069643Y-17494214D01*
X13026786Y-17494214D01*
X13212500Y-17294214D02*
X13326786Y-17294214D01*
X13255357Y-17194214D02*
X13255357Y-17451357D01*
X13269643Y-17479929D01*
X13298214Y-17494214D01*
X13326786Y-17494214D01*
X13655357Y-17294214D02*
X13655357Y-17594214D01*
X13655357Y-17308500D02*
X13683928Y-17294214D01*
X13741071Y-17294214D01*
X13769643Y-17308500D01*
X13783928Y-17322786D01*
X13798214Y-17351357D01*
X13798214Y-17437072D01*
X13783928Y-17465643D01*
X13769643Y-17479929D01*
X13741071Y-17494214D01*
X13683928Y-17494214D01*
X13655357Y-17479929D01*
X13969643Y-17494214D02*
X13941071Y-17479929D01*
X13926786Y-17451357D01*
X13926786Y-17194214D01*
X14212500Y-17494214D02*
X14212500Y-17337072D01*
X14198214Y-17308500D01*
X14169643Y-17294214D01*
X14112500Y-17294214D01*
X14083928Y-17308500D01*
X14212500Y-17479929D02*
X14183928Y-17494214D01*
X14112500Y-17494214D01*
X14083928Y-17479929D01*
X14069643Y-17451357D01*
X14069643Y-17422786D01*
X14083928Y-17394214D01*
X14112500Y-17379929D01*
X14183928Y-17379929D01*
X14212500Y-17365643D01*
X14312500Y-17294214D02*
X14426786Y-17294214D01*
X14355357Y-17194214D02*
X14355357Y-17451357D01*
X14369643Y-17479929D01*
X14398214Y-17494214D01*
X14426786Y-17494214D01*
X14641071Y-17479929D02*
X14612500Y-17494214D01*
X14555357Y-17494214D01*
X14526786Y-17479929D01*
X14512500Y-17451357D01*
X14512500Y-17337072D01*
X14526786Y-17308500D01*
X14555357Y-17294214D01*
X14612500Y-17294214D01*
X14641071Y-17308500D01*
X14655357Y-17337072D01*
X14655357Y-17365643D01*
X14512500Y-17394214D01*
X14912500Y-17494214D02*
X14912500Y-17194214D01*
X14912500Y-17479929D02*
X14883928Y-17494214D01*
X14826786Y-17494214D01*
X14798214Y-17479929D01*
X14783928Y-17465643D01*
X14769643Y-17437072D01*
X14769643Y-17351357D01*
X14783928Y-17322786D01*
X14798214Y-17308500D01*
X14826786Y-17294214D01*
X14883928Y-17294214D01*
X14912500Y-17308500D01*
X15026786Y-17608500D02*
X15041071Y-17594214D01*
X15069643Y-17551357D01*
X15083928Y-17522786D01*
X15098214Y-17479929D01*
X15112500Y-17408500D01*
X15112500Y-17351357D01*
X15098214Y-17279929D01*
X15083928Y-17237072D01*
X15069643Y-17208500D01*
X15041071Y-17165643D01*
X15026786Y-17151357D01*
X4950000Y-17707000D02*
X4950000Y-17802000D01*
X4902500Y-17754500D02*
X4997500Y-17754500D01*
X5341071Y-17590214D02*
X5369643Y-17590214D01*
X5398214Y-17604500D01*
X5412500Y-17618786D01*
X5426786Y-17647357D01*
X5441071Y-17704500D01*
X5441071Y-17775929D01*
X5426786Y-17833072D01*
X5412500Y-17861643D01*
X5398214Y-17875929D01*
X5369643Y-17890214D01*
X5341071Y-17890214D01*
X5312500Y-17875929D01*
X5298214Y-17861643D01*
X5283928Y-17833072D01*
X5269643Y-17775929D01*
X5269643Y-17704500D01*
X5283928Y-17647357D01*
X5298214Y-17618786D01*
X5312500Y-17604500D01*
X5341071Y-17590214D01*
X5569643Y-17861643D02*
X5583928Y-17875929D01*
X5569643Y-17890214D01*
X5555357Y-17875929D01*
X5569643Y-17861643D01*
X5569643Y-17890214D01*
X5726786Y-17890214D02*
X5783928Y-17890214D01*
X5812500Y-17875929D01*
X5826786Y-17861643D01*
X5855357Y-17818786D01*
X5869643Y-17761643D01*
X5869643Y-17647357D01*
X5855357Y-17618786D01*
X5841071Y-17604500D01*
X5812500Y-17590214D01*
X5755357Y-17590214D01*
X5726786Y-17604500D01*
X5712500Y-17618786D01*
X5698214Y-17647357D01*
X5698214Y-17718786D01*
X5712500Y-17747357D01*
X5726786Y-17761643D01*
X5755357Y-17775929D01*
X5812500Y-17775929D01*
X5841071Y-17761643D01*
X5855357Y-17747357D01*
X5869643Y-17718786D01*
X6141071Y-17590214D02*
X5998214Y-17590214D01*
X5983928Y-17733072D01*
X5998214Y-17718786D01*
X6026786Y-17704500D01*
X6098214Y-17704500D01*
X6126786Y-17718786D01*
X6141071Y-17733072D01*
X6155357Y-17761643D01*
X6155357Y-17833072D01*
X6141071Y-17861643D01*
X6126786Y-17875929D01*
X6098214Y-17890214D01*
X6026786Y-17890214D01*
X5998214Y-17875929D01*
X5983928Y-17861643D01*
X6341071Y-17590214D02*
X6369643Y-17590214D01*
X6398214Y-17604500D01*
X6412500Y-17618786D01*
X6426786Y-17647357D01*
X6441071Y-17704500D01*
X6441071Y-17775929D01*
X6426786Y-17833072D01*
X6412500Y-17861643D01*
X6398214Y-17875929D01*
X6369643Y-17890214D01*
X6341071Y-17890214D01*
X6312500Y-17875929D01*
X6298214Y-17861643D01*
X6283928Y-17833072D01*
X6269643Y-17775929D01*
X6269643Y-17704500D01*
X6283928Y-17647357D01*
X6298214Y-17618786D01*
X6312500Y-17604500D01*
X6341071Y-17590214D01*
X6569643Y-17890214D02*
X6569643Y-17690214D01*
X6569643Y-17718786D02*
X6583928Y-17704500D01*
X6612500Y-17690214D01*
X6655357Y-17690214D01*
X6683928Y-17704500D01*
X6698214Y-17733072D01*
X6698214Y-17890214D01*
X6698214Y-17733072D02*
X6712500Y-17704500D01*
X6741071Y-17690214D01*
X6783928Y-17690214D01*
X6812500Y-17704500D01*
X6826786Y-17733072D01*
X6826786Y-17890214D01*
X6969643Y-17890214D02*
X6969643Y-17690214D01*
X6969643Y-17718786D02*
X6983928Y-17704500D01*
X7012500Y-17690214D01*
X7055357Y-17690214D01*
X7083928Y-17704500D01*
X7098214Y-17733072D01*
X7098214Y-17890214D01*
X7098214Y-17733072D02*
X7112500Y-17704500D01*
X7141071Y-17690214D01*
X7183928Y-17690214D01*
X7212500Y-17704500D01*
X7226786Y-17733072D01*
X7226786Y-17890214D01*
X7812500Y-17575929D02*
X7555357Y-17961643D01*
X8198214Y-17590214D02*
X8226786Y-17590214D01*
X8255357Y-17604500D01*
X8269643Y-17618786D01*
X8283928Y-17647357D01*
X8298214Y-17704500D01*
X8298214Y-17775929D01*
X8283928Y-17833072D01*
X8269643Y-17861643D01*
X8255357Y-17875929D01*
X8226786Y-17890214D01*
X8198214Y-17890214D01*
X8169643Y-17875929D01*
X8155357Y-17861643D01*
X8141071Y-17833072D01*
X8126786Y-17775929D01*
X8126786Y-17704500D01*
X8141071Y-17647357D01*
X8155357Y-17618786D01*
X8169643Y-17604500D01*
X8198214Y-17590214D01*
X8426786Y-17861643D02*
X8441071Y-17875929D01*
X8426786Y-17890214D01*
X8412500Y-17875929D01*
X8426786Y-17861643D01*
X8426786Y-17890214D01*
X8626786Y-17590214D02*
X8655357Y-17590214D01*
X8683928Y-17604500D01*
X8698214Y-17618786D01*
X8712500Y-17647357D01*
X8726786Y-17704500D01*
X8726786Y-17775929D01*
X8712500Y-17833072D01*
X8698214Y-17861643D01*
X8683928Y-17875929D01*
X8655357Y-17890214D01*
X8626786Y-17890214D01*
X8598214Y-17875929D01*
X8583928Y-17861643D01*
X8569643Y-17833072D01*
X8555357Y-17775929D01*
X8555357Y-17704500D01*
X8569643Y-17647357D01*
X8583928Y-17618786D01*
X8598214Y-17604500D01*
X8626786Y-17590214D01*
X8826786Y-17590214D02*
X9012500Y-17590214D01*
X8912500Y-17704500D01*
X8955357Y-17704500D01*
X8983928Y-17718786D01*
X8998214Y-17733072D01*
X9012500Y-17761643D01*
X9012500Y-17833072D01*
X8998214Y-17861643D01*
X8983928Y-17875929D01*
X8955357Y-17890214D01*
X8869643Y-17890214D01*
X8841071Y-17875929D01*
X8826786Y-17861643D01*
X9112500Y-17590214D02*
X9312500Y-17590214D01*
X9183928Y-17890214D01*
X9555357Y-17690214D02*
X9555357Y-17890214D01*
X9483928Y-17575929D02*
X9412500Y-17790214D01*
X9598214Y-17790214D01*
X9698214Y-17590214D02*
X9698214Y-17647357D01*
X9812500Y-17590214D02*
X9812500Y-17647357D01*
X10255357Y-18004500D02*
X10241071Y-17990214D01*
X10212500Y-17947357D01*
X10198214Y-17918786D01*
X10183928Y-17875929D01*
X10169643Y-17804500D01*
X10169643Y-17747357D01*
X10183928Y-17675929D01*
X10198214Y-17633072D01*
X10212500Y-17604500D01*
X10241071Y-17561643D01*
X10255357Y-17547357D01*
X10355357Y-17618786D02*
X10369643Y-17604500D01*
X10398214Y-17590214D01*
X10469643Y-17590214D01*
X10498214Y-17604500D01*
X10512500Y-17618786D01*
X10526786Y-17647357D01*
X10526786Y-17675929D01*
X10512500Y-17718786D01*
X10341071Y-17890214D01*
X10526786Y-17890214D01*
X10883928Y-17890214D02*
X10883928Y-17590214D01*
X11012500Y-17890214D02*
X11012500Y-17733072D01*
X10998214Y-17704500D01*
X10969643Y-17690214D01*
X10926786Y-17690214D01*
X10898214Y-17704500D01*
X10883928Y-17718786D01*
X11198214Y-17890214D02*
X11169643Y-17875929D01*
X11155357Y-17861643D01*
X11141071Y-17833072D01*
X11141071Y-17747357D01*
X11155357Y-17718786D01*
X11169643Y-17704500D01*
X11198214Y-17690214D01*
X11241071Y-17690214D01*
X11269643Y-17704500D01*
X11283928Y-17718786D01*
X11298214Y-17747357D01*
X11298214Y-17833072D01*
X11283928Y-17861643D01*
X11269643Y-17875929D01*
X11241071Y-17890214D01*
X11198214Y-17890214D01*
X11469643Y-17890214D02*
X11441071Y-17875929D01*
X11426786Y-17847357D01*
X11426786Y-17590214D01*
X11698214Y-17875929D02*
X11669643Y-17890214D01*
X11612500Y-17890214D01*
X11583928Y-17875929D01*
X11569643Y-17847357D01*
X11569643Y-17733072D01*
X11583928Y-17704500D01*
X11612500Y-17690214D01*
X11669643Y-17690214D01*
X11698214Y-17704500D01*
X11712500Y-17733072D01*
X11712500Y-17761643D01*
X11569643Y-17790214D01*
X11826786Y-17875929D02*
X11855357Y-17890214D01*
X11912500Y-17890214D01*
X11941071Y-17875929D01*
X11955357Y-17847357D01*
X11955357Y-17833072D01*
X11941071Y-17804500D01*
X11912500Y-17790214D01*
X11869643Y-17790214D01*
X11841071Y-17775929D01*
X11826786Y-17747357D01*
X11826786Y-17733072D01*
X11841071Y-17704500D01*
X11869643Y-17690214D01*
X11912500Y-17690214D01*
X11941071Y-17704500D01*
X12055357Y-18004500D02*
X12069643Y-17990214D01*
X12098214Y-17947357D01*
X12112500Y-17918786D01*
X12126786Y-17875929D01*
X12141071Y-17804500D01*
X12141071Y-17747357D01*
X12126786Y-17675929D01*
X12112500Y-17633072D01*
X12098214Y-17604500D01*
X12069643Y-17561643D01*
X12055357Y-17547357D01*
X12598214Y-18004500D02*
X12583928Y-17990214D01*
X12555357Y-17947357D01*
X12541071Y-17918786D01*
X12526786Y-17875929D01*
X12512500Y-17804500D01*
X12512500Y-17747357D01*
X12526786Y-17675929D01*
X12541071Y-17633072D01*
X12555357Y-17604500D01*
X12583928Y-17561643D01*
X12598214Y-17547357D01*
X12712500Y-17690214D02*
X12712500Y-17890214D01*
X12712500Y-17718786D02*
X12726786Y-17704500D01*
X12755357Y-17690214D01*
X12798214Y-17690214D01*
X12826786Y-17704500D01*
X12841071Y-17733072D01*
X12841071Y-17890214D01*
X13026786Y-17890214D02*
X12998214Y-17875929D01*
X12983928Y-17861643D01*
X12969643Y-17833072D01*
X12969643Y-17747357D01*
X12983928Y-17718786D01*
X12998214Y-17704500D01*
X13026786Y-17690214D01*
X13069643Y-17690214D01*
X13098214Y-17704500D01*
X13112500Y-17718786D01*
X13126786Y-17747357D01*
X13126786Y-17833072D01*
X13112500Y-17861643D01*
X13098214Y-17875929D01*
X13069643Y-17890214D01*
X13026786Y-17890214D01*
X13212500Y-17690214D02*
X13326786Y-17690214D01*
X13255357Y-17590214D02*
X13255357Y-17847357D01*
X13269643Y-17875929D01*
X13298214Y-17890214D01*
X13326786Y-17890214D01*
X13655357Y-17690214D02*
X13655357Y-17990214D01*
X13655357Y-17704500D02*
X13683928Y-17690214D01*
X13741071Y-17690214D01*
X13769643Y-17704500D01*
X13783928Y-17718786D01*
X13798214Y-17747357D01*
X13798214Y-17833072D01*
X13783928Y-17861643D01*
X13769643Y-17875929D01*
X13741071Y-17890214D01*
X13683928Y-17890214D01*
X13655357Y-17875929D01*
X13969643Y-17890214D02*
X13941071Y-17875929D01*
X13926786Y-17847357D01*
X13926786Y-17590214D01*
X14212500Y-17890214D02*
X14212500Y-17733072D01*
X14198214Y-17704500D01*
X14169643Y-17690214D01*
X14112500Y-17690214D01*
X14083928Y-17704500D01*
X14212500Y-17875929D02*
X14183928Y-17890214D01*
X14112500Y-17890214D01*
X14083928Y-17875929D01*
X14069643Y-17847357D01*
X14069643Y-17818786D01*
X14083928Y-17790214D01*
X14112500Y-17775929D01*
X14183928Y-17775929D01*
X14212500Y-17761643D01*
X14312500Y-17690214D02*
X14426786Y-17690214D01*
X14355357Y-17590214D02*
X14355357Y-17847357D01*
X14369643Y-17875929D01*
X14398214Y-17890214D01*
X14426786Y-17890214D01*
X14641071Y-17875929D02*
X14612500Y-17890214D01*
X14555357Y-17890214D01*
X14526786Y-17875929D01*
X14512500Y-17847357D01*
X14512500Y-17733072D01*
X14526786Y-17704500D01*
X14555357Y-17690214D01*
X14612500Y-17690214D01*
X14641071Y-17704500D01*
X14655357Y-17733072D01*
X14655357Y-17761643D01*
X14512500Y-17790214D01*
X14912500Y-17890214D02*
X14912500Y-17590214D01*
X14912500Y-17875929D02*
X14883928Y-17890214D01*
X14826786Y-17890214D01*
X14798214Y-17875929D01*
X14783928Y-17861643D01*
X14769643Y-17833072D01*
X14769643Y-17747357D01*
X14783928Y-17718786D01*
X14798214Y-17704500D01*
X14826786Y-17690214D01*
X14883928Y-17690214D01*
X14912500Y-17704500D01*
X15026786Y-18004500D02*
X15041071Y-17990214D01*
X15069643Y-17947357D01*
X15083928Y-17918786D01*
X15098214Y-17875929D01*
X15112500Y-17804500D01*
X15112500Y-17747357D01*
X15098214Y-17675929D01*
X15083928Y-17633072D01*
X15069643Y-17604500D01*
X15041071Y-17561643D01*
X15026786Y-17547357D01*
M02*
