G04 #@! TF.GenerationSoftware,KiCad,Pcbnew,(5.1.10)-1*
G04 #@! TF.CreationDate,2021-11-18T19:13:28-07:00*
G04 #@! TF.ProjectId,ATSAME51Demo,41545341-4d45-4353-9144-656d6f2e6b69,1.0*
G04 #@! TF.SameCoordinates,Original*
G04 #@! TF.FileFunction,Copper,L1,Top*
G04 #@! TF.FilePolarity,Positive*
%FSLAX46Y46*%
G04 Gerber Fmt 4.6, Leading zero omitted, Abs format (unit mm)*
G04 Created by KiCad (PCBNEW (5.1.10)-1) date 2021-11-18 19:13:28*
%MOMM*%
%LPD*%
G01*
G04 APERTURE LIST*
G04 #@! TA.AperFunction,ComponentPad*
%ADD10O,1.700000X1.700000*%
G04 #@! TD*
G04 #@! TA.AperFunction,ComponentPad*
%ADD11R,1.700000X1.700000*%
G04 #@! TD*
G04 #@! TA.AperFunction,SMDPad,CuDef*
%ADD12R,1.400000X0.400000*%
G04 #@! TD*
G04 #@! TA.AperFunction,SMDPad,CuDef*
%ADD13R,1.900000X2.300000*%
G04 #@! TD*
G04 #@! TA.AperFunction,SMDPad,CuDef*
%ADD14R,1.900000X1.800000*%
G04 #@! TD*
G04 #@! TA.AperFunction,SMDPad,CuDef*
%ADD15R,1.100000X2.400000*%
G04 #@! TD*
G04 #@! TA.AperFunction,SMDPad,CuDef*
%ADD16R,0.620000X1.400000*%
G04 #@! TD*
G04 #@! TA.AperFunction,SMDPad,CuDef*
%ADD17R,1.500000X0.650000*%
G04 #@! TD*
G04 #@! TA.AperFunction,SMDPad,CuDef*
%ADD18R,1.200000X0.600000*%
G04 #@! TD*
G04 #@! TA.AperFunction,SMDPad,CuDef*
%ADD19R,1.200000X1.400000*%
G04 #@! TD*
G04 #@! TA.AperFunction,ComponentPad*
%ADD20C,1.540000*%
G04 #@! TD*
G04 #@! TA.AperFunction,SMDPad,CuDef*
%ADD21R,1.550000X1.000000*%
G04 #@! TD*
G04 #@! TA.AperFunction,SMDPad,CuDef*
%ADD22R,2.500000X0.500000*%
G04 #@! TD*
G04 #@! TA.AperFunction,SMDPad,CuDef*
%ADD23R,2.500000X2.000000*%
G04 #@! TD*
G04 #@! TA.AperFunction,ComponentPad*
%ADD24R,4.400000X1.800000*%
G04 #@! TD*
G04 #@! TA.AperFunction,ComponentPad*
%ADD25O,4.000000X1.800000*%
G04 #@! TD*
G04 #@! TA.AperFunction,ComponentPad*
%ADD26O,1.800000X4.000000*%
G04 #@! TD*
G04 #@! TA.AperFunction,SMDPad,CuDef*
%ADD27R,1.850000X3.200000*%
G04 #@! TD*
G04 #@! TA.AperFunction,SMDPad,CuDef*
%ADD28R,1.850000X0.900000*%
G04 #@! TD*
G04 #@! TA.AperFunction,SMDPad,CuDef*
%ADD29R,0.300000X1.475000*%
G04 #@! TD*
G04 #@! TA.AperFunction,SMDPad,CuDef*
%ADD30R,1.475000X0.300000*%
G04 #@! TD*
G04 #@! TA.AperFunction,SMDPad,CuDef*
%ADD31R,0.900000X1.200000*%
G04 #@! TD*
G04 #@! TA.AperFunction,SMDPad,CuDef*
%ADD32R,1.200000X0.900000*%
G04 #@! TD*
G04 #@! TA.AperFunction,ViaPad*
%ADD33C,0.600000*%
G04 #@! TD*
G04 #@! TA.AperFunction,Conductor*
%ADD34C,0.250000*%
G04 #@! TD*
G04 #@! TA.AperFunction,Conductor*
%ADD35C,0.400000*%
G04 #@! TD*
G04 #@! TA.AperFunction,Conductor*
%ADD36C,0.254000*%
G04 #@! TD*
G04 #@! TA.AperFunction,Conductor*
%ADD37C,0.100000*%
G04 #@! TD*
G04 APERTURE END LIST*
G04 #@! TA.AperFunction,SMDPad,CuDef*
G36*
G01*
X125386250Y-75044000D02*
X124473750Y-75044000D01*
G75*
G02*
X124230000Y-74800250I0J243750D01*
G01*
X124230000Y-74312750D01*
G75*
G02*
X124473750Y-74069000I243750J0D01*
G01*
X125386250Y-74069000D01*
G75*
G02*
X125630000Y-74312750I0J-243750D01*
G01*
X125630000Y-74800250D01*
G75*
G02*
X125386250Y-75044000I-243750J0D01*
G01*
G37*
G04 #@! TD.AperFunction*
G04 #@! TA.AperFunction,SMDPad,CuDef*
G36*
G01*
X125386250Y-76919000D02*
X124473750Y-76919000D01*
G75*
G02*
X124230000Y-76675250I0J243750D01*
G01*
X124230000Y-76187750D01*
G75*
G02*
X124473750Y-75944000I243750J0D01*
G01*
X125386250Y-75944000D01*
G75*
G02*
X125630000Y-76187750I0J-243750D01*
G01*
X125630000Y-76675250D01*
G75*
G02*
X125386250Y-76919000I-243750J0D01*
G01*
G37*
G04 #@! TD.AperFunction*
G04 #@! TA.AperFunction,SMDPad,CuDef*
G36*
G01*
X120814250Y-75044000D02*
X119901750Y-75044000D01*
G75*
G02*
X119658000Y-74800250I0J243750D01*
G01*
X119658000Y-74312750D01*
G75*
G02*
X119901750Y-74069000I243750J0D01*
G01*
X120814250Y-74069000D01*
G75*
G02*
X121058000Y-74312750I0J-243750D01*
G01*
X121058000Y-74800250D01*
G75*
G02*
X120814250Y-75044000I-243750J0D01*
G01*
G37*
G04 #@! TD.AperFunction*
G04 #@! TA.AperFunction,SMDPad,CuDef*
G36*
G01*
X120814250Y-76919000D02*
X119901750Y-76919000D01*
G75*
G02*
X119658000Y-76675250I0J243750D01*
G01*
X119658000Y-76187750D01*
G75*
G02*
X119901750Y-75944000I243750J0D01*
G01*
X120814250Y-75944000D01*
G75*
G02*
X121058000Y-76187750I0J-243750D01*
G01*
X121058000Y-76675250D01*
G75*
G02*
X120814250Y-76919000I-243750J0D01*
G01*
G37*
G04 #@! TD.AperFunction*
G04 #@! TA.AperFunction,SMDPad,CuDef*
G36*
G01*
X61886250Y-111366000D02*
X60973750Y-111366000D01*
G75*
G02*
X60730000Y-111122250I0J243750D01*
G01*
X60730000Y-110634750D01*
G75*
G02*
X60973750Y-110391000I243750J0D01*
G01*
X61886250Y-110391000D01*
G75*
G02*
X62130000Y-110634750I0J-243750D01*
G01*
X62130000Y-111122250D01*
G75*
G02*
X61886250Y-111366000I-243750J0D01*
G01*
G37*
G04 #@! TD.AperFunction*
G04 #@! TA.AperFunction,SMDPad,CuDef*
G36*
G01*
X61886250Y-113241000D02*
X60973750Y-113241000D01*
G75*
G02*
X60730000Y-112997250I0J243750D01*
G01*
X60730000Y-112509750D01*
G75*
G02*
X60973750Y-112266000I243750J0D01*
G01*
X61886250Y-112266000D01*
G75*
G02*
X62130000Y-112509750I0J-243750D01*
G01*
X62130000Y-112997250D01*
G75*
G02*
X61886250Y-113241000I-243750J0D01*
G01*
G37*
G04 #@! TD.AperFunction*
G04 #@! TA.AperFunction,SMDPad,CuDef*
G36*
G01*
X57314250Y-111366000D02*
X56401750Y-111366000D01*
G75*
G02*
X56158000Y-111122250I0J243750D01*
G01*
X56158000Y-110634750D01*
G75*
G02*
X56401750Y-110391000I243750J0D01*
G01*
X57314250Y-110391000D01*
G75*
G02*
X57558000Y-110634750I0J-243750D01*
G01*
X57558000Y-111122250D01*
G75*
G02*
X57314250Y-111366000I-243750J0D01*
G01*
G37*
G04 #@! TD.AperFunction*
G04 #@! TA.AperFunction,SMDPad,CuDef*
G36*
G01*
X57314250Y-113241000D02*
X56401750Y-113241000D01*
G75*
G02*
X56158000Y-112997250I0J243750D01*
G01*
X56158000Y-112509750D01*
G75*
G02*
X56401750Y-112266000I243750J0D01*
G01*
X57314250Y-112266000D01*
G75*
G02*
X57558000Y-112509750I0J-243750D01*
G01*
X57558000Y-112997250D01*
G75*
G02*
X57314250Y-113241000I-243750J0D01*
G01*
G37*
G04 #@! TD.AperFunction*
G04 #@! TA.AperFunction,SMDPad,CuDef*
G36*
G01*
X138375000Y-84075000D02*
X137825000Y-84075000D01*
G75*
G02*
X137625000Y-83875000I0J200000D01*
G01*
X137625000Y-83475000D01*
G75*
G02*
X137825000Y-83275000I200000J0D01*
G01*
X138375000Y-83275000D01*
G75*
G02*
X138575000Y-83475000I0J-200000D01*
G01*
X138575000Y-83875000D01*
G75*
G02*
X138375000Y-84075000I-200000J0D01*
G01*
G37*
G04 #@! TD.AperFunction*
G04 #@! TA.AperFunction,SMDPad,CuDef*
G36*
G01*
X138375000Y-85725000D02*
X137825000Y-85725000D01*
G75*
G02*
X137625000Y-85525000I0J200000D01*
G01*
X137625000Y-85125000D01*
G75*
G02*
X137825000Y-84925000I200000J0D01*
G01*
X138375000Y-84925000D01*
G75*
G02*
X138575000Y-85125000I0J-200000D01*
G01*
X138575000Y-85525000D01*
G75*
G02*
X138375000Y-85725000I-200000J0D01*
G01*
G37*
G04 #@! TD.AperFunction*
G04 #@! TA.AperFunction,SMDPad,CuDef*
G36*
G01*
X138675000Y-87425000D02*
X138675000Y-87975000D01*
G75*
G02*
X138475000Y-88175000I-200000J0D01*
G01*
X138075000Y-88175000D01*
G75*
G02*
X137875000Y-87975000I0J200000D01*
G01*
X137875000Y-87425000D01*
G75*
G02*
X138075000Y-87225000I200000J0D01*
G01*
X138475000Y-87225000D01*
G75*
G02*
X138675000Y-87425000I0J-200000D01*
G01*
G37*
G04 #@! TD.AperFunction*
G04 #@! TA.AperFunction,SMDPad,CuDef*
G36*
G01*
X140325000Y-87425000D02*
X140325000Y-87975000D01*
G75*
G02*
X140125000Y-88175000I-200000J0D01*
G01*
X139725000Y-88175000D01*
G75*
G02*
X139525000Y-87975000I0J200000D01*
G01*
X139525000Y-87425000D01*
G75*
G02*
X139725000Y-87225000I200000J0D01*
G01*
X140125000Y-87225000D01*
G75*
G02*
X140325000Y-87425000I0J-200000D01*
G01*
G37*
G04 #@! TD.AperFunction*
D10*
X138100000Y-91560000D03*
D11*
X138100000Y-94100000D03*
D12*
X144200000Y-78550000D03*
X144200000Y-77900000D03*
X144200000Y-77250000D03*
X144200000Y-76600000D03*
X144200000Y-75950000D03*
D13*
X147050000Y-81000000D03*
X147050000Y-73500000D03*
D14*
X147050000Y-78400000D03*
X147050000Y-76100000D03*
D15*
X71800000Y-145050000D03*
X72875000Y-154075000D03*
X56725000Y-154075000D03*
X56725000Y-145075000D03*
D16*
X58105000Y-143075000D03*
X59205000Y-143075000D03*
X60305000Y-143075000D03*
X61405000Y-143075000D03*
X62505000Y-143075000D03*
X63605000Y-143075000D03*
X64705000Y-143075000D03*
X65805000Y-143075000D03*
X66905000Y-143075000D03*
D10*
X92164000Y-154234000D03*
X92164000Y-156774000D03*
X89624000Y-154234000D03*
X89624000Y-156774000D03*
X87084000Y-154234000D03*
X87084000Y-156774000D03*
X84544000Y-154234000D03*
X84544000Y-156774000D03*
X82004000Y-154234000D03*
X82004000Y-156774000D03*
X79464000Y-154234000D03*
D11*
X79464000Y-156774000D03*
D17*
X66775000Y-70935000D03*
X66775000Y-69665000D03*
X66775000Y-68395000D03*
X66775000Y-67125000D03*
X66775000Y-65855000D03*
X66775000Y-64585000D03*
X66775000Y-63315000D03*
X72175000Y-63315000D03*
X72175000Y-64585000D03*
X72175000Y-65855000D03*
X72175000Y-67125000D03*
X72175000Y-68395000D03*
X72175000Y-69665000D03*
X72175000Y-70935000D03*
D10*
X94185000Y-82690000D03*
X94185000Y-80150000D03*
X96725000Y-82690000D03*
X96725000Y-80150000D03*
X99265000Y-82690000D03*
X99265000Y-80150000D03*
X101805000Y-82690000D03*
X101805000Y-80150000D03*
X104345000Y-82690000D03*
X104345000Y-80150000D03*
X106885000Y-82690000D03*
X106885000Y-80150000D03*
X109425000Y-82690000D03*
D11*
X109425000Y-80150000D03*
D18*
X91075000Y-104300000D03*
X91075000Y-103100000D03*
D19*
X106150000Y-121575000D03*
X106150000Y-119375000D03*
X108050000Y-119375000D03*
X108050000Y-121575000D03*
D20*
X74310000Y-87270000D03*
X80810000Y-87270000D03*
X74310000Y-91770000D03*
X80810000Y-91770000D03*
X54025000Y-87270000D03*
X60525000Y-87270000D03*
X54025000Y-91770000D03*
X60525000Y-91770000D03*
D21*
X127675000Y-66970000D03*
X122425000Y-66970000D03*
X127675000Y-63770000D03*
X122425000Y-63770000D03*
G04 #@! TA.AperFunction,SMDPad,CuDef*
G36*
G01*
X77685000Y-66525000D02*
X77135000Y-66525000D01*
G75*
G02*
X76935000Y-66325000I0J200000D01*
G01*
X76935000Y-65925000D01*
G75*
G02*
X77135000Y-65725000I200000J0D01*
G01*
X77685000Y-65725000D01*
G75*
G02*
X77885000Y-65925000I0J-200000D01*
G01*
X77885000Y-66325000D01*
G75*
G02*
X77685000Y-66525000I-200000J0D01*
G01*
G37*
G04 #@! TD.AperFunction*
G04 #@! TA.AperFunction,SMDPad,CuDef*
G36*
G01*
X77685000Y-68175000D02*
X77135000Y-68175000D01*
G75*
G02*
X76935000Y-67975000I0J200000D01*
G01*
X76935000Y-67575000D01*
G75*
G02*
X77135000Y-67375000I200000J0D01*
G01*
X77685000Y-67375000D01*
G75*
G02*
X77885000Y-67575000I0J-200000D01*
G01*
X77885000Y-67975000D01*
G75*
G02*
X77685000Y-68175000I-200000J0D01*
G01*
G37*
G04 #@! TD.AperFunction*
G04 #@! TA.AperFunction,SMDPad,CuDef*
G36*
G01*
X77135000Y-71145000D02*
X77685000Y-71145000D01*
G75*
G02*
X77885000Y-71345000I0J-200000D01*
G01*
X77885000Y-71745000D01*
G75*
G02*
X77685000Y-71945000I-200000J0D01*
G01*
X77135000Y-71945000D01*
G75*
G02*
X76935000Y-71745000I0J200000D01*
G01*
X76935000Y-71345000D01*
G75*
G02*
X77135000Y-71145000I200000J0D01*
G01*
G37*
G04 #@! TD.AperFunction*
G04 #@! TA.AperFunction,SMDPad,CuDef*
G36*
G01*
X77135000Y-69495000D02*
X77685000Y-69495000D01*
G75*
G02*
X77885000Y-69695000I0J-200000D01*
G01*
X77885000Y-70095000D01*
G75*
G02*
X77685000Y-70295000I-200000J0D01*
G01*
X77135000Y-70295000D01*
G75*
G02*
X76935000Y-70095000I0J200000D01*
G01*
X76935000Y-69695000D01*
G75*
G02*
X77135000Y-69495000I200000J0D01*
G01*
G37*
G04 #@! TD.AperFunction*
G04 #@! TA.AperFunction,SMDPad,CuDef*
G36*
G01*
X78305000Y-63265000D02*
X78305000Y-63815000D01*
G75*
G02*
X78105000Y-64015000I-200000J0D01*
G01*
X77705000Y-64015000D01*
G75*
G02*
X77505000Y-63815000I0J200000D01*
G01*
X77505000Y-63265000D01*
G75*
G02*
X77705000Y-63065000I200000J0D01*
G01*
X78105000Y-63065000D01*
G75*
G02*
X78305000Y-63265000I0J-200000D01*
G01*
G37*
G04 #@! TD.AperFunction*
G04 #@! TA.AperFunction,SMDPad,CuDef*
G36*
G01*
X79955000Y-63265000D02*
X79955000Y-63815000D01*
G75*
G02*
X79755000Y-64015000I-200000J0D01*
G01*
X79355000Y-64015000D01*
G75*
G02*
X79155000Y-63815000I0J200000D01*
G01*
X79155000Y-63265000D01*
G75*
G02*
X79355000Y-63065000I200000J0D01*
G01*
X79755000Y-63065000D01*
G75*
G02*
X79955000Y-63265000I0J-200000D01*
G01*
G37*
G04 #@! TD.AperFunction*
G04 #@! TA.AperFunction,SMDPad,CuDef*
G36*
G01*
X105335000Y-69525000D02*
X104785000Y-69525000D01*
G75*
G02*
X104585000Y-69325000I0J200000D01*
G01*
X104585000Y-68925000D01*
G75*
G02*
X104785000Y-68725000I200000J0D01*
G01*
X105335000Y-68725000D01*
G75*
G02*
X105535000Y-68925000I0J-200000D01*
G01*
X105535000Y-69325000D01*
G75*
G02*
X105335000Y-69525000I-200000J0D01*
G01*
G37*
G04 #@! TD.AperFunction*
G04 #@! TA.AperFunction,SMDPad,CuDef*
G36*
G01*
X105335000Y-71175000D02*
X104785000Y-71175000D01*
G75*
G02*
X104585000Y-70975000I0J200000D01*
G01*
X104585000Y-70575000D01*
G75*
G02*
X104785000Y-70375000I200000J0D01*
G01*
X105335000Y-70375000D01*
G75*
G02*
X105535000Y-70575000I0J-200000D01*
G01*
X105535000Y-70975000D01*
G75*
G02*
X105335000Y-71175000I-200000J0D01*
G01*
G37*
G04 #@! TD.AperFunction*
G04 #@! TA.AperFunction,SMDPad,CuDef*
G36*
G01*
X94121000Y-150241000D02*
X94671000Y-150241000D01*
G75*
G02*
X94871000Y-150441000I0J-200000D01*
G01*
X94871000Y-150841000D01*
G75*
G02*
X94671000Y-151041000I-200000J0D01*
G01*
X94121000Y-151041000D01*
G75*
G02*
X93921000Y-150841000I0J200000D01*
G01*
X93921000Y-150441000D01*
G75*
G02*
X94121000Y-150241000I200000J0D01*
G01*
G37*
G04 #@! TD.AperFunction*
G04 #@! TA.AperFunction,SMDPad,CuDef*
G36*
G01*
X94121000Y-148591000D02*
X94671000Y-148591000D01*
G75*
G02*
X94871000Y-148791000I0J-200000D01*
G01*
X94871000Y-149191000D01*
G75*
G02*
X94671000Y-149391000I-200000J0D01*
G01*
X94121000Y-149391000D01*
G75*
G02*
X93921000Y-149191000I0J200000D01*
G01*
X93921000Y-148791000D01*
G75*
G02*
X94121000Y-148591000I200000J0D01*
G01*
G37*
G04 #@! TD.AperFunction*
G04 #@! TA.AperFunction,SMDPad,CuDef*
G36*
G01*
X84223400Y-150241000D02*
X84773400Y-150241000D01*
G75*
G02*
X84973400Y-150441000I0J-200000D01*
G01*
X84973400Y-150841000D01*
G75*
G02*
X84773400Y-151041000I-200000J0D01*
G01*
X84223400Y-151041000D01*
G75*
G02*
X84023400Y-150841000I0J200000D01*
G01*
X84023400Y-150441000D01*
G75*
G02*
X84223400Y-150241000I200000J0D01*
G01*
G37*
G04 #@! TD.AperFunction*
G04 #@! TA.AperFunction,SMDPad,CuDef*
G36*
G01*
X84223400Y-148591000D02*
X84773400Y-148591000D01*
G75*
G02*
X84973400Y-148791000I0J-200000D01*
G01*
X84973400Y-149191000D01*
G75*
G02*
X84773400Y-149391000I-200000J0D01*
G01*
X84223400Y-149391000D01*
G75*
G02*
X84023400Y-149191000I0J200000D01*
G01*
X84023400Y-148791000D01*
G75*
G02*
X84223400Y-148591000I200000J0D01*
G01*
G37*
G04 #@! TD.AperFunction*
G04 #@! TA.AperFunction,SMDPad,CuDef*
G36*
G01*
X128725000Y-129572501D02*
X128725000Y-129022501D01*
G75*
G02*
X128925000Y-128822501I200000J0D01*
G01*
X129325000Y-128822501D01*
G75*
G02*
X129525000Y-129022501I0J-200000D01*
G01*
X129525000Y-129572501D01*
G75*
G02*
X129325000Y-129772501I-200000J0D01*
G01*
X128925000Y-129772501D01*
G75*
G02*
X128725000Y-129572501I0J200000D01*
G01*
G37*
G04 #@! TD.AperFunction*
G04 #@! TA.AperFunction,SMDPad,CuDef*
G36*
G01*
X127075000Y-129572501D02*
X127075000Y-129022501D01*
G75*
G02*
X127275000Y-128822501I200000J0D01*
G01*
X127675000Y-128822501D01*
G75*
G02*
X127875000Y-129022501I0J-200000D01*
G01*
X127875000Y-129572501D01*
G75*
G02*
X127675000Y-129772501I-200000J0D01*
G01*
X127275000Y-129772501D01*
G75*
G02*
X127075000Y-129572501I0J200000D01*
G01*
G37*
G04 #@! TD.AperFunction*
G04 #@! TA.AperFunction,SMDPad,CuDef*
G36*
G01*
X80924200Y-150241000D02*
X81474200Y-150241000D01*
G75*
G02*
X81674200Y-150441000I0J-200000D01*
G01*
X81674200Y-150841000D01*
G75*
G02*
X81474200Y-151041000I-200000J0D01*
G01*
X80924200Y-151041000D01*
G75*
G02*
X80724200Y-150841000I0J200000D01*
G01*
X80724200Y-150441000D01*
G75*
G02*
X80924200Y-150241000I200000J0D01*
G01*
G37*
G04 #@! TD.AperFunction*
G04 #@! TA.AperFunction,SMDPad,CuDef*
G36*
G01*
X80924200Y-148591000D02*
X81474200Y-148591000D01*
G75*
G02*
X81674200Y-148791000I0J-200000D01*
G01*
X81674200Y-149191000D01*
G75*
G02*
X81474200Y-149391000I-200000J0D01*
G01*
X80924200Y-149391000D01*
G75*
G02*
X80724200Y-149191000I0J200000D01*
G01*
X80724200Y-148791000D01*
G75*
G02*
X80924200Y-148591000I200000J0D01*
G01*
G37*
G04 #@! TD.AperFunction*
G04 #@! TA.AperFunction,SMDPad,CuDef*
G36*
G01*
X90821800Y-150241000D02*
X91371800Y-150241000D01*
G75*
G02*
X91571800Y-150441000I0J-200000D01*
G01*
X91571800Y-150841000D01*
G75*
G02*
X91371800Y-151041000I-200000J0D01*
G01*
X90821800Y-151041000D01*
G75*
G02*
X90621800Y-150841000I0J200000D01*
G01*
X90621800Y-150441000D01*
G75*
G02*
X90821800Y-150241000I200000J0D01*
G01*
G37*
G04 #@! TD.AperFunction*
G04 #@! TA.AperFunction,SMDPad,CuDef*
G36*
G01*
X90821800Y-148591000D02*
X91371800Y-148591000D01*
G75*
G02*
X91571800Y-148791000I0J-200000D01*
G01*
X91571800Y-149191000D01*
G75*
G02*
X91371800Y-149391000I-200000J0D01*
G01*
X90821800Y-149391000D01*
G75*
G02*
X90621800Y-149191000I0J200000D01*
G01*
X90621800Y-148791000D01*
G75*
G02*
X90821800Y-148591000I200000J0D01*
G01*
G37*
G04 #@! TD.AperFunction*
G04 #@! TA.AperFunction,SMDPad,CuDef*
G36*
G01*
X132275000Y-129022501D02*
X132275000Y-129572501D01*
G75*
G02*
X132075000Y-129772501I-200000J0D01*
G01*
X131675000Y-129772501D01*
G75*
G02*
X131475000Y-129572501I0J200000D01*
G01*
X131475000Y-129022501D01*
G75*
G02*
X131675000Y-128822501I200000J0D01*
G01*
X132075000Y-128822501D01*
G75*
G02*
X132275000Y-129022501I0J-200000D01*
G01*
G37*
G04 #@! TD.AperFunction*
G04 #@! TA.AperFunction,SMDPad,CuDef*
G36*
G01*
X133925000Y-129022501D02*
X133925000Y-129572501D01*
G75*
G02*
X133725000Y-129772501I-200000J0D01*
G01*
X133325000Y-129772501D01*
G75*
G02*
X133125000Y-129572501I0J200000D01*
G01*
X133125000Y-129022501D01*
G75*
G02*
X133325000Y-128822501I200000J0D01*
G01*
X133725000Y-128822501D01*
G75*
G02*
X133925000Y-129022501I0J-200000D01*
G01*
G37*
G04 #@! TD.AperFunction*
G04 #@! TA.AperFunction,SMDPad,CuDef*
G36*
G01*
X87522600Y-150241000D02*
X88072600Y-150241000D01*
G75*
G02*
X88272600Y-150441000I0J-200000D01*
G01*
X88272600Y-150841000D01*
G75*
G02*
X88072600Y-151041000I-200000J0D01*
G01*
X87522600Y-151041000D01*
G75*
G02*
X87322600Y-150841000I0J200000D01*
G01*
X87322600Y-150441000D01*
G75*
G02*
X87522600Y-150241000I200000J0D01*
G01*
G37*
G04 #@! TD.AperFunction*
G04 #@! TA.AperFunction,SMDPad,CuDef*
G36*
G01*
X87522600Y-148591000D02*
X88072600Y-148591000D01*
G75*
G02*
X88272600Y-148791000I0J-200000D01*
G01*
X88272600Y-149191000D01*
G75*
G02*
X88072600Y-149391000I-200000J0D01*
G01*
X87522600Y-149391000D01*
G75*
G02*
X87322600Y-149191000I0J200000D01*
G01*
X87322600Y-148791000D01*
G75*
G02*
X87522600Y-148591000I200000J0D01*
G01*
G37*
G04 #@! TD.AperFunction*
G04 #@! TA.AperFunction,SMDPad,CuDef*
G36*
G01*
X77625000Y-150241000D02*
X78175000Y-150241000D01*
G75*
G02*
X78375000Y-150441000I0J-200000D01*
G01*
X78375000Y-150841000D01*
G75*
G02*
X78175000Y-151041000I-200000J0D01*
G01*
X77625000Y-151041000D01*
G75*
G02*
X77425000Y-150841000I0J200000D01*
G01*
X77425000Y-150441000D01*
G75*
G02*
X77625000Y-150241000I200000J0D01*
G01*
G37*
G04 #@! TD.AperFunction*
G04 #@! TA.AperFunction,SMDPad,CuDef*
G36*
G01*
X77625000Y-148591000D02*
X78175000Y-148591000D01*
G75*
G02*
X78375000Y-148791000I0J-200000D01*
G01*
X78375000Y-149191000D01*
G75*
G02*
X78175000Y-149391000I-200000J0D01*
G01*
X77625000Y-149391000D01*
G75*
G02*
X77425000Y-149191000I0J200000D01*
G01*
X77425000Y-148791000D01*
G75*
G02*
X77625000Y-148591000I200000J0D01*
G01*
G37*
G04 #@! TD.AperFunction*
G04 #@! TA.AperFunction,SMDPad,CuDef*
G36*
G01*
X124655000Y-79983000D02*
X125205000Y-79983000D01*
G75*
G02*
X125405000Y-80183000I0J-200000D01*
G01*
X125405000Y-80583000D01*
G75*
G02*
X125205000Y-80783000I-200000J0D01*
G01*
X124655000Y-80783000D01*
G75*
G02*
X124455000Y-80583000I0J200000D01*
G01*
X124455000Y-80183000D01*
G75*
G02*
X124655000Y-79983000I200000J0D01*
G01*
G37*
G04 #@! TD.AperFunction*
G04 #@! TA.AperFunction,SMDPad,CuDef*
G36*
G01*
X124655000Y-78333000D02*
X125205000Y-78333000D01*
G75*
G02*
X125405000Y-78533000I0J-200000D01*
G01*
X125405000Y-78933000D01*
G75*
G02*
X125205000Y-79133000I-200000J0D01*
G01*
X124655000Y-79133000D01*
G75*
G02*
X124455000Y-78933000I0J200000D01*
G01*
X124455000Y-78533000D01*
G75*
G02*
X124655000Y-78333000I200000J0D01*
G01*
G37*
G04 #@! TD.AperFunction*
G04 #@! TA.AperFunction,SMDPad,CuDef*
G36*
G01*
X120083000Y-79983000D02*
X120633000Y-79983000D01*
G75*
G02*
X120833000Y-80183000I0J-200000D01*
G01*
X120833000Y-80583000D01*
G75*
G02*
X120633000Y-80783000I-200000J0D01*
G01*
X120083000Y-80783000D01*
G75*
G02*
X119883000Y-80583000I0J200000D01*
G01*
X119883000Y-80183000D01*
G75*
G02*
X120083000Y-79983000I200000J0D01*
G01*
G37*
G04 #@! TD.AperFunction*
G04 #@! TA.AperFunction,SMDPad,CuDef*
G36*
G01*
X120083000Y-78333000D02*
X120633000Y-78333000D01*
G75*
G02*
X120833000Y-78533000I0J-200000D01*
G01*
X120833000Y-78933000D01*
G75*
G02*
X120633000Y-79133000I-200000J0D01*
G01*
X120083000Y-79133000D01*
G75*
G02*
X119883000Y-78933000I0J200000D01*
G01*
X119883000Y-78533000D01*
G75*
G02*
X120083000Y-78333000I200000J0D01*
G01*
G37*
G04 #@! TD.AperFunction*
G04 #@! TA.AperFunction,SMDPad,CuDef*
G36*
G01*
X61155000Y-115797000D02*
X61705000Y-115797000D01*
G75*
G02*
X61905000Y-115997000I0J-200000D01*
G01*
X61905000Y-116397000D01*
G75*
G02*
X61705000Y-116597000I-200000J0D01*
G01*
X61155000Y-116597000D01*
G75*
G02*
X60955000Y-116397000I0J200000D01*
G01*
X60955000Y-115997000D01*
G75*
G02*
X61155000Y-115797000I200000J0D01*
G01*
G37*
G04 #@! TD.AperFunction*
G04 #@! TA.AperFunction,SMDPad,CuDef*
G36*
G01*
X61155000Y-114147000D02*
X61705000Y-114147000D01*
G75*
G02*
X61905000Y-114347000I0J-200000D01*
G01*
X61905000Y-114747000D01*
G75*
G02*
X61705000Y-114947000I-200000J0D01*
G01*
X61155000Y-114947000D01*
G75*
G02*
X60955000Y-114747000I0J200000D01*
G01*
X60955000Y-114347000D01*
G75*
G02*
X61155000Y-114147000I200000J0D01*
G01*
G37*
G04 #@! TD.AperFunction*
G04 #@! TA.AperFunction,SMDPad,CuDef*
G36*
G01*
X56583000Y-115797000D02*
X57133000Y-115797000D01*
G75*
G02*
X57333000Y-115997000I0J-200000D01*
G01*
X57333000Y-116397000D01*
G75*
G02*
X57133000Y-116597000I-200000J0D01*
G01*
X56583000Y-116597000D01*
G75*
G02*
X56383000Y-116397000I0J200000D01*
G01*
X56383000Y-115997000D01*
G75*
G02*
X56583000Y-115797000I200000J0D01*
G01*
G37*
G04 #@! TD.AperFunction*
G04 #@! TA.AperFunction,SMDPad,CuDef*
G36*
G01*
X56583000Y-114147000D02*
X57133000Y-114147000D01*
G75*
G02*
X57333000Y-114347000I0J-200000D01*
G01*
X57333000Y-114747000D01*
G75*
G02*
X57133000Y-114947000I-200000J0D01*
G01*
X56583000Y-114947000D01*
G75*
G02*
X56383000Y-114747000I0J200000D01*
G01*
X56383000Y-114347000D01*
G75*
G02*
X56583000Y-114147000I200000J0D01*
G01*
G37*
G04 #@! TD.AperFunction*
G04 #@! TA.AperFunction,SMDPad,CuDef*
G36*
G01*
X132745000Y-156085000D02*
X132745000Y-155535000D01*
G75*
G02*
X132945000Y-155335000I200000J0D01*
G01*
X133345000Y-155335000D01*
G75*
G02*
X133545000Y-155535000I0J-200000D01*
G01*
X133545000Y-156085000D01*
G75*
G02*
X133345000Y-156285000I-200000J0D01*
G01*
X132945000Y-156285000D01*
G75*
G02*
X132745000Y-156085000I0J200000D01*
G01*
G37*
G04 #@! TD.AperFunction*
G04 #@! TA.AperFunction,SMDPad,CuDef*
G36*
G01*
X131095000Y-156085000D02*
X131095000Y-155535000D01*
G75*
G02*
X131295000Y-155335000I200000J0D01*
G01*
X131695000Y-155335000D01*
G75*
G02*
X131895000Y-155535000I0J-200000D01*
G01*
X131895000Y-156085000D01*
G75*
G02*
X131695000Y-156285000I-200000J0D01*
G01*
X131295000Y-156285000D01*
G75*
G02*
X131095000Y-156085000I0J200000D01*
G01*
G37*
G04 #@! TD.AperFunction*
G04 #@! TA.AperFunction,SMDPad,CuDef*
G36*
G01*
X131645000Y-63375000D02*
X131645000Y-63925000D01*
G75*
G02*
X131445000Y-64125000I-200000J0D01*
G01*
X131045000Y-64125000D01*
G75*
G02*
X130845000Y-63925000I0J200000D01*
G01*
X130845000Y-63375000D01*
G75*
G02*
X131045000Y-63175000I200000J0D01*
G01*
X131445000Y-63175000D01*
G75*
G02*
X131645000Y-63375000I0J-200000D01*
G01*
G37*
G04 #@! TD.AperFunction*
G04 #@! TA.AperFunction,SMDPad,CuDef*
G36*
G01*
X133295000Y-63375000D02*
X133295000Y-63925000D01*
G75*
G02*
X133095000Y-64125000I-200000J0D01*
G01*
X132695000Y-64125000D01*
G75*
G02*
X132495000Y-63925000I0J200000D01*
G01*
X132495000Y-63375000D01*
G75*
G02*
X132695000Y-63175000I200000J0D01*
G01*
X133095000Y-63175000D01*
G75*
G02*
X133295000Y-63375000I0J-200000D01*
G01*
G37*
G04 #@! TD.AperFunction*
G04 #@! TA.AperFunction,SMDPad,CuDef*
G36*
G01*
X101373750Y-100660000D02*
X101886250Y-100660000D01*
G75*
G02*
X102105000Y-100878750I0J-218750D01*
G01*
X102105000Y-101316250D01*
G75*
G02*
X101886250Y-101535000I-218750J0D01*
G01*
X101373750Y-101535000D01*
G75*
G02*
X101155000Y-101316250I0J218750D01*
G01*
X101155000Y-100878750D01*
G75*
G02*
X101373750Y-100660000I218750J0D01*
G01*
G37*
G04 #@! TD.AperFunction*
G04 #@! TA.AperFunction,SMDPad,CuDef*
G36*
G01*
X101373750Y-99085000D02*
X101886250Y-99085000D01*
G75*
G02*
X102105000Y-99303750I0J-218750D01*
G01*
X102105000Y-99741250D01*
G75*
G02*
X101886250Y-99960000I-218750J0D01*
G01*
X101373750Y-99960000D01*
G75*
G02*
X101155000Y-99741250I0J218750D01*
G01*
X101155000Y-99303750D01*
G75*
G02*
X101373750Y-99085000I218750J0D01*
G01*
G37*
G04 #@! TD.AperFunction*
G04 #@! TA.AperFunction,SMDPad,CuDef*
G36*
G01*
X87900000Y-109218750D02*
X87900000Y-109731250D01*
G75*
G02*
X87681250Y-109950000I-218750J0D01*
G01*
X87243750Y-109950000D01*
G75*
G02*
X87025000Y-109731250I0J218750D01*
G01*
X87025000Y-109218750D01*
G75*
G02*
X87243750Y-109000000I218750J0D01*
G01*
X87681250Y-109000000D01*
G75*
G02*
X87900000Y-109218750I0J-218750D01*
G01*
G37*
G04 #@! TD.AperFunction*
G04 #@! TA.AperFunction,SMDPad,CuDef*
G36*
G01*
X89475000Y-109218750D02*
X89475000Y-109731250D01*
G75*
G02*
X89256250Y-109950000I-218750J0D01*
G01*
X88818750Y-109950000D01*
G75*
G02*
X88600000Y-109731250I0J218750D01*
G01*
X88600000Y-109218750D01*
G75*
G02*
X88818750Y-109000000I218750J0D01*
G01*
X89256250Y-109000000D01*
G75*
G02*
X89475000Y-109218750I0J-218750D01*
G01*
G37*
G04 #@! TD.AperFunction*
D10*
X129460000Y-104300000D03*
X132000000Y-104300000D03*
X129460000Y-106840000D03*
X132000000Y-106840000D03*
X129460000Y-109380000D03*
X132000000Y-109380000D03*
X129460000Y-111920000D03*
X132000000Y-111920000D03*
X129460000Y-114460000D03*
X132000000Y-114460000D03*
X129460000Y-117000000D03*
D11*
X132000000Y-117000000D03*
D10*
X107080000Y-135460000D03*
X107080000Y-138000000D03*
X104540000Y-135460000D03*
X104540000Y-138000000D03*
X102000000Y-135460000D03*
X102000000Y-138000000D03*
X99460000Y-135460000D03*
X99460000Y-138000000D03*
X96920000Y-135460000D03*
X96920000Y-138000000D03*
X94380000Y-135460000D03*
X94380000Y-138000000D03*
X91840000Y-135460000D03*
X91840000Y-138000000D03*
X89300000Y-135460000D03*
D11*
X89300000Y-138000000D03*
D10*
X111780000Y-65000000D03*
X109240000Y-65000000D03*
X106700000Y-65000000D03*
X104160000Y-65000000D03*
X101620000Y-65000000D03*
X99080000Y-65000000D03*
X96540000Y-65000000D03*
D11*
X94000000Y-65000000D03*
D10*
X98890000Y-70310000D03*
D11*
X101430000Y-70310000D03*
D10*
X73540000Y-118240000D03*
X71000000Y-118240000D03*
X73540000Y-115700000D03*
X71000000Y-115700000D03*
X73540000Y-113160000D03*
X71000000Y-113160000D03*
X73540000Y-110620000D03*
X71000000Y-110620000D03*
X73540000Y-108080000D03*
X71000000Y-108080000D03*
X73540000Y-105540000D03*
X71000000Y-105540000D03*
X73540000Y-103000000D03*
D11*
X71000000Y-103000000D03*
D10*
X131700000Y-132740000D03*
X131700000Y-135280000D03*
X129160000Y-132740000D03*
D11*
X129160000Y-135280000D03*
D10*
X132000000Y-125770000D03*
X129460000Y-125770000D03*
X132000000Y-123230000D03*
D11*
X129460000Y-123230000D03*
D10*
X123914000Y-84384000D03*
D11*
X121374000Y-84384000D03*
D22*
X57950000Y-71050000D03*
X57950000Y-70250000D03*
X57950000Y-69450000D03*
X57950000Y-68650000D03*
X57950000Y-67850000D03*
D23*
X57950000Y-73850000D03*
X57950000Y-65050000D03*
X52450000Y-73850000D03*
X52450000Y-65050000D03*
D10*
X60668000Y-120452000D03*
D11*
X58128000Y-120452000D03*
D10*
X130800000Y-151610000D03*
X128260000Y-151610000D03*
X130800000Y-149070000D03*
X128260000Y-149070000D03*
X130800000Y-146530000D03*
D11*
X128260000Y-146530000D03*
D24*
X142425000Y-145300000D03*
D25*
X142425000Y-151100000D03*
D26*
X147225000Y-148300000D03*
D27*
X147300000Y-138925000D03*
D28*
X141100000Y-141225000D03*
X141100000Y-138925000D03*
X141100000Y-136625000D03*
D29*
X96250000Y-104262000D03*
X96750000Y-104262000D03*
X97250000Y-104262000D03*
X97750000Y-104262000D03*
X98250000Y-104262000D03*
X98750000Y-104262000D03*
X99250000Y-104262000D03*
X99750000Y-104262000D03*
X100250000Y-104262000D03*
X100750000Y-104262000D03*
X101250000Y-104262000D03*
X101750000Y-104262000D03*
X102250000Y-104262000D03*
X102750000Y-104262000D03*
X103250000Y-104262000D03*
X103750000Y-104262000D03*
D30*
X105738000Y-106250000D03*
X105738000Y-106750000D03*
X105738000Y-107250000D03*
X105738000Y-107750000D03*
X105738000Y-108250000D03*
X105738000Y-108750000D03*
X105738000Y-109250000D03*
X105738000Y-109750000D03*
X105738000Y-110250000D03*
X105738000Y-110750000D03*
X105738000Y-111250000D03*
X105738000Y-111750000D03*
X105738000Y-112250000D03*
X105738000Y-112750000D03*
X105738000Y-113250000D03*
X105738000Y-113750000D03*
D29*
X103750000Y-115738000D03*
X103250000Y-115738000D03*
X102750000Y-115738000D03*
X102250000Y-115738000D03*
X101750000Y-115738000D03*
X101250000Y-115738000D03*
X100750000Y-115738000D03*
X100250000Y-115738000D03*
X99750000Y-115738000D03*
X99250000Y-115738000D03*
X98750000Y-115738000D03*
X98250000Y-115738000D03*
X97750000Y-115738000D03*
X97250000Y-115738000D03*
X96750000Y-115738000D03*
X96250000Y-115738000D03*
D30*
X94262000Y-113750000D03*
X94262000Y-113250000D03*
X94262000Y-112750000D03*
X94262000Y-112250000D03*
X94262000Y-111750000D03*
X94262000Y-111250000D03*
X94262000Y-110750000D03*
X94262000Y-110250000D03*
X94262000Y-109750000D03*
X94262000Y-109250000D03*
X94262000Y-108750000D03*
X94262000Y-108250000D03*
X94262000Y-107750000D03*
X94262000Y-107250000D03*
X94262000Y-106750000D03*
X94262000Y-106250000D03*
G04 #@! TA.AperFunction,SMDPad,CuDef*
G36*
G01*
X80243750Y-67340000D02*
X80756250Y-67340000D01*
G75*
G02*
X80975000Y-67558750I0J-218750D01*
G01*
X80975000Y-67996250D01*
G75*
G02*
X80756250Y-68215000I-218750J0D01*
G01*
X80243750Y-68215000D01*
G75*
G02*
X80025000Y-67996250I0J218750D01*
G01*
X80025000Y-67558750D01*
G75*
G02*
X80243750Y-67340000I218750J0D01*
G01*
G37*
G04 #@! TD.AperFunction*
G04 #@! TA.AperFunction,SMDPad,CuDef*
G36*
G01*
X80243750Y-65765000D02*
X80756250Y-65765000D01*
G75*
G02*
X80975000Y-65983750I0J-218750D01*
G01*
X80975000Y-66421250D01*
G75*
G02*
X80756250Y-66640000I-218750J0D01*
G01*
X80243750Y-66640000D01*
G75*
G02*
X80025000Y-66421250I0J218750D01*
G01*
X80025000Y-65983750D01*
G75*
G02*
X80243750Y-65765000I218750J0D01*
G01*
G37*
G04 #@! TD.AperFunction*
G04 #@! TA.AperFunction,SMDPad,CuDef*
G36*
G01*
X80756250Y-70370000D02*
X80243750Y-70370000D01*
G75*
G02*
X80025000Y-70151250I0J218750D01*
G01*
X80025000Y-69713750D01*
G75*
G02*
X80243750Y-69495000I218750J0D01*
G01*
X80756250Y-69495000D01*
G75*
G02*
X80975000Y-69713750I0J-218750D01*
G01*
X80975000Y-70151250D01*
G75*
G02*
X80756250Y-70370000I-218750J0D01*
G01*
G37*
G04 #@! TD.AperFunction*
G04 #@! TA.AperFunction,SMDPad,CuDef*
G36*
G01*
X80756250Y-71945000D02*
X80243750Y-71945000D01*
G75*
G02*
X80025000Y-71726250I0J218750D01*
G01*
X80025000Y-71288750D01*
G75*
G02*
X80243750Y-71070000I218750J0D01*
G01*
X80756250Y-71070000D01*
G75*
G02*
X80975000Y-71288750I0J-218750D01*
G01*
X80975000Y-71726250D01*
G75*
G02*
X80756250Y-71945000I-218750J0D01*
G01*
G37*
G04 #@! TD.AperFunction*
D31*
X55970000Y-79050000D03*
X59270000Y-79050000D03*
D32*
X143760000Y-84170000D03*
X143760000Y-87470000D03*
G04 #@! TA.AperFunction,SMDPad,CuDef*
G36*
G01*
X127550000Y-155543750D02*
X127550000Y-156056250D01*
G75*
G02*
X127331250Y-156275000I-218750J0D01*
G01*
X126893750Y-156275000D01*
G75*
G02*
X126675000Y-156056250I0J218750D01*
G01*
X126675000Y-155543750D01*
G75*
G02*
X126893750Y-155325000I218750J0D01*
G01*
X127331250Y-155325000D01*
G75*
G02*
X127550000Y-155543750I0J-218750D01*
G01*
G37*
G04 #@! TD.AperFunction*
G04 #@! TA.AperFunction,SMDPad,CuDef*
G36*
G01*
X129125000Y-155543750D02*
X129125000Y-156056250D01*
G75*
G02*
X128906250Y-156275000I-218750J0D01*
G01*
X128468750Y-156275000D01*
G75*
G02*
X128250000Y-156056250I0J218750D01*
G01*
X128250000Y-155543750D01*
G75*
G02*
X128468750Y-155325000I218750J0D01*
G01*
X128906250Y-155325000D01*
G75*
G02*
X129125000Y-155543750I0J-218750D01*
G01*
G37*
G04 #@! TD.AperFunction*
G04 #@! TA.AperFunction,SMDPad,CuDef*
G36*
G01*
X64330000Y-65475000D02*
X63830000Y-65475000D01*
G75*
G02*
X63605000Y-65250000I0J225000D01*
G01*
X63605000Y-64800000D01*
G75*
G02*
X63830000Y-64575000I225000J0D01*
G01*
X64330000Y-64575000D01*
G75*
G02*
X64555000Y-64800000I0J-225000D01*
G01*
X64555000Y-65250000D01*
G75*
G02*
X64330000Y-65475000I-225000J0D01*
G01*
G37*
G04 #@! TD.AperFunction*
G04 #@! TA.AperFunction,SMDPad,CuDef*
G36*
G01*
X64330000Y-67025000D02*
X63830000Y-67025000D01*
G75*
G02*
X63605000Y-66800000I0J225000D01*
G01*
X63605000Y-66350000D01*
G75*
G02*
X63830000Y-66125000I225000J0D01*
G01*
X64330000Y-66125000D01*
G75*
G02*
X64555000Y-66350000I0J-225000D01*
G01*
X64555000Y-66800000D01*
G75*
G02*
X64330000Y-67025000I-225000J0D01*
G01*
G37*
G04 #@! TD.AperFunction*
G04 #@! TA.AperFunction,SMDPad,CuDef*
G36*
G01*
X74810000Y-72765000D02*
X74310000Y-72765000D01*
G75*
G02*
X74085000Y-72540000I0J225000D01*
G01*
X74085000Y-72090000D01*
G75*
G02*
X74310000Y-71865000I225000J0D01*
G01*
X74810000Y-71865000D01*
G75*
G02*
X75035000Y-72090000I0J-225000D01*
G01*
X75035000Y-72540000D01*
G75*
G02*
X74810000Y-72765000I-225000J0D01*
G01*
G37*
G04 #@! TD.AperFunction*
G04 #@! TA.AperFunction,SMDPad,CuDef*
G36*
G01*
X74810000Y-74315000D02*
X74310000Y-74315000D01*
G75*
G02*
X74085000Y-74090000I0J225000D01*
G01*
X74085000Y-73640000D01*
G75*
G02*
X74310000Y-73415000I225000J0D01*
G01*
X74810000Y-73415000D01*
G75*
G02*
X75035000Y-73640000I0J-225000D01*
G01*
X75035000Y-74090000D01*
G75*
G02*
X74810000Y-74315000I-225000J0D01*
G01*
G37*
G04 #@! TD.AperFunction*
G04 #@! TA.AperFunction,SMDPad,CuDef*
G36*
G01*
X64735000Y-139026000D02*
X64735000Y-138526000D01*
G75*
G02*
X64960000Y-138301000I225000J0D01*
G01*
X65410000Y-138301000D01*
G75*
G02*
X65635000Y-138526000I0J-225000D01*
G01*
X65635000Y-139026000D01*
G75*
G02*
X65410000Y-139251000I-225000J0D01*
G01*
X64960000Y-139251000D01*
G75*
G02*
X64735000Y-139026000I0J225000D01*
G01*
G37*
G04 #@! TD.AperFunction*
G04 #@! TA.AperFunction,SMDPad,CuDef*
G36*
G01*
X63185000Y-139026000D02*
X63185000Y-138526000D01*
G75*
G02*
X63410000Y-138301000I225000J0D01*
G01*
X63860000Y-138301000D01*
G75*
G02*
X64085000Y-138526000I0J-225000D01*
G01*
X64085000Y-139026000D01*
G75*
G02*
X63860000Y-139251000I-225000J0D01*
G01*
X63410000Y-139251000D01*
G75*
G02*
X63185000Y-139026000I0J225000D01*
G01*
G37*
G04 #@! TD.AperFunction*
G04 #@! TA.AperFunction,SMDPad,CuDef*
G36*
G01*
X64085000Y-136500000D02*
X64085000Y-137000000D01*
G75*
G02*
X63860000Y-137225000I-225000J0D01*
G01*
X63410000Y-137225000D01*
G75*
G02*
X63185000Y-137000000I0J225000D01*
G01*
X63185000Y-136500000D01*
G75*
G02*
X63410000Y-136275000I225000J0D01*
G01*
X63860000Y-136275000D01*
G75*
G02*
X64085000Y-136500000I0J-225000D01*
G01*
G37*
G04 #@! TD.AperFunction*
G04 #@! TA.AperFunction,SMDPad,CuDef*
G36*
G01*
X65635000Y-136500000D02*
X65635000Y-137000000D01*
G75*
G02*
X65410000Y-137225000I-225000J0D01*
G01*
X64960000Y-137225000D01*
G75*
G02*
X64735000Y-137000000I0J225000D01*
G01*
X64735000Y-136500000D01*
G75*
G02*
X64960000Y-136275000I225000J0D01*
G01*
X65410000Y-136275000D01*
G75*
G02*
X65635000Y-136500000I0J-225000D01*
G01*
G37*
G04 #@! TD.AperFunction*
G04 #@! TA.AperFunction,SMDPad,CuDef*
G36*
G01*
X103160000Y-97270000D02*
X102820000Y-97270000D01*
G75*
G02*
X102680000Y-97130000I0J140000D01*
G01*
X102680000Y-96850000D01*
G75*
G02*
X102820000Y-96710000I140000J0D01*
G01*
X103160000Y-96710000D01*
G75*
G02*
X103300000Y-96850000I0J-140000D01*
G01*
X103300000Y-97130000D01*
G75*
G02*
X103160000Y-97270000I-140000J0D01*
G01*
G37*
G04 #@! TD.AperFunction*
G04 #@! TA.AperFunction,SMDPad,CuDef*
G36*
G01*
X103160000Y-98230000D02*
X102820000Y-98230000D01*
G75*
G02*
X102680000Y-98090000I0J140000D01*
G01*
X102680000Y-97810000D01*
G75*
G02*
X102820000Y-97670000I140000J0D01*
G01*
X103160000Y-97670000D01*
G75*
G02*
X103300000Y-97810000I0J-140000D01*
G01*
X103300000Y-98090000D01*
G75*
G02*
X103160000Y-98230000I-140000J0D01*
G01*
G37*
G04 #@! TD.AperFunction*
G04 #@! TA.AperFunction,SMDPad,CuDef*
G36*
G01*
X101910000Y-96855000D02*
X101410000Y-96855000D01*
G75*
G02*
X101185000Y-96630000I0J225000D01*
G01*
X101185000Y-96180000D01*
G75*
G02*
X101410000Y-95955000I225000J0D01*
G01*
X101910000Y-95955000D01*
G75*
G02*
X102135000Y-96180000I0J-225000D01*
G01*
X102135000Y-96630000D01*
G75*
G02*
X101910000Y-96855000I-225000J0D01*
G01*
G37*
G04 #@! TD.AperFunction*
G04 #@! TA.AperFunction,SMDPad,CuDef*
G36*
G01*
X101910000Y-98405000D02*
X101410000Y-98405000D01*
G75*
G02*
X101185000Y-98180000I0J225000D01*
G01*
X101185000Y-97730000D01*
G75*
G02*
X101410000Y-97505000I225000J0D01*
G01*
X101910000Y-97505000D01*
G75*
G02*
X102135000Y-97730000I0J-225000D01*
G01*
X102135000Y-98180000D01*
G75*
G02*
X101910000Y-98405000I-225000J0D01*
G01*
G37*
G04 #@! TD.AperFunction*
G04 #@! TA.AperFunction,SMDPad,CuDef*
G36*
G01*
X90975000Y-109495000D02*
X90975000Y-109155000D01*
G75*
G02*
X91115000Y-109015000I140000J0D01*
G01*
X91395000Y-109015000D01*
G75*
G02*
X91535000Y-109155000I0J-140000D01*
G01*
X91535000Y-109495000D01*
G75*
G02*
X91395000Y-109635000I-140000J0D01*
G01*
X91115000Y-109635000D01*
G75*
G02*
X90975000Y-109495000I0J140000D01*
G01*
G37*
G04 #@! TD.AperFunction*
G04 #@! TA.AperFunction,SMDPad,CuDef*
G36*
G01*
X90015000Y-109495000D02*
X90015000Y-109155000D01*
G75*
G02*
X90155000Y-109015000I140000J0D01*
G01*
X90435000Y-109015000D01*
G75*
G02*
X90575000Y-109155000I0J-140000D01*
G01*
X90575000Y-109495000D01*
G75*
G02*
X90435000Y-109635000I-140000J0D01*
G01*
X90155000Y-109635000D01*
G75*
G02*
X90015000Y-109495000I0J140000D01*
G01*
G37*
G04 #@! TD.AperFunction*
G04 #@! TA.AperFunction,SMDPad,CuDef*
G36*
G01*
X139050000Y-137285000D02*
X138550000Y-137285000D01*
G75*
G02*
X138325000Y-137060000I0J225000D01*
G01*
X138325000Y-136610000D01*
G75*
G02*
X138550000Y-136385000I225000J0D01*
G01*
X139050000Y-136385000D01*
G75*
G02*
X139275000Y-136610000I0J-225000D01*
G01*
X139275000Y-137060000D01*
G75*
G02*
X139050000Y-137285000I-225000J0D01*
G01*
G37*
G04 #@! TD.AperFunction*
G04 #@! TA.AperFunction,SMDPad,CuDef*
G36*
G01*
X139050000Y-138835000D02*
X138550000Y-138835000D01*
G75*
G02*
X138325000Y-138610000I0J225000D01*
G01*
X138325000Y-138160000D01*
G75*
G02*
X138550000Y-137935000I225000J0D01*
G01*
X139050000Y-137935000D01*
G75*
G02*
X139275000Y-138160000I0J-225000D01*
G01*
X139275000Y-138610000D01*
G75*
G02*
X139050000Y-138835000I-225000J0D01*
G01*
G37*
G04 #@! TD.AperFunction*
G04 #@! TA.AperFunction,SMDPad,CuDef*
G36*
G01*
X100470000Y-101500000D02*
X100130000Y-101500000D01*
G75*
G02*
X99990000Y-101360000I0J140000D01*
G01*
X99990000Y-101080000D01*
G75*
G02*
X100130000Y-100940000I140000J0D01*
G01*
X100470000Y-100940000D01*
G75*
G02*
X100610000Y-101080000I0J-140000D01*
G01*
X100610000Y-101360000D01*
G75*
G02*
X100470000Y-101500000I-140000J0D01*
G01*
G37*
G04 #@! TD.AperFunction*
G04 #@! TA.AperFunction,SMDPad,CuDef*
G36*
G01*
X100470000Y-102460000D02*
X100130000Y-102460000D01*
G75*
G02*
X99990000Y-102320000I0J140000D01*
G01*
X99990000Y-102040000D01*
G75*
G02*
X100130000Y-101900000I140000J0D01*
G01*
X100470000Y-101900000D01*
G75*
G02*
X100610000Y-102040000I0J-140000D01*
G01*
X100610000Y-102320000D01*
G75*
G02*
X100470000Y-102460000I-140000J0D01*
G01*
G37*
G04 #@! TD.AperFunction*
G04 #@! TA.AperFunction,SMDPad,CuDef*
G36*
G01*
X136770000Y-141555000D02*
X136770000Y-142505000D01*
G75*
G02*
X136520000Y-142755000I-250000J0D01*
G01*
X136020000Y-142755000D01*
G75*
G02*
X135770000Y-142505000I0J250000D01*
G01*
X135770000Y-141555000D01*
G75*
G02*
X136020000Y-141305000I250000J0D01*
G01*
X136520000Y-141305000D01*
G75*
G02*
X136770000Y-141555000I0J-250000D01*
G01*
G37*
G04 #@! TD.AperFunction*
G04 #@! TA.AperFunction,SMDPad,CuDef*
G36*
G01*
X138670000Y-141555000D02*
X138670000Y-142505000D01*
G75*
G02*
X138420000Y-142755000I-250000J0D01*
G01*
X137920000Y-142755000D01*
G75*
G02*
X137670000Y-142505000I0J250000D01*
G01*
X137670000Y-141555000D01*
G75*
G02*
X137920000Y-141305000I250000J0D01*
G01*
X138420000Y-141305000D01*
G75*
G02*
X138670000Y-141555000I0J-250000D01*
G01*
G37*
G04 #@! TD.AperFunction*
G04 #@! TA.AperFunction,SMDPad,CuDef*
G36*
G01*
X107430000Y-106200000D02*
X107770000Y-106200000D01*
G75*
G02*
X107910000Y-106340000I0J-140000D01*
G01*
X107910000Y-106620000D01*
G75*
G02*
X107770000Y-106760000I-140000J0D01*
G01*
X107430000Y-106760000D01*
G75*
G02*
X107290000Y-106620000I0J140000D01*
G01*
X107290000Y-106340000D01*
G75*
G02*
X107430000Y-106200000I140000J0D01*
G01*
G37*
G04 #@! TD.AperFunction*
G04 #@! TA.AperFunction,SMDPad,CuDef*
G36*
G01*
X107430000Y-105240000D02*
X107770000Y-105240000D01*
G75*
G02*
X107910000Y-105380000I0J-140000D01*
G01*
X107910000Y-105660000D01*
G75*
G02*
X107770000Y-105800000I-140000J0D01*
G01*
X107430000Y-105800000D01*
G75*
G02*
X107290000Y-105660000I0J140000D01*
G01*
X107290000Y-105380000D01*
G75*
G02*
X107430000Y-105240000I140000J0D01*
G01*
G37*
G04 #@! TD.AperFunction*
G04 #@! TA.AperFunction,SMDPad,CuDef*
G36*
G01*
X107630000Y-114175000D02*
X107970000Y-114175000D01*
G75*
G02*
X108110000Y-114315000I0J-140000D01*
G01*
X108110000Y-114595000D01*
G75*
G02*
X107970000Y-114735000I-140000J0D01*
G01*
X107630000Y-114735000D01*
G75*
G02*
X107490000Y-114595000I0J140000D01*
G01*
X107490000Y-114315000D01*
G75*
G02*
X107630000Y-114175000I140000J0D01*
G01*
G37*
G04 #@! TD.AperFunction*
G04 #@! TA.AperFunction,SMDPad,CuDef*
G36*
G01*
X107630000Y-113215000D02*
X107970000Y-113215000D01*
G75*
G02*
X108110000Y-113355000I0J-140000D01*
G01*
X108110000Y-113635000D01*
G75*
G02*
X107970000Y-113775000I-140000J0D01*
G01*
X107630000Y-113775000D01*
G75*
G02*
X107490000Y-113635000I0J140000D01*
G01*
X107490000Y-113355000D01*
G75*
G02*
X107630000Y-113215000I140000J0D01*
G01*
G37*
G04 #@! TD.AperFunction*
G04 #@! TA.AperFunction,SMDPad,CuDef*
G36*
G01*
X98355000Y-118500000D02*
X98695000Y-118500000D01*
G75*
G02*
X98835000Y-118640000I0J-140000D01*
G01*
X98835000Y-118920000D01*
G75*
G02*
X98695000Y-119060000I-140000J0D01*
G01*
X98355000Y-119060000D01*
G75*
G02*
X98215000Y-118920000I0J140000D01*
G01*
X98215000Y-118640000D01*
G75*
G02*
X98355000Y-118500000I140000J0D01*
G01*
G37*
G04 #@! TD.AperFunction*
G04 #@! TA.AperFunction,SMDPad,CuDef*
G36*
G01*
X98355000Y-117540000D02*
X98695000Y-117540000D01*
G75*
G02*
X98835000Y-117680000I0J-140000D01*
G01*
X98835000Y-117960000D01*
G75*
G02*
X98695000Y-118100000I-140000J0D01*
G01*
X98355000Y-118100000D01*
G75*
G02*
X98215000Y-117960000I0J140000D01*
G01*
X98215000Y-117680000D01*
G75*
G02*
X98355000Y-117540000I140000J0D01*
G01*
G37*
G04 #@! TD.AperFunction*
G04 #@! TA.AperFunction,SMDPad,CuDef*
G36*
G01*
X88150000Y-104200000D02*
X88150000Y-104700000D01*
G75*
G02*
X87925000Y-104925000I-225000J0D01*
G01*
X87475000Y-104925000D01*
G75*
G02*
X87250000Y-104700000I0J225000D01*
G01*
X87250000Y-104200000D01*
G75*
G02*
X87475000Y-103975000I225000J0D01*
G01*
X87925000Y-103975000D01*
G75*
G02*
X88150000Y-104200000I0J-225000D01*
G01*
G37*
G04 #@! TD.AperFunction*
G04 #@! TA.AperFunction,SMDPad,CuDef*
G36*
G01*
X89700000Y-104200000D02*
X89700000Y-104700000D01*
G75*
G02*
X89475000Y-104925000I-225000J0D01*
G01*
X89025000Y-104925000D01*
G75*
G02*
X88800000Y-104700000I0J225000D01*
G01*
X88800000Y-104200000D01*
G75*
G02*
X89025000Y-103975000I225000J0D01*
G01*
X89475000Y-103975000D01*
G75*
G02*
X89700000Y-104200000I0J-225000D01*
G01*
G37*
G04 #@! TD.AperFunction*
G04 #@! TA.AperFunction,SMDPad,CuDef*
G36*
G01*
X88150000Y-102675000D02*
X88150000Y-103175000D01*
G75*
G02*
X87925000Y-103400000I-225000J0D01*
G01*
X87475000Y-103400000D01*
G75*
G02*
X87250000Y-103175000I0J225000D01*
G01*
X87250000Y-102675000D01*
G75*
G02*
X87475000Y-102450000I225000J0D01*
G01*
X87925000Y-102450000D01*
G75*
G02*
X88150000Y-102675000I0J-225000D01*
G01*
G37*
G04 #@! TD.AperFunction*
G04 #@! TA.AperFunction,SMDPad,CuDef*
G36*
G01*
X89700000Y-102675000D02*
X89700000Y-103175000D01*
G75*
G02*
X89475000Y-103400000I-225000J0D01*
G01*
X89025000Y-103400000D01*
G75*
G02*
X88800000Y-103175000I0J225000D01*
G01*
X88800000Y-102675000D01*
G75*
G02*
X89025000Y-102450000I225000J0D01*
G01*
X89475000Y-102450000D01*
G75*
G02*
X89700000Y-102675000I0J-225000D01*
G01*
G37*
G04 #@! TD.AperFunction*
G04 #@! TA.AperFunction,SMDPad,CuDef*
G36*
G01*
X109895000Y-120325000D02*
X109555000Y-120325000D01*
G75*
G02*
X109415000Y-120185000I0J140000D01*
G01*
X109415000Y-119905000D01*
G75*
G02*
X109555000Y-119765000I140000J0D01*
G01*
X109895000Y-119765000D01*
G75*
G02*
X110035000Y-119905000I0J-140000D01*
G01*
X110035000Y-120185000D01*
G75*
G02*
X109895000Y-120325000I-140000J0D01*
G01*
G37*
G04 #@! TD.AperFunction*
G04 #@! TA.AperFunction,SMDPad,CuDef*
G36*
G01*
X109895000Y-121285000D02*
X109555000Y-121285000D01*
G75*
G02*
X109415000Y-121145000I0J140000D01*
G01*
X109415000Y-120865000D01*
G75*
G02*
X109555000Y-120725000I140000J0D01*
G01*
X109895000Y-120725000D01*
G75*
G02*
X110035000Y-120865000I0J-140000D01*
G01*
X110035000Y-121145000D01*
G75*
G02*
X109895000Y-121285000I-140000J0D01*
G01*
G37*
G04 #@! TD.AperFunction*
D33*
X104600000Y-122700000D03*
X98525000Y-119500000D03*
X106875000Y-114450000D03*
X108395000Y-106480000D03*
X101250000Y-105870000D03*
X141100000Y-135240000D03*
X137670000Y-136830000D03*
X134230000Y-155810000D03*
X141100000Y-134140000D03*
X147000000Y-81000000D03*
X125030000Y-66970000D03*
X95830000Y-109250000D03*
X98750000Y-114220000D03*
X134940000Y-142030000D03*
X57950000Y-72170000D03*
X52450000Y-73850000D03*
X57950000Y-73790000D03*
X65210000Y-71050000D03*
X74560000Y-75090000D03*
X100300000Y-100140000D03*
X101562000Y-95306000D03*
X147050084Y-73500000D03*
X92700000Y-102100000D03*
X89900000Y-106000000D03*
X86400000Y-102925000D03*
X111300000Y-120045000D03*
X104700000Y-117900000D03*
X61225000Y-65025000D03*
X147050000Y-77200000D03*
X65185000Y-137815000D03*
X56725000Y-149475000D03*
X61400000Y-144500000D03*
X72875000Y-149525000D03*
X138600000Y-82600000D03*
X110650000Y-121375000D03*
X86500000Y-109475000D03*
X142565000Y-138925000D03*
X145674994Y-138925000D03*
X147300000Y-138925000D03*
X109110000Y-113730000D03*
X108600000Y-105200000D03*
X133950000Y-63650000D03*
X80500000Y-68850000D03*
X80730000Y-63540000D03*
X73662500Y-71417500D03*
X65345000Y-66855000D03*
X100038000Y-105974000D03*
X97498000Y-114102000D03*
X62000000Y-136750000D03*
X79972000Y-79050000D03*
X143790000Y-89210000D03*
X69170001Y-111875000D03*
X115023998Y-74732002D03*
X122136000Y-75240000D03*
X103086000Y-99370000D03*
X110198000Y-92258000D03*
X99000000Y-123750000D03*
X87500000Y-123750000D03*
X96920000Y-127120000D03*
X85300000Y-127100000D03*
X95675000Y-130375000D03*
X86900000Y-130400000D03*
X87600000Y-131800000D03*
X94380000Y-131819990D03*
X93125000Y-124775004D03*
X85250000Y-124750000D03*
X91840000Y-125740000D03*
X85400000Y-133500000D03*
X87300000Y-125800000D03*
X77540000Y-115700000D03*
X70307000Y-64585000D03*
X68970000Y-68940000D03*
X105372000Y-85146000D03*
D34*
X87700000Y-104450000D02*
X87700000Y-102925000D01*
X108720000Y-120045000D02*
X108050000Y-119375000D01*
X109725000Y-120045000D02*
X108720000Y-120045000D01*
X98525000Y-118780000D02*
X98525000Y-119500000D01*
X105738000Y-113750000D02*
X106175000Y-113750000D01*
X106880000Y-114455000D02*
X107800000Y-114455000D01*
X106175000Y-113750000D02*
X106875000Y-114450000D01*
X106875000Y-114450000D02*
X106880000Y-114455000D01*
X107330000Y-106750000D02*
X107600000Y-106480000D01*
X105738000Y-106750000D02*
X107330000Y-106750000D01*
X107600000Y-106480000D02*
X108395000Y-106480000D01*
X91330000Y-109250000D02*
X91255000Y-109325000D01*
X94262000Y-109250000D02*
X91330000Y-109250000D01*
X102405000Y-96405000D02*
X102990000Y-96990000D01*
X101660000Y-96405000D02*
X102405000Y-96405000D01*
X101250000Y-104262000D02*
X101250000Y-105870000D01*
X140890000Y-136835000D02*
X141100000Y-136625000D01*
X138800000Y-136835000D02*
X140890000Y-136835000D01*
X138800000Y-136835000D02*
X137665000Y-136835000D01*
X137665000Y-136835000D02*
X137670000Y-136830000D01*
X134260000Y-155810000D02*
X134230000Y-155810000D01*
X133145000Y-155810000D02*
X134230000Y-155810000D01*
D35*
X141100000Y-136625000D02*
X141100000Y-135240000D01*
X141100000Y-135240000D02*
X141100000Y-134140000D01*
D34*
X122425000Y-66970000D02*
X125030000Y-66970000D01*
X125030000Y-66970000D02*
X127675000Y-66970000D01*
X94262000Y-109250000D02*
X95830000Y-109250000D01*
X98750000Y-115738000D02*
X98750000Y-114220000D01*
D35*
X136270000Y-142030000D02*
X134940000Y-142030000D01*
X57950000Y-71050000D02*
X57950000Y-72170000D01*
X57950000Y-72170000D02*
X57950000Y-73790000D01*
X57950000Y-73790000D02*
X57950000Y-73850000D01*
X66660000Y-71050000D02*
X66775000Y-70935000D01*
X57950000Y-71050000D02*
X65210000Y-71050000D01*
X65210000Y-71050000D02*
X66660000Y-71050000D01*
D34*
X74560000Y-73865000D02*
X74560000Y-75090000D01*
X100300000Y-101220000D02*
X100300000Y-100140000D01*
X101660000Y-95404000D02*
X101562000Y-95306000D01*
X101660000Y-96405000D02*
X101660000Y-95404000D01*
D35*
X146900000Y-75950000D02*
X147050000Y-76100000D01*
X144200000Y-75950000D02*
X146900000Y-75950000D01*
X147050000Y-73500000D02*
X147050000Y-77200000D01*
X61200000Y-65050000D02*
X61225000Y-65025000D01*
X52450000Y-65050000D02*
X61200000Y-65050000D01*
D34*
X64080000Y-65025000D02*
X61225000Y-65025000D01*
D35*
X147050000Y-77200000D02*
X147050000Y-81000000D01*
D34*
X65185000Y-138776000D02*
X65185000Y-137815000D01*
X65185000Y-137815000D02*
X65185000Y-136750000D01*
X56725000Y-145075000D02*
X56725000Y-149475000D01*
X56725000Y-149475000D02*
X56725000Y-154075000D01*
X61405000Y-144495000D02*
X61400000Y-144500000D01*
X61405000Y-143075000D02*
X61405000Y-144495000D01*
X72875000Y-145075000D02*
X72875000Y-149525000D01*
X72875000Y-149525000D02*
X72875000Y-154075000D01*
X71825000Y-145075000D02*
X71800000Y-145050000D01*
X72875000Y-145075000D02*
X71825000Y-145075000D01*
X138100000Y-83675000D02*
X138100000Y-83100000D01*
X138100000Y-83100000D02*
X138600000Y-82600000D01*
X106150000Y-121575000D02*
X108050000Y-121575000D01*
X109155000Y-121575000D02*
X109725000Y-121005000D01*
X108050000Y-121575000D02*
X109155000Y-121575000D01*
X109725000Y-121005000D02*
X110280000Y-121005000D01*
X110280000Y-121005000D02*
X110650000Y-121375000D01*
X98250000Y-117545000D02*
X98525000Y-117820000D01*
X98250000Y-115738000D02*
X98250000Y-117545000D01*
X107555000Y-113250000D02*
X107800000Y-113495000D01*
X105738000Y-113250000D02*
X107555000Y-113250000D01*
X105738000Y-106250000D02*
X106100000Y-106250000D01*
X106830000Y-105520000D02*
X107600000Y-105520000D01*
X106100000Y-106250000D02*
X106830000Y-105520000D01*
X100250000Y-102230000D02*
X100300000Y-102180000D01*
X100250000Y-104262000D02*
X100250000Y-102230000D01*
X87462500Y-109475000D02*
X86500000Y-109475000D01*
X140560000Y-138385000D02*
X141100000Y-138925000D01*
X138800000Y-138385000D02*
X140560000Y-138385000D01*
X128260000Y-146530000D02*
X126980000Y-146530000D01*
X126980000Y-146530000D02*
X125140000Y-148370000D01*
X125140000Y-153827500D02*
X127112500Y-155800000D01*
X125140000Y-148370000D02*
X125140000Y-153827500D01*
D35*
X141100000Y-138925000D02*
X142565000Y-138925000D01*
X147300000Y-138925000D02*
X145674994Y-138925000D01*
D34*
X107800000Y-113495000D02*
X108875000Y-113495000D01*
X108875000Y-113495000D02*
X109110000Y-113730000D01*
X107600000Y-105520000D02*
X108280000Y-105520000D01*
X108280000Y-105520000D02*
X108600000Y-105200000D01*
X132895000Y-63650000D02*
X133950000Y-63650000D01*
X80500000Y-67777500D02*
X80500000Y-68850000D01*
X80500000Y-68850000D02*
X80500000Y-69932500D01*
X79555000Y-63540000D02*
X80730000Y-63540000D01*
X64080000Y-66575000D02*
X65065000Y-66575000D01*
X65615000Y-67125000D02*
X66775000Y-67125000D01*
X65065000Y-66575000D02*
X65345000Y-66855000D01*
X73180000Y-70935000D02*
X73662500Y-71417500D01*
X72175000Y-70935000D02*
X73180000Y-70935000D01*
X73662500Y-71417500D02*
X74560000Y-72315000D01*
X65345000Y-66855000D02*
X65615000Y-67125000D01*
X100250000Y-104262000D02*
X100250000Y-105762000D01*
X100250000Y-105762000D02*
X100038000Y-105974000D01*
X98250000Y-115738000D02*
X98250000Y-114854000D01*
X98250000Y-114854000D02*
X97498000Y-114102000D01*
X63555000Y-138856000D02*
X63635000Y-138776000D01*
X63635000Y-138776000D02*
X63635000Y-136750000D01*
X63635000Y-136750000D02*
X62000000Y-136750000D01*
X63635000Y-143045000D02*
X63605000Y-143075000D01*
X63635000Y-138776000D02*
X63635000Y-143045000D01*
X90900000Y-102925000D02*
X91075000Y-103100000D01*
X89250000Y-102925000D02*
X90900000Y-102925000D01*
X91075000Y-103100000D02*
X92250000Y-103100000D01*
X94262000Y-105112000D02*
X94262000Y-106250000D01*
X92250000Y-103100000D02*
X94262000Y-105112000D01*
X90925000Y-104450000D02*
X91075000Y-104300000D01*
X89250000Y-104450000D02*
X90925000Y-104450000D01*
X91075000Y-104300000D02*
X91075000Y-104375000D01*
X93274500Y-106750000D02*
X92800000Y-106275500D01*
X94262000Y-106750000D02*
X93274500Y-106750000D01*
X92800000Y-106025000D02*
X91075000Y-104300000D01*
X92800000Y-106275500D02*
X92800000Y-106025000D01*
D35*
X142425000Y-145300000D02*
X142425000Y-144585000D01*
X141100000Y-143260000D02*
X141100000Y-141225000D01*
X142425000Y-144585000D02*
X141100000Y-143260000D01*
X140295000Y-142030000D02*
X141100000Y-141225000D01*
X138170000Y-142030000D02*
X140295000Y-142030000D01*
X128260000Y-151610000D02*
X130800000Y-151610000D01*
X130800000Y-151610000D02*
X132660000Y-151610000D01*
X132660000Y-151610000D02*
X136330000Y-147940000D01*
X136330000Y-147940000D02*
X136330000Y-144700000D01*
X138170000Y-142860000D02*
X138170000Y-142030000D01*
X136330000Y-144700000D02*
X138170000Y-142860000D01*
X59270000Y-79050000D02*
X79972000Y-79050000D01*
X143760000Y-87470000D02*
X143760000Y-89220000D01*
X143750000Y-140350000D02*
X143750000Y-89250000D01*
X142875000Y-141225000D02*
X143750000Y-140350000D01*
X143750000Y-89250000D02*
X143790000Y-89210000D01*
X141100000Y-141225000D02*
X142875000Y-141225000D01*
D34*
X90145000Y-109475000D02*
X90295000Y-109325000D01*
X89037500Y-109475000D02*
X90145000Y-109475000D01*
X91576204Y-109830000D02*
X93194500Y-109830000D01*
X93194500Y-109830000D02*
X93274500Y-109750000D01*
X91546194Y-109860010D02*
X91576204Y-109830000D01*
X90963806Y-109860010D02*
X91546194Y-109860010D01*
X93274500Y-109750000D02*
X94262000Y-109750000D01*
X90933796Y-109830000D02*
X90963806Y-109860010D01*
X90800000Y-109830000D02*
X90933796Y-109830000D01*
X90295000Y-109325000D02*
X90800000Y-109830000D01*
X101630000Y-97985000D02*
X101660000Y-97955000D01*
X101630000Y-99522500D02*
X101630000Y-97985000D01*
X102985000Y-97955000D02*
X102990000Y-97950000D01*
X101660000Y-97955000D02*
X102985000Y-97955000D01*
X101750000Y-102764020D02*
X102049979Y-102464041D01*
X102049979Y-102464041D02*
X102049980Y-101780094D01*
X102470000Y-100362500D02*
X101630000Y-99522500D01*
X101750000Y-104262000D02*
X101750000Y-102764020D01*
X102049980Y-101780094D02*
X102470000Y-101360074D01*
X102470000Y-101360074D02*
X102470000Y-100362500D01*
X131485000Y-155800000D02*
X131495000Y-155810000D01*
X128687500Y-155800000D02*
X131485000Y-155800000D01*
X56858000Y-111028500D02*
X57391500Y-111028500D01*
X71059998Y-110620000D02*
X71000000Y-110620000D01*
X72354998Y-109325000D02*
X71059998Y-110620000D01*
X76530000Y-110250000D02*
X75605000Y-109325000D01*
X75605000Y-109325000D02*
X72354998Y-109325000D01*
X94262000Y-110250000D02*
X76530000Y-110250000D01*
X70164000Y-109784000D02*
X71000000Y-110620000D01*
X57952500Y-109784000D02*
X70164000Y-109784000D01*
X56858000Y-110878500D02*
X57952500Y-109784000D01*
X56858000Y-112603500D02*
X56858000Y-114547000D01*
D35*
X57950000Y-67850000D02*
X56374000Y-67850000D01*
X56374000Y-67850000D02*
X54318000Y-69906000D01*
X54318000Y-69906000D02*
X54318000Y-77018000D01*
X55970000Y-78670000D02*
X55970000Y-79050000D01*
X54318000Y-77018000D02*
X55970000Y-78670000D01*
D34*
X73670000Y-110750000D02*
X73540000Y-110620000D01*
X94262000Y-110750000D02*
X73670000Y-110750000D01*
X73040000Y-110620000D02*
X73540000Y-110620000D01*
X68323501Y-111028500D02*
X69170001Y-111875000D01*
X61430000Y-111028500D02*
X68323501Y-111028500D01*
X61430000Y-112603500D02*
X61430000Y-114547000D01*
X115049500Y-74706500D02*
X115023998Y-74732002D01*
X120358000Y-74706500D02*
X115049500Y-74706500D01*
X94185000Y-80466998D02*
X94185000Y-80150000D01*
X95425000Y-81706998D02*
X94185000Y-80466998D01*
X95425000Y-85867000D02*
X95425000Y-81706998D01*
X96250000Y-86692000D02*
X95425000Y-85867000D01*
X96250000Y-104262000D02*
X96250000Y-86692000D01*
X120358000Y-76281500D02*
X120358000Y-78733000D01*
X124930000Y-74706500D02*
X122669500Y-74706500D01*
X122669500Y-74706500D02*
X122136000Y-75240000D01*
X99360000Y-80150000D02*
X99265000Y-80150000D01*
X100525000Y-81315000D02*
X99360000Y-80150000D01*
X100525000Y-85167000D02*
X100525000Y-81315000D01*
X98250000Y-87442000D02*
X100525000Y-85167000D01*
X98250000Y-104262000D02*
X98250000Y-87442000D01*
X124930000Y-76281500D02*
X124930000Y-78733000D01*
X80472500Y-71535000D02*
X80500000Y-71507500D01*
X77190000Y-71535000D02*
X80472500Y-71535000D01*
X80422500Y-66125000D02*
X80500000Y-66202500D01*
X77410000Y-66125000D02*
X80422500Y-66125000D01*
X96750000Y-82715000D02*
X96725000Y-82690000D01*
X96750000Y-104262000D02*
X96750000Y-82715000D01*
X96725000Y-80212998D02*
X96725000Y-80150000D01*
X98000000Y-83882000D02*
X98000000Y-81487998D01*
X97250000Y-84632000D02*
X98000000Y-83882000D01*
X98000000Y-81487998D02*
X96725000Y-80212998D01*
X97250000Y-104262000D02*
X97250000Y-84632000D01*
X97750000Y-104262000D02*
X97750000Y-87180000D01*
X99265000Y-85665000D02*
X99265000Y-82690000D01*
X97750000Y-87180000D02*
X99265000Y-85665000D01*
X98750000Y-104262000D02*
X98750000Y-87704000D01*
X101805000Y-84649000D02*
X101805000Y-82690000D01*
X98750000Y-87704000D02*
X101805000Y-84649000D01*
X94000000Y-65000000D02*
X94000000Y-69630000D01*
X101805000Y-77435000D02*
X101805000Y-80150000D01*
X94000000Y-69630000D02*
X101805000Y-77435000D01*
X101805000Y-80212998D02*
X101805000Y-80150000D01*
X103100000Y-81507998D02*
X101805000Y-80212998D01*
X103100000Y-84370000D02*
X103100000Y-81507998D01*
X99250000Y-88220000D02*
X103100000Y-84370000D01*
X99250000Y-104262000D02*
X99250000Y-88220000D01*
X105060000Y-69090000D02*
X105060000Y-69125000D01*
X101620000Y-65650000D02*
X105060000Y-69090000D01*
X101620000Y-65000000D02*
X101620000Y-65650000D01*
X99750000Y-104262000D02*
X99750000Y-88736000D01*
X104345000Y-84141000D02*
X104345000Y-82690000D01*
X99750000Y-88736000D02*
X104345000Y-84141000D01*
X106290000Y-70355000D02*
X105060000Y-69125000D01*
X105625000Y-73555000D02*
X106290000Y-72890000D01*
X105625000Y-81410000D02*
X105625000Y-73555000D01*
X106290000Y-72890000D02*
X106290000Y-70355000D01*
X104345000Y-82690000D02*
X105625000Y-81410000D01*
X100750000Y-104262000D02*
X100750000Y-103250000D01*
X101630000Y-102370000D02*
X101630000Y-101097500D01*
X100750000Y-103250000D02*
X101630000Y-102370000D01*
X111780000Y-65000000D02*
X115280000Y-65000000D01*
X116510000Y-63770000D02*
X122425000Y-63770000D01*
X115280000Y-65000000D02*
X116510000Y-63770000D01*
X122425000Y-63770000D02*
X127675000Y-63770000D01*
X131125000Y-63770000D02*
X131245000Y-63650000D01*
X127675000Y-63770000D02*
X131125000Y-63770000D01*
X110198000Y-92258000D02*
X112992000Y-89464000D01*
X112992000Y-66212000D02*
X111780000Y-65000000D01*
X112992000Y-89464000D02*
X112992000Y-66212000D01*
X103086000Y-101439000D02*
X103086000Y-99370000D01*
X102399989Y-102125011D02*
X103086000Y-101439000D01*
X102399989Y-102609021D02*
X102399989Y-102125011D01*
X102250000Y-102759010D02*
X102399989Y-102609021D01*
X102250000Y-104262000D02*
X102250000Y-102759010D01*
X106885000Y-98815000D02*
X106885000Y-82690000D01*
X103250000Y-102450000D02*
X106885000Y-98815000D01*
X103250000Y-104262000D02*
X103250000Y-102450000D01*
X106885000Y-80563000D02*
X106885000Y-80150000D01*
X108150000Y-81828000D02*
X106885000Y-80563000D01*
X108150000Y-98116000D02*
X108150000Y-81828000D01*
X103750000Y-102516000D02*
X108150000Y-98116000D01*
X103750000Y-104262000D02*
X103750000Y-102516000D01*
X144125000Y-77325000D02*
X144200000Y-77250000D01*
X140221446Y-77325000D02*
X144125000Y-77325000D01*
X110296446Y-107250000D02*
X140221446Y-77325000D01*
X105738000Y-107250000D02*
X110296446Y-107250000D01*
X144125000Y-77825000D02*
X144200000Y-77900000D01*
X140428554Y-77825000D02*
X144125000Y-77825000D01*
X110503554Y-107750000D02*
X140428554Y-77825000D01*
X105738000Y-107750000D02*
X110503554Y-107750000D01*
X105738000Y-108250000D02*
X114350000Y-108250000D01*
X118300000Y-104300000D02*
X129460000Y-104300000D01*
X114350000Y-108250000D02*
X118300000Y-104300000D01*
X131650000Y-104300000D02*
X132000000Y-104300000D01*
X130450000Y-105500000D02*
X131650000Y-104300000D01*
X118030000Y-105500000D02*
X130450000Y-105500000D01*
X114780000Y-108750000D02*
X118030000Y-105500000D01*
X105738000Y-108750000D02*
X114780000Y-108750000D01*
X105738000Y-109250000D02*
X117080000Y-109250000D01*
X119490000Y-106840000D02*
X129460000Y-106840000D01*
X117080000Y-109250000D02*
X119490000Y-106840000D01*
X131760002Y-106840000D02*
X132000000Y-106840000D01*
X130500002Y-108100000D02*
X131760002Y-106840000D01*
X121220000Y-108100000D02*
X130500002Y-108100000D01*
X119570000Y-109750000D02*
X121220000Y-108100000D01*
X105738000Y-109750000D02*
X119570000Y-109750000D01*
X125330000Y-109380000D02*
X129460000Y-109380000D01*
X124535000Y-110175000D02*
X125330000Y-109380000D01*
X105813000Y-110175000D02*
X124535000Y-110175000D01*
X105738000Y-110250000D02*
X105813000Y-110175000D01*
X131980000Y-109380000D02*
X132000000Y-109380000D01*
X130735000Y-110625000D02*
X131980000Y-109380000D01*
X105863000Y-110625000D02*
X130735000Y-110625000D01*
X105738000Y-110750000D02*
X105863000Y-110625000D01*
X105738000Y-111250000D02*
X111890000Y-111250000D01*
X112560000Y-111920000D02*
X129460000Y-111920000D01*
X111890000Y-111250000D02*
X112560000Y-111920000D01*
X131900000Y-111920000D02*
X132000000Y-111920000D01*
X130595000Y-113225000D02*
X131900000Y-111920000D01*
X112985000Y-113225000D02*
X130595000Y-113225000D01*
X111510000Y-111750000D02*
X112985000Y-113225000D01*
X105738000Y-111750000D02*
X111510000Y-111750000D01*
X105738000Y-112250000D02*
X111060000Y-112250000D01*
X113270000Y-114460000D02*
X129460000Y-114460000D01*
X111060000Y-112250000D02*
X113270000Y-114460000D01*
X127475000Y-127755000D02*
X129460000Y-125770000D01*
X127475000Y-129297501D02*
X127475000Y-127755000D01*
X130770000Y-115690000D02*
X132000000Y-114460000D01*
X113690000Y-115690000D02*
X130770000Y-115690000D01*
X110750000Y-112750000D02*
X113690000Y-115690000D01*
X105738000Y-112750000D02*
X110750000Y-112750000D01*
X133525000Y-129297501D02*
X133525000Y-127425000D01*
X132000000Y-125900000D02*
X132000000Y-125770000D01*
X133525000Y-127425000D02*
X132000000Y-125900000D01*
X132160000Y-114300000D02*
X132000000Y-114460000D01*
X132930000Y-125770000D02*
X134300000Y-124400000D01*
X132000000Y-125770000D02*
X132930000Y-125770000D01*
X132000000Y-114460000D02*
X132860000Y-114460000D01*
X132860000Y-114460000D02*
X134300000Y-115900000D01*
X134300000Y-115900000D02*
X134300000Y-124400000D01*
X103750000Y-115738000D02*
X109548000Y-115738000D01*
X109548000Y-115738000D02*
X112992000Y-119182000D01*
X112992000Y-119182000D02*
X112992000Y-135438000D01*
X110430000Y-138000000D02*
X107080000Y-138000000D01*
X112992000Y-135438000D02*
X110430000Y-138000000D01*
X106150000Y-119375000D02*
X104425000Y-119375000D01*
X103250000Y-118200000D02*
X103250000Y-115738000D01*
X104425000Y-119375000D02*
X103250000Y-118200000D01*
X102750000Y-115738000D02*
X102750000Y-131038000D01*
X104540000Y-132828000D02*
X104540000Y-135460000D01*
X102750000Y-131038000D02*
X104540000Y-132828000D01*
X104540000Y-137840000D02*
X104540000Y-138000000D01*
X103340000Y-136640000D02*
X104540000Y-137840000D01*
X103340000Y-133152000D02*
X103340000Y-136640000D01*
X102250000Y-132062000D02*
X103340000Y-133152000D01*
X102250000Y-115738000D02*
X102250000Y-132062000D01*
X101750000Y-135210000D02*
X102000000Y-135460000D01*
X101750000Y-115738000D02*
X101750000Y-135210000D01*
X101250000Y-115738000D02*
X101250000Y-125082000D01*
X101250000Y-125082000D02*
X100800000Y-125532000D01*
X100800000Y-136800000D02*
X102000000Y-138000000D01*
X100800000Y-125532000D02*
X100800000Y-136800000D01*
X100750000Y-115738000D02*
X100750000Y-123804000D01*
X99460000Y-125094000D02*
X99460000Y-135460000D01*
X100750000Y-123804000D02*
X99460000Y-125094000D01*
X100250000Y-115738000D02*
X100250000Y-122526000D01*
X100250000Y-122526000D02*
X98260000Y-124516000D01*
X98260000Y-136800000D02*
X99460000Y-138000000D01*
X98260000Y-124516000D02*
X98260000Y-136800000D01*
X94396000Y-148991000D02*
X94396000Y-148704000D01*
X99460000Y-143640000D02*
X99460000Y-138000000D01*
X94396000Y-148704000D02*
X99460000Y-143640000D01*
X66850000Y-123750000D02*
X87500000Y-123750000D01*
X58105000Y-132495000D02*
X66850000Y-123750000D01*
X58105000Y-143075000D02*
X58105000Y-132495000D01*
X99750000Y-115738000D02*
X99750000Y-120994000D01*
X99750000Y-120994000D02*
X96920000Y-123824000D01*
X96920000Y-127120000D02*
X96920000Y-135460000D01*
X96920000Y-123824000D02*
X96920000Y-127120000D01*
X68600000Y-127100000D02*
X85300000Y-127100000D01*
X61200000Y-134500000D02*
X68600000Y-127100000D01*
X61200000Y-134500000D02*
X61200000Y-140300000D01*
X61200000Y-140300000D02*
X62400000Y-141500000D01*
X62400000Y-142970000D02*
X62505000Y-143075000D01*
X62400000Y-141500000D02*
X62400000Y-142970000D01*
X96920000Y-137420000D02*
X96920000Y-138000000D01*
X95675000Y-136175000D02*
X96920000Y-137420000D01*
X99250000Y-119716000D02*
X95675000Y-123291000D01*
X99250000Y-115738000D02*
X99250000Y-119716000D01*
X95675000Y-130375000D02*
X95675000Y-136175000D01*
X95675000Y-123291000D02*
X95675000Y-130375000D01*
X91096800Y-148991000D02*
X91096800Y-148903200D01*
X96920000Y-143080000D02*
X96920000Y-138000000D01*
X91096800Y-148903200D02*
X96920000Y-143080000D01*
X77600000Y-130400000D02*
X86900000Y-130400000D01*
X65755000Y-142245000D02*
X77600000Y-130400000D01*
X65755000Y-143025000D02*
X65805000Y-143075000D01*
X65755000Y-142245000D02*
X65755000Y-143025000D01*
X94380000Y-135805000D02*
X94380000Y-135460000D01*
X66855000Y-142845000D02*
X77900000Y-131800000D01*
X77900000Y-131800000D02*
X87600000Y-131800000D01*
X94380000Y-135460000D02*
X94380000Y-131819990D01*
X97750000Y-115738000D02*
X97750000Y-118676000D01*
X97750000Y-118676000D02*
X94380000Y-122046000D01*
X94380000Y-122046000D02*
X94380000Y-131819990D01*
X94380000Y-135980000D02*
X94380000Y-135460000D01*
X95600000Y-137200000D02*
X94380000Y-135980000D01*
X95600000Y-141400000D02*
X95600000Y-137200000D01*
X88009000Y-148991000D02*
X95600000Y-141400000D01*
X87797600Y-148991000D02*
X88009000Y-148991000D01*
X94380000Y-138000000D02*
X93125000Y-136745000D01*
X93125000Y-136745000D02*
X93125000Y-124775004D01*
X97250000Y-115738000D02*
X97250000Y-117652000D01*
X97250000Y-117652000D02*
X93125000Y-121777000D01*
X93125000Y-121777000D02*
X93125000Y-124775004D01*
X84498400Y-148991000D02*
X84709000Y-148991000D01*
X94380000Y-139320000D02*
X94380000Y-138000000D01*
X84709000Y-148991000D02*
X94380000Y-139320000D01*
X67650000Y-124750000D02*
X85250000Y-124750000D01*
X59230000Y-133170000D02*
X67650000Y-124750000D01*
X59230000Y-143050000D02*
X59205000Y-143075000D01*
X59230000Y-133170000D02*
X59230000Y-143050000D01*
X91840000Y-135460000D02*
X91840000Y-125740000D01*
X96750000Y-115738000D02*
X96750000Y-117390000D01*
X96750000Y-117390000D02*
X91840000Y-122300000D01*
X91840000Y-122300000D02*
X91840000Y-125740000D01*
X77900000Y-148991000D02*
X77900000Y-141000000D01*
X77900000Y-141000000D02*
X85400000Y-133500000D01*
X68400000Y-125800000D02*
X87300000Y-125800000D01*
X60305000Y-133895000D02*
X68400000Y-125800000D01*
X60305000Y-143075000D02*
X60305000Y-133895000D01*
X91673998Y-138000000D02*
X91840000Y-138000000D01*
X90575000Y-136901002D02*
X91673998Y-138000000D01*
X96250000Y-116620000D02*
X90575000Y-122295000D01*
X96250000Y-115738000D02*
X96250000Y-116620000D01*
X90575000Y-129925000D02*
X90575000Y-129575000D01*
X90575000Y-129575000D02*
X90575000Y-136901002D01*
X90575000Y-126675000D02*
X90575000Y-129575000D01*
X81199200Y-148991000D02*
X81609000Y-148991000D01*
X91840000Y-138760000D02*
X91840000Y-138000000D01*
X81609000Y-148991000D02*
X91840000Y-138760000D01*
X90575000Y-122295000D02*
X90575000Y-126675000D01*
X88250000Y-129000000D02*
X90575000Y-126675000D01*
X77000000Y-129000000D02*
X88250000Y-129000000D01*
X64655000Y-141345000D02*
X77000000Y-129000000D01*
X64655000Y-143025000D02*
X64705000Y-143075000D01*
X64655000Y-141345000D02*
X64655000Y-143025000D01*
X94262000Y-113750000D02*
X92640000Y-113750000D01*
X88150000Y-118240000D02*
X73540000Y-118240000D01*
X92640000Y-113750000D02*
X88150000Y-118240000D01*
X71080000Y-118240000D02*
X71000000Y-118240000D01*
X72370000Y-116950000D02*
X71080000Y-118240000D01*
X88440000Y-116950000D02*
X72370000Y-116950000D01*
X92140000Y-113250000D02*
X88440000Y-116950000D01*
X94262000Y-113250000D02*
X92140000Y-113250000D01*
X94262000Y-112750000D02*
X91590000Y-112750000D01*
X91590000Y-112750000D02*
X88640000Y-115700000D01*
X77540000Y-115700000D02*
X73540000Y-115700000D01*
X88640000Y-115700000D02*
X77540000Y-115700000D01*
X72175000Y-64585000D02*
X70307000Y-64585000D01*
X94262000Y-112250000D02*
X91110000Y-112250000D01*
X91110000Y-112250000D02*
X88870000Y-114490000D01*
X72210000Y-114490000D02*
X71000000Y-115700000D01*
X88870000Y-114490000D02*
X72210000Y-114490000D01*
X71964998Y-65855000D02*
X69089998Y-68730000D01*
X72175000Y-65855000D02*
X71964998Y-65855000D01*
X69089998Y-68820002D02*
X68970000Y-68940000D01*
X69089998Y-68730000D02*
X69089998Y-68820002D01*
X94262000Y-111750000D02*
X90610000Y-111750000D01*
X89200000Y-113160000D02*
X73540000Y-113160000D01*
X90610000Y-111750000D02*
X89200000Y-113160000D01*
X72085000Y-112075000D02*
X71000000Y-113160000D01*
X88995000Y-112075000D02*
X72085000Y-112075000D01*
X89820000Y-111250000D02*
X88995000Y-112075000D01*
X94262000Y-111250000D02*
X89820000Y-111250000D01*
X74310000Y-91770000D02*
X80810000Y-91770000D01*
X74210021Y-108750021D02*
X73540000Y-108080000D01*
X94261979Y-108750021D02*
X74210021Y-108750021D01*
X94262000Y-108750000D02*
X94261979Y-108750021D01*
X54025000Y-91770000D02*
X60525000Y-91770000D01*
X60525000Y-91770000D02*
X60525000Y-101725000D01*
X60525000Y-101725000D02*
X66560000Y-107760000D01*
X70680000Y-107760000D02*
X71000000Y-108080000D01*
X66560000Y-107760000D02*
X70680000Y-107760000D01*
X72330000Y-106750000D02*
X71000000Y-108080000D01*
X76450000Y-106750000D02*
X72330000Y-106750000D01*
X77950000Y-108250000D02*
X76450000Y-106750000D01*
X94262000Y-108250000D02*
X77950000Y-108250000D01*
X76940000Y-105540000D02*
X73540000Y-105540000D01*
X79150000Y-107750000D02*
X76940000Y-105540000D01*
X94262000Y-107750000D02*
X79150000Y-107750000D01*
X72265000Y-104275000D02*
X71000000Y-105540000D01*
X76695000Y-104275000D02*
X72265000Y-104275000D01*
X79670000Y-107250000D02*
X76695000Y-104275000D01*
X94262000Y-107250000D02*
X79670000Y-107250000D01*
D35*
X64545000Y-69665000D02*
X66775000Y-69665000D01*
X64330000Y-69450000D02*
X64545000Y-69665000D01*
X57950000Y-69450000D02*
X64330000Y-69450000D01*
D34*
X57950000Y-68650000D02*
X58042893Y-68650000D01*
D35*
X64320000Y-68650000D02*
X57950000Y-68650000D01*
X64575000Y-68395000D02*
X64320000Y-68650000D01*
X66775000Y-68395000D02*
X64575000Y-68395000D01*
D34*
X72175000Y-67125000D02*
X74225000Y-67125000D01*
X77810000Y-63540000D02*
X77905000Y-63540000D01*
X74225000Y-67125000D02*
X77810000Y-63540000D01*
X72175000Y-68395000D02*
X74805000Y-68395000D01*
X75315000Y-67885000D02*
X77410000Y-67885000D01*
X74805000Y-68395000D02*
X75315000Y-67885000D01*
X76970000Y-69665000D02*
X77190000Y-69885000D01*
X72175000Y-69665000D02*
X76970000Y-69665000D01*
X56858000Y-116197000D02*
X61430000Y-116197000D01*
X61430000Y-119690000D02*
X60668000Y-120452000D01*
X61430000Y-116197000D02*
X61430000Y-119690000D01*
X124930000Y-80383000D02*
X120358000Y-80383000D01*
X120358000Y-83368000D02*
X121374000Y-84384000D01*
X120358000Y-80383000D02*
X120358000Y-83368000D01*
X131875000Y-132565000D02*
X131700000Y-132740000D01*
X131875000Y-129297501D02*
X131875000Y-132565000D01*
X129125000Y-132705000D02*
X129160000Y-132740000D01*
X129125000Y-129297501D02*
X129125000Y-132705000D01*
X94396000Y-152002000D02*
X92164000Y-154234000D01*
X94396000Y-150641000D02*
X94396000Y-152002000D01*
X91096800Y-152761200D02*
X89624000Y-154234000D01*
X91096800Y-150641000D02*
X91096800Y-152761200D01*
X87490400Y-153827600D02*
X87084000Y-154234000D01*
X87797600Y-153520400D02*
X87084000Y-154234000D01*
X87797600Y-150641000D02*
X87797600Y-153520400D01*
X84137600Y-153827600D02*
X84544000Y-154234000D01*
X84498400Y-154188400D02*
X84544000Y-154234000D01*
X84498400Y-150641000D02*
X84498400Y-154188400D01*
X81199200Y-153429200D02*
X82004000Y-154234000D01*
X81199200Y-150641000D02*
X81199200Y-153429200D01*
X77900000Y-152670000D02*
X79464000Y-154234000D01*
X77900000Y-150641000D02*
X77900000Y-152670000D01*
X104595000Y-70310000D02*
X105060000Y-70775000D01*
X101430000Y-70310000D02*
X104595000Y-70310000D01*
D35*
X144100000Y-83830000D02*
X143760000Y-84170000D01*
X143760000Y-78990000D02*
X144200000Y-78550000D01*
X143760000Y-84170000D02*
X143760000Y-78990000D01*
D34*
X139925000Y-87700000D02*
X139925000Y-86375000D01*
X142130000Y-84170000D02*
X143760000Y-84170000D01*
X139925000Y-86375000D02*
X142130000Y-84170000D01*
X105372000Y-99753000D02*
X105372000Y-85146000D01*
X102750000Y-102375000D02*
X105372000Y-99753000D01*
X102750000Y-104262000D02*
X102750000Y-102375000D01*
X138275000Y-85500000D02*
X138100000Y-85325000D01*
X138275000Y-87700000D02*
X138275000Y-85500000D01*
X138275000Y-91385000D02*
X138100000Y-91560000D01*
X138275000Y-87700000D02*
X138275000Y-91385000D01*
D36*
X93202472Y-101642586D02*
X93288656Y-101687742D01*
X94047732Y-102257048D01*
X94120097Y-102334440D01*
X94161453Y-102431998D01*
X94744283Y-104972540D01*
X94728031Y-104918964D01*
X94700720Y-104867869D01*
X94681417Y-104831754D01*
X94634400Y-104774464D01*
X94634392Y-104774456D01*
X94618684Y-104755316D01*
X94599543Y-104739607D01*
X92622399Y-102762465D01*
X92606684Y-102743316D01*
X92530245Y-102680583D01*
X92443036Y-102633969D01*
X92348409Y-102605264D01*
X92274653Y-102598000D01*
X92274643Y-102598000D01*
X92250000Y-102595573D01*
X92225357Y-102598000D01*
X91994505Y-102598000D01*
X91989981Y-102589537D01*
X91942869Y-102532131D01*
X91885463Y-102485019D01*
X91819970Y-102450012D01*
X91748905Y-102428455D01*
X91675000Y-102421176D01*
X90906123Y-102421176D01*
X90900000Y-102420573D01*
X90893877Y-102421176D01*
X90475000Y-102421176D01*
X90456481Y-102423000D01*
X90021675Y-102423000D01*
X89977061Y-102339533D01*
X89901968Y-102248032D01*
X89810467Y-102172939D01*
X89706073Y-102117139D01*
X89592800Y-102082778D01*
X89475000Y-102071176D01*
X89025000Y-102071176D01*
X88907200Y-102082778D01*
X88793927Y-102117139D01*
X88714728Y-102159472D01*
X88680537Y-102095506D01*
X88601185Y-101998815D01*
X88504494Y-101919463D01*
X88394180Y-101860498D01*
X88274482Y-101824188D01*
X88150000Y-101811928D01*
X87985750Y-101815000D01*
X87827000Y-101973750D01*
X87827000Y-102798000D01*
X87847000Y-102798000D01*
X87847000Y-103052000D01*
X87827000Y-103052000D01*
X87827000Y-104323000D01*
X87847000Y-104323000D01*
X87847000Y-104577000D01*
X87827000Y-104577000D01*
X87827000Y-105401250D01*
X87985750Y-105560000D01*
X88150000Y-105563072D01*
X88274482Y-105550812D01*
X88394180Y-105514502D01*
X88504494Y-105455537D01*
X88601185Y-105376185D01*
X88680537Y-105279494D01*
X88714728Y-105215528D01*
X88793927Y-105257861D01*
X88907200Y-105292222D01*
X89025000Y-105303824D01*
X89475000Y-105303824D01*
X89592800Y-105292222D01*
X89706073Y-105257861D01*
X89810467Y-105202061D01*
X89901968Y-105126968D01*
X89977061Y-105035467D01*
X90021675Y-104952000D01*
X90336663Y-104952000D01*
X90401095Y-104971545D01*
X90475000Y-104978824D01*
X91043890Y-104978824D01*
X92298000Y-106232935D01*
X92298000Y-106250857D01*
X92295573Y-106275500D01*
X92298000Y-106300143D01*
X92298000Y-106300152D01*
X92305175Y-106373000D01*
X86464081Y-106373000D01*
X86369636Y-106357945D01*
X86293621Y-106318926D01*
X86233503Y-106258203D01*
X86195244Y-106181798D01*
X86181135Y-106087214D01*
X86192757Y-104925000D01*
X86611928Y-104925000D01*
X86624188Y-105049482D01*
X86660498Y-105169180D01*
X86719463Y-105279494D01*
X86798815Y-105376185D01*
X86895506Y-105455537D01*
X87005820Y-105514502D01*
X87125518Y-105550812D01*
X87250000Y-105563072D01*
X87414250Y-105560000D01*
X87573000Y-105401250D01*
X87573000Y-104577000D01*
X86773750Y-104577000D01*
X86615000Y-104735750D01*
X86611928Y-104925000D01*
X86192757Y-104925000D01*
X86208007Y-103400000D01*
X86611928Y-103400000D01*
X86624188Y-103524482D01*
X86660498Y-103644180D01*
X86683653Y-103687500D01*
X86660498Y-103730820D01*
X86624188Y-103850518D01*
X86611928Y-103975000D01*
X86615000Y-104164250D01*
X86773750Y-104323000D01*
X87573000Y-104323000D01*
X87573000Y-103052000D01*
X86773750Y-103052000D01*
X86615000Y-103210750D01*
X86611928Y-103400000D01*
X86208007Y-103400000D01*
X86217507Y-102450000D01*
X86611928Y-102450000D01*
X86615000Y-102639250D01*
X86773750Y-102798000D01*
X87573000Y-102798000D01*
X87573000Y-101973750D01*
X87414250Y-101815000D01*
X87250000Y-101811928D01*
X87125518Y-101824188D01*
X87005820Y-101860498D01*
X86895506Y-101919463D01*
X86798815Y-101998815D01*
X86719463Y-102095506D01*
X86660498Y-102205820D01*
X86624188Y-102325518D01*
X86611928Y-102450000D01*
X86217507Y-102450000D01*
X86222935Y-101907201D01*
X86238547Y-101814057D01*
X86277384Y-101739139D01*
X86337354Y-101679765D01*
X86412657Y-101641681D01*
X86505950Y-101627000D01*
X93106430Y-101627000D01*
X93202472Y-101642586D01*
G04 #@! TA.AperFunction,Conductor*
D37*
G36*
X93202472Y-101642586D02*
G01*
X93288656Y-101687742D01*
X94047732Y-102257048D01*
X94120097Y-102334440D01*
X94161453Y-102431998D01*
X94744283Y-104972540D01*
X94728031Y-104918964D01*
X94700720Y-104867869D01*
X94681417Y-104831754D01*
X94634400Y-104774464D01*
X94634392Y-104774456D01*
X94618684Y-104755316D01*
X94599543Y-104739607D01*
X92622399Y-102762465D01*
X92606684Y-102743316D01*
X92530245Y-102680583D01*
X92443036Y-102633969D01*
X92348409Y-102605264D01*
X92274653Y-102598000D01*
X92274643Y-102598000D01*
X92250000Y-102595573D01*
X92225357Y-102598000D01*
X91994505Y-102598000D01*
X91989981Y-102589537D01*
X91942869Y-102532131D01*
X91885463Y-102485019D01*
X91819970Y-102450012D01*
X91748905Y-102428455D01*
X91675000Y-102421176D01*
X90906123Y-102421176D01*
X90900000Y-102420573D01*
X90893877Y-102421176D01*
X90475000Y-102421176D01*
X90456481Y-102423000D01*
X90021675Y-102423000D01*
X89977061Y-102339533D01*
X89901968Y-102248032D01*
X89810467Y-102172939D01*
X89706073Y-102117139D01*
X89592800Y-102082778D01*
X89475000Y-102071176D01*
X89025000Y-102071176D01*
X88907200Y-102082778D01*
X88793927Y-102117139D01*
X88714728Y-102159472D01*
X88680537Y-102095506D01*
X88601185Y-101998815D01*
X88504494Y-101919463D01*
X88394180Y-101860498D01*
X88274482Y-101824188D01*
X88150000Y-101811928D01*
X87985750Y-101815000D01*
X87827000Y-101973750D01*
X87827000Y-102798000D01*
X87847000Y-102798000D01*
X87847000Y-103052000D01*
X87827000Y-103052000D01*
X87827000Y-104323000D01*
X87847000Y-104323000D01*
X87847000Y-104577000D01*
X87827000Y-104577000D01*
X87827000Y-105401250D01*
X87985750Y-105560000D01*
X88150000Y-105563072D01*
X88274482Y-105550812D01*
X88394180Y-105514502D01*
X88504494Y-105455537D01*
X88601185Y-105376185D01*
X88680537Y-105279494D01*
X88714728Y-105215528D01*
X88793927Y-105257861D01*
X88907200Y-105292222D01*
X89025000Y-105303824D01*
X89475000Y-105303824D01*
X89592800Y-105292222D01*
X89706073Y-105257861D01*
X89810467Y-105202061D01*
X89901968Y-105126968D01*
X89977061Y-105035467D01*
X90021675Y-104952000D01*
X90336663Y-104952000D01*
X90401095Y-104971545D01*
X90475000Y-104978824D01*
X91043890Y-104978824D01*
X92298000Y-106232935D01*
X92298000Y-106250857D01*
X92295573Y-106275500D01*
X92298000Y-106300143D01*
X92298000Y-106300152D01*
X92305175Y-106373000D01*
X86464081Y-106373000D01*
X86369636Y-106357945D01*
X86293621Y-106318926D01*
X86233503Y-106258203D01*
X86195244Y-106181798D01*
X86181135Y-106087214D01*
X86192757Y-104925000D01*
X86611928Y-104925000D01*
X86624188Y-105049482D01*
X86660498Y-105169180D01*
X86719463Y-105279494D01*
X86798815Y-105376185D01*
X86895506Y-105455537D01*
X87005820Y-105514502D01*
X87125518Y-105550812D01*
X87250000Y-105563072D01*
X87414250Y-105560000D01*
X87573000Y-105401250D01*
X87573000Y-104577000D01*
X86773750Y-104577000D01*
X86615000Y-104735750D01*
X86611928Y-104925000D01*
X86192757Y-104925000D01*
X86208007Y-103400000D01*
X86611928Y-103400000D01*
X86624188Y-103524482D01*
X86660498Y-103644180D01*
X86683653Y-103687500D01*
X86660498Y-103730820D01*
X86624188Y-103850518D01*
X86611928Y-103975000D01*
X86615000Y-104164250D01*
X86773750Y-104323000D01*
X87573000Y-104323000D01*
X87573000Y-103052000D01*
X86773750Y-103052000D01*
X86615000Y-103210750D01*
X86611928Y-103400000D01*
X86208007Y-103400000D01*
X86217507Y-102450000D01*
X86611928Y-102450000D01*
X86615000Y-102639250D01*
X86773750Y-102798000D01*
X87573000Y-102798000D01*
X87573000Y-101973750D01*
X87414250Y-101815000D01*
X87250000Y-101811928D01*
X87125518Y-101824188D01*
X87005820Y-101860498D01*
X86895506Y-101919463D01*
X86798815Y-101998815D01*
X86719463Y-102095506D01*
X86660498Y-102205820D01*
X86624188Y-102325518D01*
X86611928Y-102450000D01*
X86217507Y-102450000D01*
X86222935Y-101907201D01*
X86238547Y-101814057D01*
X86277384Y-101739139D01*
X86337354Y-101679765D01*
X86412657Y-101641681D01*
X86505950Y-101627000D01*
X93106430Y-101627000D01*
X93202472Y-101642586D01*
G37*
G04 #@! TD.AperFunction*
D36*
X109537835Y-117450080D02*
X109636197Y-117515803D01*
X111584197Y-119463803D01*
X111649920Y-119562165D01*
X111673000Y-119678194D01*
X111673000Y-123290008D01*
X111658134Y-123383871D01*
X111619582Y-123459533D01*
X111559533Y-123519582D01*
X111483871Y-123558134D01*
X111390008Y-123573000D01*
X103609992Y-123573000D01*
X103516129Y-123558134D01*
X103440467Y-123519582D01*
X103380418Y-123459533D01*
X103341866Y-123383871D01*
X103327000Y-123290008D01*
X103327000Y-118986934D01*
X104052603Y-119712538D01*
X104068316Y-119731684D01*
X104087462Y-119747397D01*
X104087464Y-119747399D01*
X104125652Y-119778739D01*
X104144755Y-119794417D01*
X104231964Y-119841031D01*
X104326591Y-119869736D01*
X104400347Y-119877000D01*
X104400357Y-119877000D01*
X104425000Y-119879427D01*
X104449643Y-119877000D01*
X105171176Y-119877000D01*
X105171176Y-120075000D01*
X105178455Y-120148905D01*
X105200012Y-120219970D01*
X105235019Y-120285463D01*
X105282131Y-120342869D01*
X105339537Y-120389981D01*
X105405030Y-120424988D01*
X105476095Y-120446545D01*
X105550000Y-120453824D01*
X106750000Y-120453824D01*
X106823905Y-120446545D01*
X106894970Y-120424988D01*
X106912147Y-120415807D01*
X106919463Y-120429494D01*
X106998815Y-120526185D01*
X107095506Y-120605537D01*
X107156627Y-120638207D01*
X107135019Y-120664537D01*
X107100012Y-120730030D01*
X107100000Y-120730070D01*
X107099988Y-120730030D01*
X107064981Y-120664537D01*
X107017869Y-120607131D01*
X106960463Y-120560019D01*
X106894970Y-120525012D01*
X106823905Y-120503455D01*
X106750000Y-120496176D01*
X105550000Y-120496176D01*
X105476095Y-120503455D01*
X105405030Y-120525012D01*
X105339537Y-120560019D01*
X105282131Y-120607131D01*
X105235019Y-120664537D01*
X105200012Y-120730030D01*
X105178455Y-120801095D01*
X105171176Y-120875000D01*
X105171176Y-122275000D01*
X105178455Y-122348905D01*
X105200012Y-122419970D01*
X105235019Y-122485463D01*
X105282131Y-122542869D01*
X105339537Y-122589981D01*
X105405030Y-122624988D01*
X105476095Y-122646545D01*
X105550000Y-122653824D01*
X106750000Y-122653824D01*
X106823905Y-122646545D01*
X106894970Y-122624988D01*
X106960463Y-122589981D01*
X107017869Y-122542869D01*
X107064981Y-122485463D01*
X107099988Y-122419970D01*
X107100000Y-122419930D01*
X107100012Y-122419970D01*
X107135019Y-122485463D01*
X107182131Y-122542869D01*
X107239537Y-122589981D01*
X107305030Y-122624988D01*
X107376095Y-122646545D01*
X107450000Y-122653824D01*
X108650000Y-122653824D01*
X108723905Y-122646545D01*
X108794970Y-122624988D01*
X108860463Y-122589981D01*
X108917869Y-122542869D01*
X108964981Y-122485463D01*
X108999988Y-122419970D01*
X109021545Y-122348905D01*
X109028824Y-122275000D01*
X109028824Y-122077000D01*
X109130357Y-122077000D01*
X109155000Y-122079427D01*
X109179643Y-122077000D01*
X109179653Y-122077000D01*
X109253409Y-122069736D01*
X109348036Y-122041031D01*
X109435245Y-121994417D01*
X109511684Y-121931684D01*
X109527401Y-121912533D01*
X109776111Y-121663824D01*
X109895000Y-121663824D01*
X109996218Y-121653855D01*
X110028650Y-121644017D01*
X110050050Y-121695680D01*
X110124140Y-121806563D01*
X110218437Y-121900860D01*
X110329320Y-121974950D01*
X110452526Y-122025984D01*
X110583321Y-122052000D01*
X110716679Y-122052000D01*
X110847474Y-122025984D01*
X110970680Y-121974950D01*
X111081563Y-121900860D01*
X111175860Y-121806563D01*
X111249950Y-121695680D01*
X111300984Y-121572474D01*
X111327000Y-121441679D01*
X111327000Y-121308321D01*
X111300984Y-121177526D01*
X111249950Y-121054320D01*
X111175860Y-120943437D01*
X111081563Y-120849140D01*
X110970680Y-120775050D01*
X110847474Y-120724016D01*
X110716679Y-120698000D01*
X110682934Y-120698000D01*
X110652401Y-120667467D01*
X110636684Y-120648316D01*
X110598849Y-120617265D01*
X110623377Y-120571878D01*
X110660235Y-120452348D01*
X110670000Y-120330750D01*
X110511250Y-120172000D01*
X109852000Y-120172000D01*
X109852000Y-120192000D01*
X109598000Y-120192000D01*
X109598000Y-120172000D01*
X109578000Y-120172000D01*
X109578000Y-119918000D01*
X109598000Y-119918000D01*
X109598000Y-119288750D01*
X109852000Y-119288750D01*
X109852000Y-119918000D01*
X110511250Y-119918000D01*
X110670000Y-119759250D01*
X110660235Y-119637652D01*
X110623377Y-119518122D01*
X110563908Y-119408079D01*
X110484113Y-119311753D01*
X110387059Y-119232844D01*
X110276476Y-119174386D01*
X110156613Y-119138625D01*
X110032077Y-119126935D01*
X110010750Y-119130000D01*
X109852000Y-119288750D01*
X109598000Y-119288750D01*
X109439250Y-119130000D01*
X109417923Y-119126935D01*
X109293387Y-119138625D01*
X109211064Y-119163186D01*
X109285000Y-119089250D01*
X109288072Y-118675000D01*
X109275812Y-118550518D01*
X109239502Y-118430820D01*
X109180537Y-118320506D01*
X109101185Y-118223815D01*
X109004494Y-118144463D01*
X108894180Y-118085498D01*
X108774482Y-118049188D01*
X108650000Y-118036928D01*
X108335750Y-118040000D01*
X108177000Y-118198750D01*
X108177000Y-119248000D01*
X108197000Y-119248000D01*
X108197000Y-119502000D01*
X108177000Y-119502000D01*
X108177000Y-119522000D01*
X107923000Y-119522000D01*
X107923000Y-119502000D01*
X107903000Y-119502000D01*
X107903000Y-119248000D01*
X107923000Y-119248000D01*
X107923000Y-118198750D01*
X107764250Y-118040000D01*
X107450000Y-118036928D01*
X107325518Y-118049188D01*
X107205820Y-118085498D01*
X107095506Y-118144463D01*
X106998815Y-118223815D01*
X106919463Y-118320506D01*
X106912147Y-118334193D01*
X106894970Y-118325012D01*
X106823905Y-118303455D01*
X106750000Y-118296176D01*
X105550000Y-118296176D01*
X105476095Y-118303455D01*
X105405030Y-118325012D01*
X105339537Y-118360019D01*
X105282131Y-118407131D01*
X105235019Y-118464537D01*
X105200012Y-118530030D01*
X105178455Y-118601095D01*
X105171176Y-118675000D01*
X105171176Y-118873000D01*
X104632935Y-118873000D01*
X103752000Y-117992066D01*
X103752000Y-117427000D01*
X109421806Y-117427000D01*
X109537835Y-117450080D01*
G04 #@! TA.AperFunction,Conductor*
D37*
G36*
X109537835Y-117450080D02*
G01*
X109636197Y-117515803D01*
X111584197Y-119463803D01*
X111649920Y-119562165D01*
X111673000Y-119678194D01*
X111673000Y-123290008D01*
X111658134Y-123383871D01*
X111619582Y-123459533D01*
X111559533Y-123519582D01*
X111483871Y-123558134D01*
X111390008Y-123573000D01*
X103609992Y-123573000D01*
X103516129Y-123558134D01*
X103440467Y-123519582D01*
X103380418Y-123459533D01*
X103341866Y-123383871D01*
X103327000Y-123290008D01*
X103327000Y-118986934D01*
X104052603Y-119712538D01*
X104068316Y-119731684D01*
X104087462Y-119747397D01*
X104087464Y-119747399D01*
X104125652Y-119778739D01*
X104144755Y-119794417D01*
X104231964Y-119841031D01*
X104326591Y-119869736D01*
X104400347Y-119877000D01*
X104400357Y-119877000D01*
X104425000Y-119879427D01*
X104449643Y-119877000D01*
X105171176Y-119877000D01*
X105171176Y-120075000D01*
X105178455Y-120148905D01*
X105200012Y-120219970D01*
X105235019Y-120285463D01*
X105282131Y-120342869D01*
X105339537Y-120389981D01*
X105405030Y-120424988D01*
X105476095Y-120446545D01*
X105550000Y-120453824D01*
X106750000Y-120453824D01*
X106823905Y-120446545D01*
X106894970Y-120424988D01*
X106912147Y-120415807D01*
X106919463Y-120429494D01*
X106998815Y-120526185D01*
X107095506Y-120605537D01*
X107156627Y-120638207D01*
X107135019Y-120664537D01*
X107100012Y-120730030D01*
X107100000Y-120730070D01*
X107099988Y-120730030D01*
X107064981Y-120664537D01*
X107017869Y-120607131D01*
X106960463Y-120560019D01*
X106894970Y-120525012D01*
X106823905Y-120503455D01*
X106750000Y-120496176D01*
X105550000Y-120496176D01*
X105476095Y-120503455D01*
X105405030Y-120525012D01*
X105339537Y-120560019D01*
X105282131Y-120607131D01*
X105235019Y-120664537D01*
X105200012Y-120730030D01*
X105178455Y-120801095D01*
X105171176Y-120875000D01*
X105171176Y-122275000D01*
X105178455Y-122348905D01*
X105200012Y-122419970D01*
X105235019Y-122485463D01*
X105282131Y-122542869D01*
X105339537Y-122589981D01*
X105405030Y-122624988D01*
X105476095Y-122646545D01*
X105550000Y-122653824D01*
X106750000Y-122653824D01*
X106823905Y-122646545D01*
X106894970Y-122624988D01*
X106960463Y-122589981D01*
X107017869Y-122542869D01*
X107064981Y-122485463D01*
X107099988Y-122419970D01*
X107100000Y-122419930D01*
X107100012Y-122419970D01*
X107135019Y-122485463D01*
X107182131Y-122542869D01*
X107239537Y-122589981D01*
X107305030Y-122624988D01*
X107376095Y-122646545D01*
X107450000Y-122653824D01*
X108650000Y-122653824D01*
X108723905Y-122646545D01*
X108794970Y-122624988D01*
X108860463Y-122589981D01*
X108917869Y-122542869D01*
X108964981Y-122485463D01*
X108999988Y-122419970D01*
X109021545Y-122348905D01*
X109028824Y-122275000D01*
X109028824Y-122077000D01*
X109130357Y-122077000D01*
X109155000Y-122079427D01*
X109179643Y-122077000D01*
X109179653Y-122077000D01*
X109253409Y-122069736D01*
X109348036Y-122041031D01*
X109435245Y-121994417D01*
X109511684Y-121931684D01*
X109527401Y-121912533D01*
X109776111Y-121663824D01*
X109895000Y-121663824D01*
X109996218Y-121653855D01*
X110028650Y-121644017D01*
X110050050Y-121695680D01*
X110124140Y-121806563D01*
X110218437Y-121900860D01*
X110329320Y-121974950D01*
X110452526Y-122025984D01*
X110583321Y-122052000D01*
X110716679Y-122052000D01*
X110847474Y-122025984D01*
X110970680Y-121974950D01*
X111081563Y-121900860D01*
X111175860Y-121806563D01*
X111249950Y-121695680D01*
X111300984Y-121572474D01*
X111327000Y-121441679D01*
X111327000Y-121308321D01*
X111300984Y-121177526D01*
X111249950Y-121054320D01*
X111175860Y-120943437D01*
X111081563Y-120849140D01*
X110970680Y-120775050D01*
X110847474Y-120724016D01*
X110716679Y-120698000D01*
X110682934Y-120698000D01*
X110652401Y-120667467D01*
X110636684Y-120648316D01*
X110598849Y-120617265D01*
X110623377Y-120571878D01*
X110660235Y-120452348D01*
X110670000Y-120330750D01*
X110511250Y-120172000D01*
X109852000Y-120172000D01*
X109852000Y-120192000D01*
X109598000Y-120192000D01*
X109598000Y-120172000D01*
X109578000Y-120172000D01*
X109578000Y-119918000D01*
X109598000Y-119918000D01*
X109598000Y-119288750D01*
X109852000Y-119288750D01*
X109852000Y-119918000D01*
X110511250Y-119918000D01*
X110670000Y-119759250D01*
X110660235Y-119637652D01*
X110623377Y-119518122D01*
X110563908Y-119408079D01*
X110484113Y-119311753D01*
X110387059Y-119232844D01*
X110276476Y-119174386D01*
X110156613Y-119138625D01*
X110032077Y-119126935D01*
X110010750Y-119130000D01*
X109852000Y-119288750D01*
X109598000Y-119288750D01*
X109439250Y-119130000D01*
X109417923Y-119126935D01*
X109293387Y-119138625D01*
X109211064Y-119163186D01*
X109285000Y-119089250D01*
X109288072Y-118675000D01*
X109275812Y-118550518D01*
X109239502Y-118430820D01*
X109180537Y-118320506D01*
X109101185Y-118223815D01*
X109004494Y-118144463D01*
X108894180Y-118085498D01*
X108774482Y-118049188D01*
X108650000Y-118036928D01*
X108335750Y-118040000D01*
X108177000Y-118198750D01*
X108177000Y-119248000D01*
X108197000Y-119248000D01*
X108197000Y-119502000D01*
X108177000Y-119502000D01*
X108177000Y-119522000D01*
X107923000Y-119522000D01*
X107923000Y-119502000D01*
X107903000Y-119502000D01*
X107903000Y-119248000D01*
X107923000Y-119248000D01*
X107923000Y-118198750D01*
X107764250Y-118040000D01*
X107450000Y-118036928D01*
X107325518Y-118049188D01*
X107205820Y-118085498D01*
X107095506Y-118144463D01*
X106998815Y-118223815D01*
X106919463Y-118320506D01*
X106912147Y-118334193D01*
X106894970Y-118325012D01*
X106823905Y-118303455D01*
X106750000Y-118296176D01*
X105550000Y-118296176D01*
X105476095Y-118303455D01*
X105405030Y-118325012D01*
X105339537Y-118360019D01*
X105282131Y-118407131D01*
X105235019Y-118464537D01*
X105200012Y-118530030D01*
X105178455Y-118601095D01*
X105171176Y-118675000D01*
X105171176Y-118873000D01*
X104632935Y-118873000D01*
X103752000Y-117992066D01*
X103752000Y-117427000D01*
X109421806Y-117427000D01*
X109537835Y-117450080D01*
G37*
G04 #@! TD.AperFunction*
M02*
