M48
; DRILL file {KiCad (5.1.10)-1} date 11/18/21 19:13:31
; FORMAT={-:-/ absolute / metric / decimal}
; #@! TF.CreationDate,2021-11-18T19:13:31-07:00
; #@! TF.GenerationSoftware,Kicad,Pcbnew,(5.1.10)-1
; #@! TF.FileFunction,Plated,1,4,PTH
FMAT,2
METRIC
T1C0.300
T2C0.800
T3C0.990
T4C1.000
%
G90
G05
T1
X52.45Y-73.85
X56.725Y-149.475
X57.95Y-72.17
X57.95Y-73.79
X61.225Y-65.025
X61.4Y-144.5
X62.0Y-136.75
X65.185Y-137.815
X65.21Y-71.05
X65.345Y-66.855
X68.97Y-68.94
X69.17Y-111.875
X70.307Y-64.585
X72.875Y-149.525
X73.662Y-71.417
X74.56Y-75.09
X77.54Y-115.7
X79.972Y-79.05
X80.5Y-68.85
X80.73Y-63.54
X85.25Y-124.75
X85.3Y-127.1
X85.4Y-133.5
X86.4Y-102.925
X86.5Y-109.475
X86.9Y-130.4
X87.3Y-125.8
X87.5Y-123.75
X87.6Y-131.8
X89.9Y-106.0
X91.84Y-125.74
X92.7Y-102.1
X93.125Y-124.775
X94.38Y-131.82
X95.675Y-130.375
X95.83Y-109.25
X96.92Y-127.12
X97.498Y-114.102
X98.525Y-119.5
X98.75Y-114.22
X99.0Y-123.75
X100.038Y-105.974
X100.3Y-100.14
X101.25Y-105.87
X101.562Y-95.306
X103.086Y-99.37
X104.6Y-122.7
X104.7Y-117.9
X105.372Y-85.146
X106.875Y-114.45
X108.395Y-106.48
X108.6Y-105.2
X109.11Y-113.73
X110.198Y-92.258
X110.65Y-121.375
X111.3Y-120.045
X115.024Y-74.732
X122.136Y-75.24
X125.03Y-66.97
X133.95Y-63.65
X134.23Y-155.81
X134.94Y-142.03
X137.67Y-136.83
X138.6Y-82.6
X141.1Y-134.14
X141.1Y-135.24
X142.565Y-138.925
X143.79Y-89.21
X145.675Y-138.925
X147.0Y-81.0
X147.05Y-77.2
X147.05Y-73.5
X147.3Y-138.925
T3
X54.025Y-87.27
X54.025Y-91.77
X60.525Y-87.27
X60.525Y-91.77
X74.31Y-87.27
X74.31Y-91.77
X80.81Y-87.27
X80.81Y-91.77
T4
X58.128Y-120.452
X60.668Y-120.452
X71.0Y-103.0
X71.0Y-105.54
X71.0Y-108.08
X71.0Y-110.62
X71.0Y-113.16
X71.0Y-115.7
X71.0Y-118.24
X73.54Y-103.0
X73.54Y-105.54
X73.54Y-108.08
X73.54Y-110.62
X73.54Y-113.16
X73.54Y-115.7
X73.54Y-118.24
X79.464Y-154.234
X79.464Y-156.774
X82.004Y-154.234
X82.004Y-156.774
X84.544Y-154.234
X84.544Y-156.774
X87.084Y-154.234
X87.084Y-156.774
X89.3Y-135.46
X89.3Y-138.0
X89.624Y-154.234
X89.624Y-156.774
X91.84Y-135.46
X91.84Y-138.0
X92.164Y-154.234
X92.164Y-156.774
X94.0Y-65.0
X94.185Y-80.15
X94.185Y-82.69
X94.38Y-135.46
X94.38Y-138.0
X96.54Y-65.0
X96.725Y-80.15
X96.725Y-82.69
X96.92Y-135.46
X96.92Y-138.0
X98.89Y-70.31
X99.08Y-65.0
X99.265Y-80.15
X99.265Y-82.69
X99.46Y-135.46
X99.46Y-138.0
X101.43Y-70.31
X101.62Y-65.0
X101.805Y-80.15
X101.805Y-82.69
X102.0Y-135.46
X102.0Y-138.0
X104.16Y-65.0
X104.345Y-80.15
X104.345Y-82.69
X104.54Y-135.46
X104.54Y-138.0
X106.7Y-65.0
X106.885Y-80.15
X106.885Y-82.69
X107.08Y-135.46
X107.08Y-138.0
X109.24Y-65.0
X109.425Y-80.15
X109.425Y-82.69
X111.78Y-65.0
X121.374Y-84.384
X123.914Y-84.384
X128.26Y-146.53
X128.26Y-149.07
X128.26Y-151.61
X129.16Y-132.74
X129.16Y-135.28
X129.46Y-104.3
X129.46Y-106.84
X129.46Y-109.38
X129.46Y-111.92
X129.46Y-114.46
X129.46Y-117.0
X129.46Y-123.23
X129.46Y-125.77
X130.8Y-146.53
X130.8Y-149.07
X130.8Y-151.61
X131.7Y-132.74
X131.7Y-135.28
X132.0Y-104.3
X132.0Y-106.84
X132.0Y-109.38
X132.0Y-111.92
X132.0Y-114.46
X132.0Y-117.0
X132.0Y-123.23
X132.0Y-125.77
X138.1Y-91.56
X138.1Y-94.1
T2
X141.125Y-145.3G85X143.725Y-145.3
G05
X141.325Y-151.1G85X143.525Y-151.1
G05
X147.225Y-149.4G85X147.225Y-147.2
G05
T0
M30
