G04 #@! TF.GenerationSoftware,KiCad,Pcbnew,(5.1.10)-1*
G04 #@! TF.CreationDate,2021-11-18T19:13:28-07:00*
G04 #@! TF.ProjectId,ATSAME51Demo,41545341-4d45-4353-9144-656d6f2e6b69,1.0*
G04 #@! TF.SameCoordinates,Original*
G04 #@! TF.FileFunction,Copper,L4,Bot*
G04 #@! TF.FilePolarity,Positive*
%FSLAX46Y46*%
G04 Gerber Fmt 4.6, Leading zero omitted, Abs format (unit mm)*
G04 Created by KiCad (PCBNEW (5.1.10)-1) date 2021-11-18 19:13:28*
%MOMM*%
%LPD*%
G01*
G04 APERTURE LIST*
G04 #@! TA.AperFunction,ComponentPad*
%ADD10O,1.700000X1.700000*%
G04 #@! TD*
G04 #@! TA.AperFunction,ComponentPad*
%ADD11R,1.700000X1.700000*%
G04 #@! TD*
G04 #@! TA.AperFunction,ComponentPad*
%ADD12C,1.540000*%
G04 #@! TD*
G04 #@! TA.AperFunction,ComponentPad*
%ADD13R,4.400000X1.800000*%
G04 #@! TD*
G04 #@! TA.AperFunction,ComponentPad*
%ADD14O,4.000000X1.800000*%
G04 #@! TD*
G04 #@! TA.AperFunction,ComponentPad*
%ADD15O,1.800000X4.000000*%
G04 #@! TD*
G04 #@! TA.AperFunction,ViaPad*
%ADD16C,0.600000*%
G04 #@! TD*
G04 #@! TA.AperFunction,Conductor*
%ADD17C,0.400000*%
G04 #@! TD*
G04 #@! TA.AperFunction,Conductor*
%ADD18C,0.250000*%
G04 #@! TD*
G04 APERTURE END LIST*
D10*
X138100000Y-91560000D03*
D11*
X138100000Y-94100000D03*
D10*
X92164000Y-154234000D03*
X92164000Y-156774000D03*
X89624000Y-154234000D03*
X89624000Y-156774000D03*
X87084000Y-154234000D03*
X87084000Y-156774000D03*
X84544000Y-154234000D03*
X84544000Y-156774000D03*
X82004000Y-154234000D03*
X82004000Y-156774000D03*
X79464000Y-154234000D03*
D11*
X79464000Y-156774000D03*
D10*
X94185000Y-82690000D03*
X94185000Y-80150000D03*
X96725000Y-82690000D03*
X96725000Y-80150000D03*
X99265000Y-82690000D03*
X99265000Y-80150000D03*
X101805000Y-82690000D03*
X101805000Y-80150000D03*
X104345000Y-82690000D03*
X104345000Y-80150000D03*
X106885000Y-82690000D03*
X106885000Y-80150000D03*
X109425000Y-82690000D03*
D11*
X109425000Y-80150000D03*
D12*
X74310000Y-87270000D03*
X80810000Y-87270000D03*
X74310000Y-91770000D03*
X80810000Y-91770000D03*
X54025000Y-87270000D03*
X60525000Y-87270000D03*
X54025000Y-91770000D03*
X60525000Y-91770000D03*
D10*
X129460000Y-104300000D03*
X132000000Y-104300000D03*
X129460000Y-106840000D03*
X132000000Y-106840000D03*
X129460000Y-109380000D03*
X132000000Y-109380000D03*
X129460000Y-111920000D03*
X132000000Y-111920000D03*
X129460000Y-114460000D03*
X132000000Y-114460000D03*
X129460000Y-117000000D03*
D11*
X132000000Y-117000000D03*
D10*
X107080000Y-135460000D03*
X107080000Y-138000000D03*
X104540000Y-135460000D03*
X104540000Y-138000000D03*
X102000000Y-135460000D03*
X102000000Y-138000000D03*
X99460000Y-135460000D03*
X99460000Y-138000000D03*
X96920000Y-135460000D03*
X96920000Y-138000000D03*
X94380000Y-135460000D03*
X94380000Y-138000000D03*
X91840000Y-135460000D03*
X91840000Y-138000000D03*
X89300000Y-135460000D03*
D11*
X89300000Y-138000000D03*
D10*
X111780000Y-65000000D03*
X109240000Y-65000000D03*
X106700000Y-65000000D03*
X104160000Y-65000000D03*
X101620000Y-65000000D03*
X99080000Y-65000000D03*
X96540000Y-65000000D03*
D11*
X94000000Y-65000000D03*
D10*
X98890000Y-70310000D03*
D11*
X101430000Y-70310000D03*
D10*
X73540000Y-118240000D03*
X71000000Y-118240000D03*
X73540000Y-115700000D03*
X71000000Y-115700000D03*
X73540000Y-113160000D03*
X71000000Y-113160000D03*
X73540000Y-110620000D03*
X71000000Y-110620000D03*
X73540000Y-108080000D03*
X71000000Y-108080000D03*
X73540000Y-105540000D03*
X71000000Y-105540000D03*
X73540000Y-103000000D03*
D11*
X71000000Y-103000000D03*
D10*
X131700000Y-132740000D03*
X131700000Y-135280000D03*
X129160000Y-132740000D03*
D11*
X129160000Y-135280000D03*
D10*
X132000000Y-125770000D03*
X129460000Y-125770000D03*
X132000000Y-123230000D03*
D11*
X129460000Y-123230000D03*
D10*
X123914000Y-84384000D03*
D11*
X121374000Y-84384000D03*
D10*
X60668000Y-120452000D03*
D11*
X58128000Y-120452000D03*
D10*
X130800000Y-151610000D03*
X128260000Y-151610000D03*
X130800000Y-149070000D03*
X128260000Y-149070000D03*
X130800000Y-146530000D03*
D11*
X128260000Y-146530000D03*
D13*
X142425000Y-145300000D03*
D14*
X142425000Y-151100000D03*
D15*
X147225000Y-148300000D03*
D16*
X104600000Y-122700000D03*
X98525000Y-119500000D03*
X106875000Y-114450000D03*
X108395000Y-106480000D03*
X101250000Y-105870000D03*
X141100000Y-135240000D03*
X137670000Y-136830000D03*
X134230000Y-155810000D03*
X141100000Y-134140000D03*
X147000000Y-81000000D03*
X125030000Y-66970000D03*
X95830000Y-109250000D03*
X98750000Y-114220000D03*
X134940000Y-142030000D03*
X57950000Y-72170000D03*
X52450000Y-73850000D03*
X57950000Y-73790000D03*
X65210000Y-71050000D03*
X74560000Y-75090000D03*
X100300000Y-100140000D03*
X101562000Y-95306000D03*
X147050084Y-73500000D03*
X92700000Y-102100000D03*
X89900000Y-106000000D03*
X86400000Y-102925000D03*
X111300000Y-120045000D03*
X104700000Y-117900000D03*
X61225000Y-65025000D03*
X147050000Y-77200000D03*
X65185000Y-137815000D03*
X56725000Y-149475000D03*
X61400000Y-144500000D03*
X72875000Y-149525000D03*
X138600000Y-82600000D03*
X110650000Y-121375000D03*
X86500000Y-109475000D03*
X142565000Y-138925000D03*
X145674994Y-138925000D03*
X147300000Y-138925000D03*
X109110000Y-113730000D03*
X108600000Y-105200000D03*
X133950000Y-63650000D03*
X80500000Y-68850000D03*
X80730000Y-63540000D03*
X73662500Y-71417500D03*
X65345000Y-66855000D03*
X100038000Y-105974000D03*
X97498000Y-114102000D03*
X62000000Y-136750000D03*
X79972000Y-79050000D03*
X143790000Y-89210000D03*
X69170001Y-111875000D03*
X115023998Y-74732002D03*
X122136000Y-75240000D03*
X103086000Y-99370000D03*
X110198000Y-92258000D03*
X99000000Y-123750000D03*
X87500000Y-123750000D03*
X96920000Y-127120000D03*
X85300000Y-127100000D03*
X95675000Y-130375000D03*
X86900000Y-130400000D03*
X87600000Y-131800000D03*
X94380000Y-131819990D03*
X93125000Y-124775004D03*
X85250000Y-124750000D03*
X91840000Y-125740000D03*
X85400000Y-133500000D03*
X87300000Y-125800000D03*
X77540000Y-115700000D03*
X70307000Y-64585000D03*
X68970000Y-68940000D03*
X105372000Y-85146000D03*
D17*
X91656000Y-89210000D02*
X143790000Y-89210000D01*
X81496000Y-79050000D02*
X91656000Y-89210000D01*
X81496000Y-79050000D02*
X79972000Y-79050000D01*
D18*
X72285000Y-111875000D02*
X69170001Y-111875000D01*
X73540000Y-110620000D02*
X72285000Y-111875000D01*
X94185000Y-80150000D02*
X99602998Y-74732002D01*
X99602998Y-74732002D02*
X115023998Y-74732002D01*
X122136000Y-75240000D02*
X120612000Y-76764000D01*
X102651000Y-76764000D02*
X99265000Y-80150000D01*
X120612000Y-76764000D02*
X102651000Y-76764000D01*
X103086000Y-99370000D02*
X110198000Y-92258000D01*
X138100000Y-94100000D02*
X138100000Y-103700000D01*
X138100000Y-103700000D02*
X133700000Y-108100000D01*
X130740000Y-108100000D02*
X129460000Y-109380000D01*
X133700000Y-108100000D02*
X130740000Y-108100000D01*
X127500000Y-116420000D02*
X129460000Y-114460000D01*
X127500000Y-124300000D02*
X127500000Y-116420000D01*
X128970000Y-125770000D02*
X127500000Y-124300000D01*
X129460000Y-125770000D02*
X128970000Y-125770000D01*
X87500000Y-123750000D02*
X99000000Y-123750000D01*
X96900000Y-127100000D02*
X96920000Y-127120000D01*
X85300000Y-127100000D02*
X96900000Y-127100000D01*
X95650000Y-130400000D02*
X95675000Y-130375000D01*
X86900000Y-130400000D02*
X95650000Y-130400000D01*
X87600000Y-131800000D02*
X94360010Y-131800000D01*
X93099996Y-124750000D02*
X93125000Y-124775004D01*
X85250000Y-124750000D02*
X93099996Y-124750000D01*
X91840000Y-134340000D02*
X91840000Y-135460000D01*
X91000000Y-133500000D02*
X91840000Y-134340000D01*
X85400000Y-133500000D02*
X91000000Y-133500000D01*
X87300000Y-125800000D02*
X91780000Y-125800000D01*
X70320000Y-64598000D02*
X70307000Y-64585000D01*
X70320000Y-74224000D02*
X70320000Y-64598000D01*
X77620000Y-81524000D02*
X70320000Y-74224000D01*
X77620000Y-115620000D02*
X77620000Y-81524000D01*
X77540000Y-115700000D02*
X77620000Y-115620000D01*
X68970000Y-68940000D02*
X68120000Y-69790000D01*
X68120000Y-69790000D02*
X68120000Y-114400000D01*
X69420000Y-115700000D02*
X71000000Y-115700000D01*
X68120000Y-114400000D02*
X69420000Y-115700000D01*
X74310000Y-91770000D02*
X74310000Y-99296000D01*
X74310000Y-99296000D02*
X75908000Y-100894000D01*
X75908000Y-105712000D02*
X73540000Y-108080000D01*
X75908000Y-100894000D02*
X75908000Y-105712000D01*
X105671999Y-81476999D02*
X104345000Y-80150000D01*
X105671999Y-84846001D02*
X105671999Y-81476999D01*
X105372000Y-85146000D02*
X105671999Y-84846001D01*
M02*
