%FSLAX45Y45*%
G04 Gerber Fmt 4.5, Leading zero omitted, Abs format (unit mm)*
G04 Created by KiCad (PCBNEW (5.1.10)-1) date 2021-11-18 19:13:32*
%MOMM*%
%LPD*%
G01*
G04 APERTURE LIST*
%TA.AperFunction,Profile*%
%ADD10C,0.050000*%
%TD*%
%ADD11C,0.200000*%
%ADD12C,0.300000*%
G04 APERTURE END LIST*
D10*
X5350000Y-16000000D02*
X5750000Y-16000000D01*
X5900000Y-15850000D02*
X5750000Y-16000000D01*
X6850000Y-15850000D02*
X5900000Y-15850000D01*
X7000000Y-16000000D02*
X6850000Y-15850000D01*
X15000000Y-6350000D02*
X15000000Y-7150000D01*
X14850000Y-8150000D02*
X14850000Y-7300000D01*
X15000000Y-8300000D02*
G75*
G02*
X14850000Y-8150000I0J150000D01*
G01*
X14850000Y-7300000D02*
G75*
G02*
X15000000Y-7150000I150000J0D01*
G01*
X5000000Y-6350000D02*
G75*
G02*
X5350000Y-6000000I350000J0D01*
G01*
X5350000Y-16000000D02*
G75*
G02*
X5000000Y-15650000I0J350000D01*
G01*
X15000000Y-15650000D02*
G75*
G02*
X14650000Y-16000000I-350000J0D01*
G01*
X14650000Y-6000000D02*
G75*
G02*
X15000000Y-6350000I0J-350000D01*
G01*
X5000000Y-6350000D02*
X5000000Y-15650000D01*
X14650000Y-6000000D02*
X5350000Y-6000000D01*
X15000000Y-15650000D02*
X15000000Y-8300000D01*
X7000000Y-16000000D02*
X14650000Y-16000000D01*
D11*
X5230000Y-7370000D02*
X5260000Y-7400000D01*
X5260000Y-7370000D02*
X5230000Y-7400000D01*
X5657500Y-14932500D02*
X5687500Y-14962500D01*
X5687500Y-14932500D02*
X5657500Y-14962500D01*
X5780000Y-7202000D02*
X5810000Y-7232000D01*
X5810000Y-7202000D02*
X5780000Y-7232000D01*
X5780000Y-7364000D02*
X5810000Y-7394000D01*
X5810000Y-7364000D02*
X5780000Y-7394000D01*
X6107500Y-6487500D02*
X6137500Y-6517500D01*
X6137500Y-6487500D02*
X6107500Y-6517500D01*
X6125000Y-14435000D02*
X6155000Y-14465000D01*
X6155000Y-14435000D02*
X6125000Y-14465000D01*
X6185000Y-13660000D02*
X6215000Y-13690000D01*
X6215000Y-13660000D02*
X6185000Y-13690000D01*
X6503500Y-13766500D02*
X6533500Y-13796500D01*
X6533500Y-13766500D02*
X6503500Y-13796500D01*
X6506000Y-7090000D02*
X6536000Y-7120000D01*
X6536000Y-7090000D02*
X6506000Y-7120000D01*
X6519500Y-6670500D02*
X6549500Y-6700500D01*
X6549500Y-6670500D02*
X6519500Y-6700500D01*
X6882000Y-6879000D02*
X6912000Y-6909000D01*
X6912000Y-6879000D02*
X6882000Y-6909000D01*
X6902000Y-11172500D02*
X6932000Y-11202500D01*
X6932000Y-11172500D02*
X6902000Y-11202500D01*
X7015700Y-6443500D02*
X7045700Y-6473500D01*
X7045700Y-6443500D02*
X7015700Y-6473500D01*
X7272500Y-14937500D02*
X7302500Y-14967500D01*
X7302500Y-14937500D02*
X7272500Y-14967500D01*
X7351250Y-7126750D02*
X7381250Y-7156750D01*
X7381250Y-7126750D02*
X7351250Y-7156750D01*
X7441000Y-7494000D02*
X7471000Y-7524000D01*
X7471000Y-7494000D02*
X7441000Y-7524000D01*
X7739000Y-11555000D02*
X7769000Y-11585000D01*
X7769000Y-11555000D02*
X7739000Y-11585000D01*
X7982200Y-7890000D02*
X8012200Y-7920000D01*
X8012200Y-7890000D02*
X7982200Y-7920000D01*
X8035000Y-6870000D02*
X8065000Y-6900000D01*
X8065000Y-6870000D02*
X8035000Y-6900000D01*
X8058000Y-6339000D02*
X8088000Y-6369000D01*
X8088000Y-6339000D02*
X8058000Y-6369000D01*
X8510000Y-12460000D02*
X8540000Y-12490000D01*
X8540000Y-12460000D02*
X8510000Y-12490000D01*
X8515000Y-12695000D02*
X8545000Y-12725000D01*
X8545000Y-12695000D02*
X8515000Y-12725000D01*
X8525000Y-13335000D02*
X8555000Y-13365000D01*
X8555000Y-13335000D02*
X8525000Y-13365000D01*
X8625000Y-10277500D02*
X8655000Y-10307500D01*
X8655000Y-10277500D02*
X8625000Y-10307500D01*
X8635000Y-10932500D02*
X8665000Y-10962500D01*
X8665000Y-10932500D02*
X8635000Y-10962500D01*
X8675000Y-13025000D02*
X8705000Y-13055000D01*
X8705000Y-13025000D02*
X8675000Y-13055000D01*
X8715000Y-12565000D02*
X8745000Y-12595000D01*
X8745000Y-12565000D02*
X8715000Y-12595000D01*
X8735000Y-12360000D02*
X8765000Y-12390000D01*
X8765000Y-12360000D02*
X8735000Y-12390000D01*
X8745000Y-13165000D02*
X8775000Y-13195000D01*
X8775000Y-13165000D02*
X8745000Y-13195000D01*
X8975000Y-10585000D02*
X9005000Y-10615000D01*
X9005000Y-10585000D02*
X8975000Y-10615000D01*
X9169000Y-12559000D02*
X9199000Y-12589000D01*
X9199000Y-12559000D02*
X9169000Y-12589000D01*
X9255000Y-10195000D02*
X9285000Y-10225000D01*
X9285000Y-10195000D02*
X9255000Y-10225000D01*
X9297500Y-12462500D02*
X9327500Y-12492500D01*
X9327500Y-12462500D02*
X9297500Y-12492500D01*
X9423000Y-13166999D02*
X9453000Y-13196999D01*
X9453000Y-13166999D02*
X9423000Y-13196999D01*
X9552500Y-13022500D02*
X9582500Y-13052500D01*
X9582500Y-13022500D02*
X9552500Y-13052500D01*
X9568000Y-10910000D02*
X9598000Y-10940000D01*
X9598000Y-10910000D02*
X9568000Y-10940000D01*
X9677000Y-12697000D02*
X9707000Y-12727000D01*
X9707000Y-12697000D02*
X9677000Y-12727000D01*
X9734800Y-11395200D02*
X9764800Y-11425200D01*
X9764800Y-11395200D02*
X9734800Y-11425200D01*
X9837500Y-11935000D02*
X9867500Y-11965000D01*
X9867500Y-11935000D02*
X9837500Y-11965000D01*
X9860000Y-11407000D02*
X9890000Y-11437000D01*
X9890000Y-11407000D02*
X9860000Y-11437000D01*
X9885000Y-12360000D02*
X9915000Y-12390000D01*
X9915000Y-12360000D02*
X9885000Y-12390000D01*
X9988800Y-10582400D02*
X10018800Y-10612400D01*
X10018800Y-10582400D02*
X9988800Y-10612400D01*
X10015000Y-9999000D02*
X10045000Y-10029000D01*
X10045000Y-9999000D02*
X10015000Y-10029000D01*
X10110000Y-10572000D02*
X10140000Y-10602000D01*
X10140000Y-10572000D02*
X10110000Y-10602000D01*
X10141200Y-9515600D02*
X10171200Y-9545600D01*
X10171200Y-9515600D02*
X10141200Y-9545600D01*
X10293600Y-9922000D02*
X10323600Y-9952000D01*
X10323600Y-9922000D02*
X10293600Y-9952000D01*
X10445000Y-12255000D02*
X10475000Y-12285000D01*
X10475000Y-12255000D02*
X10445000Y-12285000D01*
X10455000Y-11775000D02*
X10485000Y-11805000D01*
X10485000Y-11775000D02*
X10455000Y-11805000D01*
X10522200Y-8499600D02*
X10552200Y-8529600D01*
X10552200Y-8499600D02*
X10522200Y-8529600D01*
X10672500Y-11430000D02*
X10702500Y-11460000D01*
X10702500Y-11430000D02*
X10672500Y-11460000D01*
X10824500Y-10633000D02*
X10854500Y-10663000D01*
X10854500Y-10633000D02*
X10824500Y-10663000D01*
X10845000Y-10505000D02*
X10875000Y-10535000D01*
X10875000Y-10505000D02*
X10845000Y-10535000D01*
X10896000Y-11358000D02*
X10926000Y-11388000D01*
X10926000Y-11358000D02*
X10896000Y-11388000D01*
X11004800Y-9210800D02*
X11034800Y-9240800D01*
X11034800Y-9210800D02*
X11004800Y-9240800D01*
X11050000Y-12122500D02*
X11080000Y-12152500D01*
X11080000Y-12122500D02*
X11050000Y-12152500D01*
X11115000Y-11989500D02*
X11145000Y-12019500D01*
X11145000Y-11989500D02*
X11115000Y-12019500D01*
X11487400Y-7458200D02*
X11517400Y-7488200D01*
X11517400Y-7458200D02*
X11487400Y-7488200D01*
X12198600Y-7509000D02*
X12228600Y-7539000D01*
X12228600Y-7509000D02*
X12198600Y-7539000D01*
X12488000Y-6682000D02*
X12518000Y-6712000D01*
X12518000Y-6682000D02*
X12488000Y-6712000D01*
X13380000Y-6350000D02*
X13410000Y-6380000D01*
X13410000Y-6350000D02*
X13380000Y-6380000D01*
X13408000Y-15566000D02*
X13438000Y-15596000D01*
X13438000Y-15566000D02*
X13408000Y-15596000D01*
X13479000Y-14188000D02*
X13509000Y-14218000D01*
X13509000Y-14188000D02*
X13479000Y-14218000D01*
X13752000Y-13668000D02*
X13782000Y-13698000D01*
X13782000Y-13668000D02*
X13752000Y-13698000D01*
X13845000Y-8245000D02*
X13875000Y-8275000D01*
X13875000Y-8245000D02*
X13845000Y-8275000D01*
X14095000Y-13399000D02*
X14125000Y-13429000D01*
X14125000Y-13399000D02*
X14095000Y-13429000D01*
X14095000Y-13509000D02*
X14125000Y-13539000D01*
X14125000Y-13509000D02*
X14095000Y-13539000D01*
X14241500Y-13877500D02*
X14271500Y-13907500D01*
X14271500Y-13877500D02*
X14241500Y-13907500D01*
X14364000Y-8906000D02*
X14394000Y-8936000D01*
X14394000Y-8906000D02*
X14364000Y-8936000D01*
X14552499Y-13877500D02*
X14582499Y-13907500D01*
X14582499Y-13877500D02*
X14552499Y-13907500D01*
X14685000Y-8085000D02*
X14715000Y-8115000D01*
X14715000Y-8085000D02*
X14685000Y-8115000D01*
X14690000Y-7705000D02*
X14720000Y-7735000D01*
X14720000Y-7705000D02*
X14690000Y-7735000D01*
X14690008Y-7335000D02*
X14720008Y-7365000D01*
X14720008Y-7335000D02*
X14690008Y-7365000D01*
X14715000Y-13877500D02*
X14745000Y-13907500D01*
X14745000Y-13877500D02*
X14715000Y-13907500D01*
X14282500Y-14530000D02*
G75*
G03*
X14282500Y-14530000I-40000J0D01*
G01*
X14112500Y-14560000D02*
X14372500Y-14560000D01*
X14112500Y-14500000D02*
X14372500Y-14500000D01*
X14372500Y-14560000D02*
G75*
G03*
X14372500Y-14500000I0J30000D01*
G01*
X14112500Y-14500000D02*
G75*
G03*
X14112500Y-14560000I0J-30000D01*
G01*
X14282500Y-15110000D02*
G75*
G03*
X14282500Y-15110000I-40000J0D01*
G01*
X14132500Y-15140000D02*
X14352500Y-15140000D01*
X14132500Y-15080000D02*
X14352500Y-15080000D01*
X14352500Y-15140000D02*
G75*
G03*
X14352500Y-15080000I0J30000D01*
G01*
X14132500Y-15080000D02*
G75*
G03*
X14132500Y-15140000I0J-30000D01*
G01*
X14762500Y-14830000D02*
G75*
G03*
X14762500Y-14830000I-40000J0D01*
G01*
X14752500Y-14940000D02*
X14752500Y-14720000D01*
X14692500Y-14940000D02*
X14692500Y-14720000D01*
X14752500Y-14720000D02*
G75*
G03*
X14692500Y-14720000I-30000J0D01*
G01*
X14692500Y-14940000D02*
G75*
G03*
X14752500Y-14940000I30000J0D01*
G01*
X5402500Y-8677500D02*
X5402500Y-8776500D01*
X5353000Y-8727000D02*
X5452000Y-8727000D01*
X5402500Y-9127500D02*
X5402500Y-9226500D01*
X5353000Y-9177000D02*
X5452000Y-9177000D01*
X6052500Y-8677500D02*
X6052500Y-8776500D01*
X6003000Y-8727000D02*
X6102000Y-8727000D01*
X6052500Y-9127500D02*
X6052500Y-9226500D01*
X6003000Y-9177000D02*
X6102000Y-9177000D01*
X7431000Y-8677500D02*
X7431000Y-8776500D01*
X7381500Y-8727000D02*
X7480500Y-8727000D01*
X7431000Y-9127500D02*
X7431000Y-9226500D01*
X7381500Y-9177000D02*
X7480500Y-9177000D01*
X8081000Y-8677500D02*
X8081000Y-8776500D01*
X8031500Y-8727000D02*
X8130500Y-8727000D01*
X8081000Y-9127500D02*
X8081000Y-9226500D01*
X8031500Y-9177000D02*
X8130500Y-9177000D01*
X5848156Y-12080556D02*
X5848156Y-12009844D01*
X5777444Y-12009844D01*
X5777444Y-12080556D01*
X5848156Y-12080556D01*
X6102156Y-12080556D02*
X6102156Y-12009844D01*
X6031444Y-12009844D01*
X6031444Y-12080556D01*
X6102156Y-12080556D01*
X7135356Y-10335356D02*
X7135356Y-10264644D01*
X7064644Y-10264644D01*
X7064644Y-10335356D01*
X7135356Y-10335356D01*
X7135356Y-10589356D02*
X7135356Y-10518644D01*
X7064644Y-10518644D01*
X7064644Y-10589356D01*
X7135356Y-10589356D01*
X7135356Y-10843356D02*
X7135356Y-10772644D01*
X7064644Y-10772644D01*
X7064644Y-10843356D01*
X7135356Y-10843356D01*
X7135356Y-11097356D02*
X7135356Y-11026644D01*
X7064644Y-11026644D01*
X7064644Y-11097356D01*
X7135356Y-11097356D01*
X7135356Y-11351356D02*
X7135356Y-11280644D01*
X7064644Y-11280644D01*
X7064644Y-11351356D01*
X7135356Y-11351356D01*
X7135356Y-11605356D02*
X7135356Y-11534644D01*
X7064644Y-11534644D01*
X7064644Y-11605356D01*
X7135356Y-11605356D01*
X7135356Y-11859356D02*
X7135356Y-11788644D01*
X7064644Y-11788644D01*
X7064644Y-11859356D01*
X7135356Y-11859356D01*
X7389356Y-10335356D02*
X7389356Y-10264644D01*
X7318644Y-10264644D01*
X7318644Y-10335356D01*
X7389356Y-10335356D01*
X7389356Y-10589356D02*
X7389356Y-10518644D01*
X7318644Y-10518644D01*
X7318644Y-10589356D01*
X7389356Y-10589356D01*
X7389356Y-10843356D02*
X7389356Y-10772644D01*
X7318644Y-10772644D01*
X7318644Y-10843356D01*
X7389356Y-10843356D01*
X7389356Y-11097356D02*
X7389356Y-11026644D01*
X7318644Y-11026644D01*
X7318644Y-11097356D01*
X7389356Y-11097356D01*
X7389356Y-11351356D02*
X7389356Y-11280644D01*
X7318644Y-11280644D01*
X7318644Y-11351356D01*
X7389356Y-11351356D01*
X7389356Y-11605356D02*
X7389356Y-11534644D01*
X7318644Y-11534644D01*
X7318644Y-11605356D01*
X7389356Y-11605356D01*
X7389356Y-11859356D02*
X7389356Y-11788644D01*
X7318644Y-11788644D01*
X7318644Y-11859356D01*
X7389356Y-11859356D01*
X7981756Y-15458756D02*
X7981756Y-15388044D01*
X7911044Y-15388044D01*
X7911044Y-15458756D01*
X7981756Y-15458756D01*
X7981756Y-15712756D02*
X7981756Y-15642044D01*
X7911044Y-15642044D01*
X7911044Y-15712756D01*
X7981756Y-15712756D01*
X8235756Y-15458756D02*
X8235756Y-15388044D01*
X8165044Y-15388044D01*
X8165044Y-15458756D01*
X8235756Y-15458756D01*
X8235756Y-15712756D02*
X8235756Y-15642044D01*
X8165044Y-15642044D01*
X8165044Y-15712756D01*
X8235756Y-15712756D01*
X8489756Y-15458756D02*
X8489756Y-15388044D01*
X8419044Y-15388044D01*
X8419044Y-15458756D01*
X8489756Y-15458756D01*
X8489756Y-15712756D02*
X8489756Y-15642044D01*
X8419044Y-15642044D01*
X8419044Y-15712756D01*
X8489756Y-15712756D01*
X8743756Y-15458756D02*
X8743756Y-15388044D01*
X8673044Y-15388044D01*
X8673044Y-15458756D01*
X8743756Y-15458756D01*
X8743756Y-15712756D02*
X8743756Y-15642044D01*
X8673044Y-15642044D01*
X8673044Y-15712756D01*
X8743756Y-15712756D01*
X8965356Y-13581356D02*
X8965356Y-13510644D01*
X8894644Y-13510644D01*
X8894644Y-13581356D01*
X8965356Y-13581356D01*
X8965356Y-13835356D02*
X8965356Y-13764644D01*
X8894644Y-13764644D01*
X8894644Y-13835356D01*
X8965356Y-13835356D01*
X8997756Y-15458756D02*
X8997756Y-15388044D01*
X8927044Y-15388044D01*
X8927044Y-15458756D01*
X8997756Y-15458756D01*
X8997756Y-15712756D02*
X8997756Y-15642044D01*
X8927044Y-15642044D01*
X8927044Y-15712756D01*
X8997756Y-15712756D01*
X9219356Y-13581356D02*
X9219356Y-13510644D01*
X9148644Y-13510644D01*
X9148644Y-13581356D01*
X9219356Y-13581356D01*
X9219356Y-13835356D02*
X9219356Y-13764644D01*
X9148644Y-13764644D01*
X9148644Y-13835356D01*
X9219356Y-13835356D01*
X9251756Y-15458756D02*
X9251756Y-15388044D01*
X9181044Y-15388044D01*
X9181044Y-15458756D01*
X9251756Y-15458756D01*
X9251756Y-15712756D02*
X9251756Y-15642044D01*
X9181044Y-15642044D01*
X9181044Y-15712756D01*
X9251756Y-15712756D01*
X9435356Y-6535356D02*
X9435356Y-6464644D01*
X9364644Y-6464644D01*
X9364644Y-6535356D01*
X9435356Y-6535356D01*
X9453856Y-8050356D02*
X9453856Y-7979644D01*
X9383144Y-7979644D01*
X9383144Y-8050356D01*
X9453856Y-8050356D01*
X9453856Y-8304356D02*
X9453856Y-8233644D01*
X9383144Y-8233644D01*
X9383144Y-8304356D01*
X9453856Y-8304356D01*
X9473356Y-13581356D02*
X9473356Y-13510644D01*
X9402644Y-13510644D01*
X9402644Y-13581356D01*
X9473356Y-13581356D01*
X9473356Y-13835356D02*
X9473356Y-13764644D01*
X9402644Y-13764644D01*
X9402644Y-13835356D01*
X9473356Y-13835356D01*
X9689356Y-6535356D02*
X9689356Y-6464644D01*
X9618644Y-6464644D01*
X9618644Y-6535356D01*
X9689356Y-6535356D01*
X9707856Y-8050356D02*
X9707856Y-7979644D01*
X9637144Y-7979644D01*
X9637144Y-8050356D01*
X9707856Y-8050356D01*
X9707856Y-8304356D02*
X9707856Y-8233644D01*
X9637144Y-8233644D01*
X9637144Y-8304356D01*
X9707856Y-8304356D01*
X9727356Y-13581356D02*
X9727356Y-13510644D01*
X9656644Y-13510644D01*
X9656644Y-13581356D01*
X9727356Y-13581356D01*
X9727356Y-13835356D02*
X9727356Y-13764644D01*
X9656644Y-13764644D01*
X9656644Y-13835356D01*
X9727356Y-13835356D01*
X9924356Y-7066356D02*
X9924356Y-6995644D01*
X9853644Y-6995644D01*
X9853644Y-7066356D01*
X9924356Y-7066356D01*
X9943356Y-6535356D02*
X9943356Y-6464644D01*
X9872644Y-6464644D01*
X9872644Y-6535356D01*
X9943356Y-6535356D01*
X9961856Y-8050356D02*
X9961856Y-7979644D01*
X9891144Y-7979644D01*
X9891144Y-8050356D01*
X9961856Y-8050356D01*
X9961856Y-8304356D02*
X9961856Y-8233644D01*
X9891144Y-8233644D01*
X9891144Y-8304356D01*
X9961856Y-8304356D01*
X9981356Y-13581356D02*
X9981356Y-13510644D01*
X9910644Y-13510644D01*
X9910644Y-13581356D01*
X9981356Y-13581356D01*
X9981356Y-13835356D02*
X9981356Y-13764644D01*
X9910644Y-13764644D01*
X9910644Y-13835356D01*
X9981356Y-13835356D01*
X10178356Y-7066356D02*
X10178356Y-6995644D01*
X10107644Y-6995644D01*
X10107644Y-7066356D01*
X10178356Y-7066356D01*
X10197356Y-6535356D02*
X10197356Y-6464644D01*
X10126644Y-6464644D01*
X10126644Y-6535356D01*
X10197356Y-6535356D01*
X10215856Y-8050356D02*
X10215856Y-7979644D01*
X10145144Y-7979644D01*
X10145144Y-8050356D01*
X10215856Y-8050356D01*
X10215856Y-8304356D02*
X10215856Y-8233644D01*
X10145144Y-8233644D01*
X10145144Y-8304356D01*
X10215856Y-8304356D01*
X10235356Y-13581356D02*
X10235356Y-13510644D01*
X10164644Y-13510644D01*
X10164644Y-13581356D01*
X10235356Y-13581356D01*
X10235356Y-13835356D02*
X10235356Y-13764644D01*
X10164644Y-13764644D01*
X10164644Y-13835356D01*
X10235356Y-13835356D01*
X10451356Y-6535356D02*
X10451356Y-6464644D01*
X10380644Y-6464644D01*
X10380644Y-6535356D01*
X10451356Y-6535356D01*
X10469856Y-8050356D02*
X10469856Y-7979644D01*
X10399144Y-7979644D01*
X10399144Y-8050356D01*
X10469856Y-8050356D01*
X10469856Y-8304356D02*
X10469856Y-8233644D01*
X10399144Y-8233644D01*
X10399144Y-8304356D01*
X10469856Y-8304356D01*
X10489356Y-13581356D02*
X10489356Y-13510644D01*
X10418644Y-13510644D01*
X10418644Y-13581356D01*
X10489356Y-13581356D01*
X10489356Y-13835356D02*
X10489356Y-13764644D01*
X10418644Y-13764644D01*
X10418644Y-13835356D01*
X10489356Y-13835356D01*
X10705356Y-6535356D02*
X10705356Y-6464644D01*
X10634644Y-6464644D01*
X10634644Y-6535356D01*
X10705356Y-6535356D01*
X10723856Y-8050356D02*
X10723856Y-7979644D01*
X10653144Y-7979644D01*
X10653144Y-8050356D01*
X10723856Y-8050356D01*
X10723856Y-8304356D02*
X10723856Y-8233644D01*
X10653144Y-8233644D01*
X10653144Y-8304356D01*
X10723856Y-8304356D01*
X10743356Y-13581356D02*
X10743356Y-13510644D01*
X10672644Y-13510644D01*
X10672644Y-13581356D01*
X10743356Y-13581356D01*
X10743356Y-13835356D02*
X10743356Y-13764644D01*
X10672644Y-13764644D01*
X10672644Y-13835356D01*
X10743356Y-13835356D01*
X10959356Y-6535356D02*
X10959356Y-6464644D01*
X10888644Y-6464644D01*
X10888644Y-6535356D01*
X10959356Y-6535356D01*
X10977856Y-8050356D02*
X10977856Y-7979644D01*
X10907144Y-7979644D01*
X10907144Y-8050356D01*
X10977856Y-8050356D01*
X10977856Y-8304356D02*
X10977856Y-8233644D01*
X10907144Y-8233644D01*
X10907144Y-8304356D01*
X10977856Y-8304356D01*
X11213356Y-6535356D02*
X11213356Y-6464644D01*
X11142644Y-6464644D01*
X11142644Y-6535356D01*
X11213356Y-6535356D01*
X12172756Y-8473756D02*
X12172756Y-8403044D01*
X12102044Y-8403044D01*
X12102044Y-8473756D01*
X12172756Y-8473756D01*
X12426756Y-8473756D02*
X12426756Y-8403044D01*
X12356044Y-8403044D01*
X12356044Y-8473756D01*
X12426756Y-8473756D01*
X12861356Y-14688356D02*
X12861356Y-14617644D01*
X12790644Y-14617644D01*
X12790644Y-14688356D01*
X12861356Y-14688356D01*
X12861356Y-14942356D02*
X12861356Y-14871644D01*
X12790644Y-14871644D01*
X12790644Y-14942356D01*
X12861356Y-14942356D01*
X12861356Y-15196356D02*
X12861356Y-15125644D01*
X12790644Y-15125644D01*
X12790644Y-15196356D01*
X12861356Y-15196356D01*
X12951356Y-13309356D02*
X12951356Y-13238644D01*
X12880644Y-13238644D01*
X12880644Y-13309356D01*
X12951356Y-13309356D01*
X12951356Y-13563356D02*
X12951356Y-13492644D01*
X12880644Y-13492644D01*
X12880644Y-13563356D01*
X12951356Y-13563356D01*
X12981356Y-10465356D02*
X12981356Y-10394644D01*
X12910644Y-10394644D01*
X12910644Y-10465356D01*
X12981356Y-10465356D01*
X12981356Y-10719356D02*
X12981356Y-10648644D01*
X12910644Y-10648644D01*
X12910644Y-10719356D01*
X12981356Y-10719356D01*
X12981356Y-10973356D02*
X12981356Y-10902644D01*
X12910644Y-10902644D01*
X12910644Y-10973356D01*
X12981356Y-10973356D01*
X12981356Y-11227356D02*
X12981356Y-11156644D01*
X12910644Y-11156644D01*
X12910644Y-11227356D01*
X12981356Y-11227356D01*
X12981356Y-11481356D02*
X12981356Y-11410644D01*
X12910644Y-11410644D01*
X12910644Y-11481356D01*
X12981356Y-11481356D01*
X12981356Y-11735356D02*
X12981356Y-11664644D01*
X12910644Y-11664644D01*
X12910644Y-11735356D01*
X12981356Y-11735356D01*
X12981356Y-12358356D02*
X12981356Y-12287644D01*
X12910644Y-12287644D01*
X12910644Y-12358356D01*
X12981356Y-12358356D01*
X12981356Y-12612356D02*
X12981356Y-12541644D01*
X12910644Y-12541644D01*
X12910644Y-12612356D01*
X12981356Y-12612356D01*
X13115356Y-14688356D02*
X13115356Y-14617644D01*
X13044644Y-14617644D01*
X13044644Y-14688356D01*
X13115356Y-14688356D01*
X13115356Y-14942356D02*
X13115356Y-14871644D01*
X13044644Y-14871644D01*
X13044644Y-14942356D01*
X13115356Y-14942356D01*
X13115356Y-15196356D02*
X13115356Y-15125644D01*
X13044644Y-15125644D01*
X13044644Y-15196356D01*
X13115356Y-15196356D01*
X13205356Y-13309356D02*
X13205356Y-13238644D01*
X13134644Y-13238644D01*
X13134644Y-13309356D01*
X13205356Y-13309356D01*
X13205356Y-13563356D02*
X13205356Y-13492644D01*
X13134644Y-13492644D01*
X13134644Y-13563356D01*
X13205356Y-13563356D01*
X13235356Y-10465356D02*
X13235356Y-10394644D01*
X13164644Y-10394644D01*
X13164644Y-10465356D01*
X13235356Y-10465356D01*
X13235356Y-10719356D02*
X13235356Y-10648644D01*
X13164644Y-10648644D01*
X13164644Y-10719356D01*
X13235356Y-10719356D01*
X13235356Y-10973356D02*
X13235356Y-10902644D01*
X13164644Y-10902644D01*
X13164644Y-10973356D01*
X13235356Y-10973356D01*
X13235356Y-11227356D02*
X13235356Y-11156644D01*
X13164644Y-11156644D01*
X13164644Y-11227356D01*
X13235356Y-11227356D01*
X13235356Y-11481356D02*
X13235356Y-11410644D01*
X13164644Y-11410644D01*
X13164644Y-11481356D01*
X13235356Y-11481356D01*
X13235356Y-11735356D02*
X13235356Y-11664644D01*
X13164644Y-11664644D01*
X13164644Y-11735356D01*
X13235356Y-11735356D01*
X13235356Y-12358356D02*
X13235356Y-12287644D01*
X13164644Y-12287644D01*
X13164644Y-12358356D01*
X13235356Y-12358356D01*
X13235356Y-12612356D02*
X13235356Y-12541644D01*
X13164644Y-12541644D01*
X13164644Y-12612356D01*
X13235356Y-12612356D01*
X13845356Y-9191356D02*
X13845356Y-9120644D01*
X13774644Y-9120644D01*
X13774644Y-9191356D01*
X13845356Y-9191356D01*
X13845356Y-9445356D02*
X13845356Y-9374644D01*
X13774644Y-9374644D01*
X13774644Y-9445356D01*
X13845356Y-9445356D01*
D12*
X5283928Y-16468214D02*
X5283928Y-16168214D01*
X5355357Y-16168214D01*
X5398214Y-16182500D01*
X5426786Y-16211071D01*
X5441071Y-16239643D01*
X5455357Y-16296786D01*
X5455357Y-16339643D01*
X5441071Y-16396786D01*
X5426786Y-16425357D01*
X5398214Y-16453929D01*
X5355357Y-16468214D01*
X5283928Y-16468214D01*
X5583928Y-16468214D02*
X5583928Y-16268214D01*
X5583928Y-16325357D02*
X5598214Y-16296786D01*
X5612500Y-16282500D01*
X5641071Y-16268214D01*
X5669643Y-16268214D01*
X5769643Y-16468214D02*
X5769643Y-16268214D01*
X5769643Y-16168214D02*
X5755357Y-16182500D01*
X5769643Y-16196786D01*
X5783928Y-16182500D01*
X5769643Y-16168214D01*
X5769643Y-16196786D01*
X5955357Y-16468214D02*
X5926786Y-16453929D01*
X5912500Y-16425357D01*
X5912500Y-16168214D01*
X6112500Y-16468214D02*
X6083928Y-16453929D01*
X6069643Y-16425357D01*
X6069643Y-16168214D01*
X6455357Y-16468214D02*
X6455357Y-16168214D01*
X6555357Y-16382500D01*
X6655357Y-16168214D01*
X6655357Y-16468214D01*
X6926786Y-16468214D02*
X6926786Y-16311071D01*
X6912500Y-16282500D01*
X6883928Y-16268214D01*
X6826786Y-16268214D01*
X6798214Y-16282500D01*
X6926786Y-16453929D02*
X6898214Y-16468214D01*
X6826786Y-16468214D01*
X6798214Y-16453929D01*
X6783928Y-16425357D01*
X6783928Y-16396786D01*
X6798214Y-16368214D01*
X6826786Y-16353929D01*
X6898214Y-16353929D01*
X6926786Y-16339643D01*
X7069643Y-16268214D02*
X7069643Y-16568214D01*
X7069643Y-16282500D02*
X7098214Y-16268214D01*
X7155357Y-16268214D01*
X7183928Y-16282500D01*
X7198214Y-16296786D01*
X7212500Y-16325357D01*
X7212500Y-16411071D01*
X7198214Y-16439643D01*
X7183928Y-16453929D01*
X7155357Y-16468214D01*
X7098214Y-16468214D01*
X7069643Y-16453929D01*
X7341071Y-16439643D02*
X7355357Y-16453929D01*
X7341071Y-16468214D01*
X7326786Y-16453929D01*
X7341071Y-16439643D01*
X7341071Y-16468214D01*
X7341071Y-16282500D02*
X7355357Y-16296786D01*
X7341071Y-16311071D01*
X7326786Y-16296786D01*
X7341071Y-16282500D01*
X7341071Y-16311071D01*
X4967500Y-16947500D02*
X4997500Y-16977500D01*
X4997500Y-16947500D02*
X4967500Y-16977500D01*
X5341071Y-16798214D02*
X5369643Y-16798214D01*
X5398214Y-16812500D01*
X5412500Y-16826786D01*
X5426786Y-16855357D01*
X5441071Y-16912500D01*
X5441071Y-16983929D01*
X5426786Y-17041072D01*
X5412500Y-17069643D01*
X5398214Y-17083929D01*
X5369643Y-17098214D01*
X5341071Y-17098214D01*
X5312500Y-17083929D01*
X5298214Y-17069643D01*
X5283928Y-17041072D01*
X5269643Y-16983929D01*
X5269643Y-16912500D01*
X5283928Y-16855357D01*
X5298214Y-16826786D01*
X5312500Y-16812500D01*
X5341071Y-16798214D01*
X5569643Y-17069643D02*
X5583928Y-17083929D01*
X5569643Y-17098214D01*
X5555357Y-17083929D01*
X5569643Y-17069643D01*
X5569643Y-17098214D01*
X5683928Y-16798214D02*
X5869643Y-16798214D01*
X5769643Y-16912500D01*
X5812500Y-16912500D01*
X5841071Y-16926786D01*
X5855357Y-16941072D01*
X5869643Y-16969643D01*
X5869643Y-17041072D01*
X5855357Y-17069643D01*
X5841071Y-17083929D01*
X5812500Y-17098214D01*
X5726786Y-17098214D01*
X5698214Y-17083929D01*
X5683928Y-17069643D01*
X6055357Y-16798214D02*
X6083928Y-16798214D01*
X6112500Y-16812500D01*
X6126786Y-16826786D01*
X6141071Y-16855357D01*
X6155357Y-16912500D01*
X6155357Y-16983929D01*
X6141071Y-17041072D01*
X6126786Y-17069643D01*
X6112500Y-17083929D01*
X6083928Y-17098214D01*
X6055357Y-17098214D01*
X6026786Y-17083929D01*
X6012500Y-17069643D01*
X5998214Y-17041072D01*
X5983928Y-16983929D01*
X5983928Y-16912500D01*
X5998214Y-16855357D01*
X6012500Y-16826786D01*
X6026786Y-16812500D01*
X6055357Y-16798214D01*
X6341071Y-16798214D02*
X6369643Y-16798214D01*
X6398214Y-16812500D01*
X6412500Y-16826786D01*
X6426786Y-16855357D01*
X6441071Y-16912500D01*
X6441071Y-16983929D01*
X6426786Y-17041072D01*
X6412500Y-17069643D01*
X6398214Y-17083929D01*
X6369643Y-17098214D01*
X6341071Y-17098214D01*
X6312500Y-17083929D01*
X6298214Y-17069643D01*
X6283928Y-17041072D01*
X6269643Y-16983929D01*
X6269643Y-16912500D01*
X6283928Y-16855357D01*
X6298214Y-16826786D01*
X6312500Y-16812500D01*
X6341071Y-16798214D01*
X6569643Y-17098214D02*
X6569643Y-16898214D01*
X6569643Y-16926786D02*
X6583928Y-16912500D01*
X6612500Y-16898214D01*
X6655357Y-16898214D01*
X6683928Y-16912500D01*
X6698214Y-16941072D01*
X6698214Y-17098214D01*
X6698214Y-16941072D02*
X6712500Y-16912500D01*
X6741071Y-16898214D01*
X6783928Y-16898214D01*
X6812500Y-16912500D01*
X6826786Y-16941072D01*
X6826786Y-17098214D01*
X6969643Y-17098214D02*
X6969643Y-16898214D01*
X6969643Y-16926786D02*
X6983928Y-16912500D01*
X7012500Y-16898214D01*
X7055357Y-16898214D01*
X7083928Y-16912500D01*
X7098214Y-16941072D01*
X7098214Y-17098214D01*
X7098214Y-16941072D02*
X7112500Y-16912500D01*
X7141071Y-16898214D01*
X7183928Y-16898214D01*
X7212500Y-16912500D01*
X7226786Y-16941072D01*
X7226786Y-17098214D01*
X7812500Y-16783929D02*
X7555357Y-17169643D01*
X8198214Y-16798214D02*
X8226786Y-16798214D01*
X8255357Y-16812500D01*
X8269643Y-16826786D01*
X8283928Y-16855357D01*
X8298214Y-16912500D01*
X8298214Y-16983929D01*
X8283928Y-17041072D01*
X8269643Y-17069643D01*
X8255357Y-17083929D01*
X8226786Y-17098214D01*
X8198214Y-17098214D01*
X8169643Y-17083929D01*
X8155357Y-17069643D01*
X8141071Y-17041072D01*
X8126786Y-16983929D01*
X8126786Y-16912500D01*
X8141071Y-16855357D01*
X8155357Y-16826786D01*
X8169643Y-16812500D01*
X8198214Y-16798214D01*
X8426786Y-17069643D02*
X8441071Y-17083929D01*
X8426786Y-17098214D01*
X8412500Y-17083929D01*
X8426786Y-17069643D01*
X8426786Y-17098214D01*
X8626786Y-16798214D02*
X8655357Y-16798214D01*
X8683928Y-16812500D01*
X8698214Y-16826786D01*
X8712500Y-16855357D01*
X8726786Y-16912500D01*
X8726786Y-16983929D01*
X8712500Y-17041072D01*
X8698214Y-17069643D01*
X8683928Y-17083929D01*
X8655357Y-17098214D01*
X8626786Y-17098214D01*
X8598214Y-17083929D01*
X8583928Y-17069643D01*
X8569643Y-17041072D01*
X8555357Y-16983929D01*
X8555357Y-16912500D01*
X8569643Y-16855357D01*
X8583928Y-16826786D01*
X8598214Y-16812500D01*
X8626786Y-16798214D01*
X9012500Y-17098214D02*
X8841071Y-17098214D01*
X8926786Y-17098214D02*
X8926786Y-16798214D01*
X8898214Y-16841072D01*
X8869643Y-16869643D01*
X8841071Y-16883929D01*
X9298214Y-17098214D02*
X9126786Y-17098214D01*
X9212500Y-17098214D02*
X9212500Y-16798214D01*
X9183928Y-16841072D01*
X9155357Y-16869643D01*
X9126786Y-16883929D01*
X9469643Y-16926786D02*
X9441071Y-16912500D01*
X9426786Y-16898214D01*
X9412500Y-16869643D01*
X9412500Y-16855357D01*
X9426786Y-16826786D01*
X9441071Y-16812500D01*
X9469643Y-16798214D01*
X9526786Y-16798214D01*
X9555357Y-16812500D01*
X9569643Y-16826786D01*
X9583928Y-16855357D01*
X9583928Y-16869643D01*
X9569643Y-16898214D01*
X9555357Y-16912500D01*
X9526786Y-16926786D01*
X9469643Y-16926786D01*
X9441071Y-16941072D01*
X9426786Y-16955357D01*
X9412500Y-16983929D01*
X9412500Y-17041072D01*
X9426786Y-17069643D01*
X9441071Y-17083929D01*
X9469643Y-17098214D01*
X9526786Y-17098214D01*
X9555357Y-17083929D01*
X9569643Y-17069643D01*
X9583928Y-17041072D01*
X9583928Y-16983929D01*
X9569643Y-16955357D01*
X9555357Y-16941072D01*
X9526786Y-16926786D01*
X9698214Y-16798214D02*
X9698214Y-16855357D01*
X9812500Y-16798214D02*
X9812500Y-16855357D01*
X10255357Y-17212500D02*
X10241071Y-17198214D01*
X10212500Y-17155357D01*
X10198214Y-17126786D01*
X10183928Y-17083929D01*
X10169643Y-17012500D01*
X10169643Y-16955357D01*
X10183928Y-16883929D01*
X10198214Y-16841072D01*
X10212500Y-16812500D01*
X10241071Y-16769643D01*
X10255357Y-16755357D01*
X10341071Y-16798214D02*
X10541071Y-16798214D01*
X10412500Y-17098214D01*
X10626786Y-16798214D02*
X10812500Y-16798214D01*
X10712500Y-16912500D01*
X10755357Y-16912500D01*
X10783928Y-16926786D01*
X10798214Y-16941072D01*
X10812500Y-16969643D01*
X10812500Y-17041072D01*
X10798214Y-17069643D01*
X10783928Y-17083929D01*
X10755357Y-17098214D01*
X10669643Y-17098214D01*
X10641071Y-17083929D01*
X10626786Y-17069643D01*
X11169643Y-17098214D02*
X11169643Y-16798214D01*
X11298214Y-17098214D02*
X11298214Y-16941072D01*
X11283928Y-16912500D01*
X11255357Y-16898214D01*
X11212500Y-16898214D01*
X11183928Y-16912500D01*
X11169643Y-16926786D01*
X11483928Y-17098214D02*
X11455357Y-17083929D01*
X11441071Y-17069643D01*
X11426786Y-17041072D01*
X11426786Y-16955357D01*
X11441071Y-16926786D01*
X11455357Y-16912500D01*
X11483928Y-16898214D01*
X11526786Y-16898214D01*
X11555357Y-16912500D01*
X11569643Y-16926786D01*
X11583928Y-16955357D01*
X11583928Y-17041072D01*
X11569643Y-17069643D01*
X11555357Y-17083929D01*
X11526786Y-17098214D01*
X11483928Y-17098214D01*
X11755357Y-17098214D02*
X11726786Y-17083929D01*
X11712500Y-17055357D01*
X11712500Y-16798214D01*
X11983928Y-17083929D02*
X11955357Y-17098214D01*
X11898214Y-17098214D01*
X11869643Y-17083929D01*
X11855357Y-17055357D01*
X11855357Y-16941072D01*
X11869643Y-16912500D01*
X11898214Y-16898214D01*
X11955357Y-16898214D01*
X11983928Y-16912500D01*
X11998214Y-16941072D01*
X11998214Y-16969643D01*
X11855357Y-16998214D01*
X12112500Y-17083929D02*
X12141071Y-17098214D01*
X12198214Y-17098214D01*
X12226786Y-17083929D01*
X12241071Y-17055357D01*
X12241071Y-17041072D01*
X12226786Y-17012500D01*
X12198214Y-16998214D01*
X12155357Y-16998214D01*
X12126786Y-16983929D01*
X12112500Y-16955357D01*
X12112500Y-16941072D01*
X12126786Y-16912500D01*
X12155357Y-16898214D01*
X12198214Y-16898214D01*
X12226786Y-16912500D01*
X12341071Y-17212500D02*
X12355357Y-17198214D01*
X12383928Y-17155357D01*
X12398214Y-17126786D01*
X12412500Y-17083929D01*
X12426786Y-17012500D01*
X12426786Y-16955357D01*
X12412500Y-16883929D01*
X12398214Y-16841072D01*
X12383928Y-16812500D01*
X12355357Y-16769643D01*
X12341071Y-16755357D01*
X4997500Y-17358500D02*
G75*
G03*
X4997500Y-17358500I-40000J0D01*
G01*
X5341071Y-17194214D02*
X5369643Y-17194214D01*
X5398214Y-17208500D01*
X5412500Y-17222786D01*
X5426786Y-17251357D01*
X5441071Y-17308500D01*
X5441071Y-17379929D01*
X5426786Y-17437072D01*
X5412500Y-17465643D01*
X5398214Y-17479929D01*
X5369643Y-17494214D01*
X5341071Y-17494214D01*
X5312500Y-17479929D01*
X5298214Y-17465643D01*
X5283928Y-17437072D01*
X5269643Y-17379929D01*
X5269643Y-17308500D01*
X5283928Y-17251357D01*
X5298214Y-17222786D01*
X5312500Y-17208500D01*
X5341071Y-17194214D01*
X5569643Y-17465643D02*
X5583928Y-17479929D01*
X5569643Y-17494214D01*
X5555357Y-17479929D01*
X5569643Y-17465643D01*
X5569643Y-17494214D01*
X5755357Y-17322786D02*
X5726786Y-17308500D01*
X5712500Y-17294214D01*
X5698214Y-17265643D01*
X5698214Y-17251357D01*
X5712500Y-17222786D01*
X5726786Y-17208500D01*
X5755357Y-17194214D01*
X5812500Y-17194214D01*
X5841071Y-17208500D01*
X5855357Y-17222786D01*
X5869643Y-17251357D01*
X5869643Y-17265643D01*
X5855357Y-17294214D01*
X5841071Y-17308500D01*
X5812500Y-17322786D01*
X5755357Y-17322786D01*
X5726786Y-17337072D01*
X5712500Y-17351357D01*
X5698214Y-17379929D01*
X5698214Y-17437072D01*
X5712500Y-17465643D01*
X5726786Y-17479929D01*
X5755357Y-17494214D01*
X5812500Y-17494214D01*
X5841071Y-17479929D01*
X5855357Y-17465643D01*
X5869643Y-17437072D01*
X5869643Y-17379929D01*
X5855357Y-17351357D01*
X5841071Y-17337072D01*
X5812500Y-17322786D01*
X6055357Y-17194214D02*
X6083928Y-17194214D01*
X6112500Y-17208500D01*
X6126786Y-17222786D01*
X6141071Y-17251357D01*
X6155357Y-17308500D01*
X6155357Y-17379929D01*
X6141071Y-17437072D01*
X6126786Y-17465643D01*
X6112500Y-17479929D01*
X6083928Y-17494214D01*
X6055357Y-17494214D01*
X6026786Y-17479929D01*
X6012500Y-17465643D01*
X5998214Y-17437072D01*
X5983928Y-17379929D01*
X5983928Y-17308500D01*
X5998214Y-17251357D01*
X6012500Y-17222786D01*
X6026786Y-17208500D01*
X6055357Y-17194214D01*
X6341071Y-17194214D02*
X6369643Y-17194214D01*
X6398214Y-17208500D01*
X6412500Y-17222786D01*
X6426786Y-17251357D01*
X6441071Y-17308500D01*
X6441071Y-17379929D01*
X6426786Y-17437072D01*
X6412500Y-17465643D01*
X6398214Y-17479929D01*
X6369643Y-17494214D01*
X6341071Y-17494214D01*
X6312500Y-17479929D01*
X6298214Y-17465643D01*
X6283928Y-17437072D01*
X6269643Y-17379929D01*
X6269643Y-17308500D01*
X6283928Y-17251357D01*
X6298214Y-17222786D01*
X6312500Y-17208500D01*
X6341071Y-17194214D01*
X6569643Y-17494214D02*
X6569643Y-17294214D01*
X6569643Y-17322786D02*
X6583928Y-17308500D01*
X6612500Y-17294214D01*
X6655357Y-17294214D01*
X6683928Y-17308500D01*
X6698214Y-17337072D01*
X6698214Y-17494214D01*
X6698214Y-17337072D02*
X6712500Y-17308500D01*
X6741071Y-17294214D01*
X6783928Y-17294214D01*
X6812500Y-17308500D01*
X6826786Y-17337072D01*
X6826786Y-17494214D01*
X6969643Y-17494214D02*
X6969643Y-17294214D01*
X6969643Y-17322786D02*
X6983928Y-17308500D01*
X7012500Y-17294214D01*
X7055357Y-17294214D01*
X7083928Y-17308500D01*
X7098214Y-17337072D01*
X7098214Y-17494214D01*
X7098214Y-17337072D02*
X7112500Y-17308500D01*
X7141071Y-17294214D01*
X7183928Y-17294214D01*
X7212500Y-17308500D01*
X7226786Y-17337072D01*
X7226786Y-17494214D01*
X7812500Y-17179929D02*
X7555357Y-17565643D01*
X8198214Y-17194214D02*
X8226786Y-17194214D01*
X8255357Y-17208500D01*
X8269643Y-17222786D01*
X8283928Y-17251357D01*
X8298214Y-17308500D01*
X8298214Y-17379929D01*
X8283928Y-17437072D01*
X8269643Y-17465643D01*
X8255357Y-17479929D01*
X8226786Y-17494214D01*
X8198214Y-17494214D01*
X8169643Y-17479929D01*
X8155357Y-17465643D01*
X8141071Y-17437072D01*
X8126786Y-17379929D01*
X8126786Y-17308500D01*
X8141071Y-17251357D01*
X8155357Y-17222786D01*
X8169643Y-17208500D01*
X8198214Y-17194214D01*
X8426786Y-17465643D02*
X8441071Y-17479929D01*
X8426786Y-17494214D01*
X8412500Y-17479929D01*
X8426786Y-17465643D01*
X8426786Y-17494214D01*
X8626786Y-17194214D02*
X8655357Y-17194214D01*
X8683928Y-17208500D01*
X8698214Y-17222786D01*
X8712500Y-17251357D01*
X8726786Y-17308500D01*
X8726786Y-17379929D01*
X8712500Y-17437072D01*
X8698214Y-17465643D01*
X8683928Y-17479929D01*
X8655357Y-17494214D01*
X8626786Y-17494214D01*
X8598214Y-17479929D01*
X8583928Y-17465643D01*
X8569643Y-17437072D01*
X8555357Y-17379929D01*
X8555357Y-17308500D01*
X8569643Y-17251357D01*
X8583928Y-17222786D01*
X8598214Y-17208500D01*
X8626786Y-17194214D01*
X8826786Y-17194214D02*
X9012500Y-17194214D01*
X8912500Y-17308500D01*
X8955357Y-17308500D01*
X8983928Y-17322786D01*
X8998214Y-17337072D01*
X9012500Y-17365643D01*
X9012500Y-17437072D01*
X8998214Y-17465643D01*
X8983928Y-17479929D01*
X8955357Y-17494214D01*
X8869643Y-17494214D01*
X8841071Y-17479929D01*
X8826786Y-17465643D01*
X9298214Y-17494214D02*
X9126786Y-17494214D01*
X9212500Y-17494214D02*
X9212500Y-17194214D01*
X9183928Y-17237072D01*
X9155357Y-17265643D01*
X9126786Y-17279929D01*
X9569643Y-17194214D02*
X9426786Y-17194214D01*
X9412500Y-17337072D01*
X9426786Y-17322786D01*
X9455357Y-17308500D01*
X9526786Y-17308500D01*
X9555357Y-17322786D01*
X9569643Y-17337072D01*
X9583928Y-17365643D01*
X9583928Y-17437072D01*
X9569643Y-17465643D01*
X9555357Y-17479929D01*
X9526786Y-17494214D01*
X9455357Y-17494214D01*
X9426786Y-17479929D01*
X9412500Y-17465643D01*
X9698214Y-17194214D02*
X9698214Y-17251357D01*
X9812500Y-17194214D02*
X9812500Y-17251357D01*
X10255357Y-17608500D02*
X10241071Y-17594214D01*
X10212500Y-17551357D01*
X10198214Y-17522786D01*
X10183928Y-17479929D01*
X10169643Y-17408500D01*
X10169643Y-17351357D01*
X10183928Y-17279929D01*
X10198214Y-17237072D01*
X10212500Y-17208500D01*
X10241071Y-17165643D01*
X10255357Y-17151357D01*
X10426786Y-17194214D02*
X10455357Y-17194214D01*
X10483928Y-17208500D01*
X10498214Y-17222786D01*
X10512500Y-17251357D01*
X10526786Y-17308500D01*
X10526786Y-17379929D01*
X10512500Y-17437072D01*
X10498214Y-17465643D01*
X10483928Y-17479929D01*
X10455357Y-17494214D01*
X10426786Y-17494214D01*
X10398214Y-17479929D01*
X10383928Y-17465643D01*
X10369643Y-17437072D01*
X10355357Y-17379929D01*
X10355357Y-17308500D01*
X10369643Y-17251357D01*
X10383928Y-17222786D01*
X10398214Y-17208500D01*
X10426786Y-17194214D01*
X10883928Y-17494214D02*
X10883928Y-17194214D01*
X11012500Y-17494214D02*
X11012500Y-17337072D01*
X10998214Y-17308500D01*
X10969643Y-17294214D01*
X10926786Y-17294214D01*
X10898214Y-17308500D01*
X10883928Y-17322786D01*
X11198214Y-17494214D02*
X11169643Y-17479929D01*
X11155357Y-17465643D01*
X11141071Y-17437072D01*
X11141071Y-17351357D01*
X11155357Y-17322786D01*
X11169643Y-17308500D01*
X11198214Y-17294214D01*
X11241071Y-17294214D01*
X11269643Y-17308500D01*
X11283928Y-17322786D01*
X11298214Y-17351357D01*
X11298214Y-17437072D01*
X11283928Y-17465643D01*
X11269643Y-17479929D01*
X11241071Y-17494214D01*
X11198214Y-17494214D01*
X11469643Y-17494214D02*
X11441071Y-17479929D01*
X11426786Y-17451357D01*
X11426786Y-17194214D01*
X11698214Y-17479929D02*
X11669643Y-17494214D01*
X11612500Y-17494214D01*
X11583928Y-17479929D01*
X11569643Y-17451357D01*
X11569643Y-17337072D01*
X11583928Y-17308500D01*
X11612500Y-17294214D01*
X11669643Y-17294214D01*
X11698214Y-17308500D01*
X11712500Y-17337072D01*
X11712500Y-17365643D01*
X11569643Y-17394214D01*
X11826786Y-17479929D02*
X11855357Y-17494214D01*
X11912500Y-17494214D01*
X11941071Y-17479929D01*
X11955357Y-17451357D01*
X11955357Y-17437072D01*
X11941071Y-17408500D01*
X11912500Y-17394214D01*
X11869643Y-17394214D01*
X11841071Y-17379929D01*
X11826786Y-17351357D01*
X11826786Y-17337072D01*
X11841071Y-17308500D01*
X11869643Y-17294214D01*
X11912500Y-17294214D01*
X11941071Y-17308500D01*
X12312500Y-17379929D02*
X12541071Y-17379929D01*
X12426786Y-17494214D02*
X12426786Y-17265643D01*
X12883928Y-17194214D02*
X13069643Y-17194214D01*
X12969643Y-17308500D01*
X13012500Y-17308500D01*
X13041071Y-17322786D01*
X13055357Y-17337072D01*
X13069643Y-17365643D01*
X13069643Y-17437072D01*
X13055357Y-17465643D01*
X13041071Y-17479929D01*
X13012500Y-17494214D01*
X12926786Y-17494214D01*
X12898214Y-17479929D01*
X12883928Y-17465643D01*
X13412500Y-17479929D02*
X13441071Y-17494214D01*
X13498214Y-17494214D01*
X13526786Y-17479929D01*
X13541071Y-17451357D01*
X13541071Y-17437072D01*
X13526786Y-17408500D01*
X13498214Y-17394214D01*
X13455357Y-17394214D01*
X13426786Y-17379929D01*
X13412500Y-17351357D01*
X13412500Y-17337072D01*
X13426786Y-17308500D01*
X13455357Y-17294214D01*
X13498214Y-17294214D01*
X13526786Y-17308500D01*
X13712500Y-17494214D02*
X13683928Y-17479929D01*
X13669643Y-17451357D01*
X13669643Y-17194214D01*
X13869643Y-17494214D02*
X13841071Y-17479929D01*
X13826786Y-17465643D01*
X13812500Y-17437072D01*
X13812500Y-17351357D01*
X13826786Y-17322786D01*
X13841071Y-17308500D01*
X13869643Y-17294214D01*
X13912500Y-17294214D01*
X13941071Y-17308500D01*
X13955357Y-17322786D01*
X13969643Y-17351357D01*
X13969643Y-17437072D01*
X13955357Y-17465643D01*
X13941071Y-17479929D01*
X13912500Y-17494214D01*
X13869643Y-17494214D01*
X14055357Y-17294214D02*
X14169643Y-17294214D01*
X14098214Y-17194214D02*
X14098214Y-17451357D01*
X14112500Y-17479929D01*
X14141071Y-17494214D01*
X14169643Y-17494214D01*
X14255357Y-17479929D02*
X14283928Y-17494214D01*
X14341071Y-17494214D01*
X14369643Y-17479929D01*
X14383928Y-17451357D01*
X14383928Y-17437072D01*
X14369643Y-17408500D01*
X14341071Y-17394214D01*
X14298214Y-17394214D01*
X14269643Y-17379929D01*
X14255357Y-17351357D01*
X14255357Y-17337072D01*
X14269643Y-17308500D01*
X14298214Y-17294214D01*
X14341071Y-17294214D01*
X14369643Y-17308500D01*
X14483928Y-17608500D02*
X14498214Y-17594214D01*
X14526786Y-17551357D01*
X14541071Y-17522786D01*
X14555357Y-17479929D01*
X14569643Y-17408500D01*
X14569643Y-17351357D01*
X14555357Y-17279929D01*
X14541071Y-17237072D01*
X14526786Y-17208500D01*
X14498214Y-17165643D01*
X14483928Y-17151357D01*
X4948000Y-17705000D02*
X4948000Y-17804000D01*
X4898500Y-17754500D02*
X4997500Y-17754500D01*
X5341071Y-17590214D02*
X5369643Y-17590214D01*
X5398214Y-17604500D01*
X5412500Y-17618786D01*
X5426786Y-17647357D01*
X5441071Y-17704500D01*
X5441071Y-17775929D01*
X5426786Y-17833072D01*
X5412500Y-17861643D01*
X5398214Y-17875929D01*
X5369643Y-17890214D01*
X5341071Y-17890214D01*
X5312500Y-17875929D01*
X5298214Y-17861643D01*
X5283928Y-17833072D01*
X5269643Y-17775929D01*
X5269643Y-17704500D01*
X5283928Y-17647357D01*
X5298214Y-17618786D01*
X5312500Y-17604500D01*
X5341071Y-17590214D01*
X5569643Y-17861643D02*
X5583928Y-17875929D01*
X5569643Y-17890214D01*
X5555357Y-17875929D01*
X5569643Y-17861643D01*
X5569643Y-17890214D01*
X5726786Y-17890214D02*
X5783928Y-17890214D01*
X5812500Y-17875929D01*
X5826786Y-17861643D01*
X5855357Y-17818786D01*
X5869643Y-17761643D01*
X5869643Y-17647357D01*
X5855357Y-17618786D01*
X5841071Y-17604500D01*
X5812500Y-17590214D01*
X5755357Y-17590214D01*
X5726786Y-17604500D01*
X5712500Y-17618786D01*
X5698214Y-17647357D01*
X5698214Y-17718786D01*
X5712500Y-17747357D01*
X5726786Y-17761643D01*
X5755357Y-17775929D01*
X5812500Y-17775929D01*
X5841071Y-17761643D01*
X5855357Y-17747357D01*
X5869643Y-17718786D01*
X6012500Y-17890214D02*
X6069643Y-17890214D01*
X6098214Y-17875929D01*
X6112500Y-17861643D01*
X6141071Y-17818786D01*
X6155357Y-17761643D01*
X6155357Y-17647357D01*
X6141071Y-17618786D01*
X6126786Y-17604500D01*
X6098214Y-17590214D01*
X6041071Y-17590214D01*
X6012500Y-17604500D01*
X5998214Y-17618786D01*
X5983928Y-17647357D01*
X5983928Y-17718786D01*
X5998214Y-17747357D01*
X6012500Y-17761643D01*
X6041071Y-17775929D01*
X6098214Y-17775929D01*
X6126786Y-17761643D01*
X6141071Y-17747357D01*
X6155357Y-17718786D01*
X6341071Y-17590214D02*
X6369643Y-17590214D01*
X6398214Y-17604500D01*
X6412500Y-17618786D01*
X6426786Y-17647357D01*
X6441071Y-17704500D01*
X6441071Y-17775929D01*
X6426786Y-17833072D01*
X6412500Y-17861643D01*
X6398214Y-17875929D01*
X6369643Y-17890214D01*
X6341071Y-17890214D01*
X6312500Y-17875929D01*
X6298214Y-17861643D01*
X6283928Y-17833072D01*
X6269643Y-17775929D01*
X6269643Y-17704500D01*
X6283928Y-17647357D01*
X6298214Y-17618786D01*
X6312500Y-17604500D01*
X6341071Y-17590214D01*
X6569643Y-17890214D02*
X6569643Y-17690214D01*
X6569643Y-17718786D02*
X6583928Y-17704500D01*
X6612500Y-17690214D01*
X6655357Y-17690214D01*
X6683928Y-17704500D01*
X6698214Y-17733072D01*
X6698214Y-17890214D01*
X6698214Y-17733072D02*
X6712500Y-17704500D01*
X6741071Y-17690214D01*
X6783928Y-17690214D01*
X6812500Y-17704500D01*
X6826786Y-17733072D01*
X6826786Y-17890214D01*
X6969643Y-17890214D02*
X6969643Y-17690214D01*
X6969643Y-17718786D02*
X6983928Y-17704500D01*
X7012500Y-17690214D01*
X7055357Y-17690214D01*
X7083928Y-17704500D01*
X7098214Y-17733072D01*
X7098214Y-17890214D01*
X7098214Y-17733072D02*
X7112500Y-17704500D01*
X7141071Y-17690214D01*
X7183928Y-17690214D01*
X7212500Y-17704500D01*
X7226786Y-17733072D01*
X7226786Y-17890214D01*
X7812500Y-17575929D02*
X7555357Y-17961643D01*
X8198214Y-17590214D02*
X8226786Y-17590214D01*
X8255357Y-17604500D01*
X8269643Y-17618786D01*
X8283928Y-17647357D01*
X8298214Y-17704500D01*
X8298214Y-17775929D01*
X8283928Y-17833072D01*
X8269643Y-17861643D01*
X8255357Y-17875929D01*
X8226786Y-17890214D01*
X8198214Y-17890214D01*
X8169643Y-17875929D01*
X8155357Y-17861643D01*
X8141071Y-17833072D01*
X8126786Y-17775929D01*
X8126786Y-17704500D01*
X8141071Y-17647357D01*
X8155357Y-17618786D01*
X8169643Y-17604500D01*
X8198214Y-17590214D01*
X8426786Y-17861643D02*
X8441071Y-17875929D01*
X8426786Y-17890214D01*
X8412500Y-17875929D01*
X8426786Y-17861643D01*
X8426786Y-17890214D01*
X8626786Y-17590214D02*
X8655357Y-17590214D01*
X8683928Y-17604500D01*
X8698214Y-17618786D01*
X8712500Y-17647357D01*
X8726786Y-17704500D01*
X8726786Y-17775929D01*
X8712500Y-17833072D01*
X8698214Y-17861643D01*
X8683928Y-17875929D01*
X8655357Y-17890214D01*
X8626786Y-17890214D01*
X8598214Y-17875929D01*
X8583928Y-17861643D01*
X8569643Y-17833072D01*
X8555357Y-17775929D01*
X8555357Y-17704500D01*
X8569643Y-17647357D01*
X8583928Y-17618786D01*
X8598214Y-17604500D01*
X8626786Y-17590214D01*
X8826786Y-17590214D02*
X9012500Y-17590214D01*
X8912500Y-17704500D01*
X8955357Y-17704500D01*
X8983928Y-17718786D01*
X8998214Y-17733072D01*
X9012500Y-17761643D01*
X9012500Y-17833072D01*
X8998214Y-17861643D01*
X8983928Y-17875929D01*
X8955357Y-17890214D01*
X8869643Y-17890214D01*
X8841071Y-17875929D01*
X8826786Y-17861643D01*
X9155357Y-17890214D02*
X9212500Y-17890214D01*
X9241071Y-17875929D01*
X9255357Y-17861643D01*
X9283928Y-17818786D01*
X9298214Y-17761643D01*
X9298214Y-17647357D01*
X9283928Y-17618786D01*
X9269643Y-17604500D01*
X9241071Y-17590214D01*
X9183928Y-17590214D01*
X9155357Y-17604500D01*
X9141071Y-17618786D01*
X9126786Y-17647357D01*
X9126786Y-17718786D01*
X9141071Y-17747357D01*
X9155357Y-17761643D01*
X9183928Y-17775929D01*
X9241071Y-17775929D01*
X9269643Y-17761643D01*
X9283928Y-17747357D01*
X9298214Y-17718786D01*
X9483928Y-17590214D02*
X9512500Y-17590214D01*
X9541071Y-17604500D01*
X9555357Y-17618786D01*
X9569643Y-17647357D01*
X9583928Y-17704500D01*
X9583928Y-17775929D01*
X9569643Y-17833072D01*
X9555357Y-17861643D01*
X9541071Y-17875929D01*
X9512500Y-17890214D01*
X9483928Y-17890214D01*
X9455357Y-17875929D01*
X9441071Y-17861643D01*
X9426786Y-17833072D01*
X9412500Y-17775929D01*
X9412500Y-17704500D01*
X9426786Y-17647357D01*
X9441071Y-17618786D01*
X9455357Y-17604500D01*
X9483928Y-17590214D01*
X9698214Y-17590214D02*
X9698214Y-17647357D01*
X9812500Y-17590214D02*
X9812500Y-17647357D01*
X10255357Y-18004500D02*
X10241071Y-17990214D01*
X10212500Y-17947357D01*
X10198214Y-17918786D01*
X10183928Y-17875929D01*
X10169643Y-17804500D01*
X10169643Y-17747357D01*
X10183928Y-17675929D01*
X10198214Y-17633072D01*
X10212500Y-17604500D01*
X10241071Y-17561643D01*
X10255357Y-17547357D01*
X10412500Y-17718786D02*
X10383928Y-17704500D01*
X10369643Y-17690214D01*
X10355357Y-17661643D01*
X10355357Y-17647357D01*
X10369643Y-17618786D01*
X10383928Y-17604500D01*
X10412500Y-17590214D01*
X10469643Y-17590214D01*
X10498214Y-17604500D01*
X10512500Y-17618786D01*
X10526786Y-17647357D01*
X10526786Y-17661643D01*
X10512500Y-17690214D01*
X10498214Y-17704500D01*
X10469643Y-17718786D01*
X10412500Y-17718786D01*
X10383928Y-17733072D01*
X10369643Y-17747357D01*
X10355357Y-17775929D01*
X10355357Y-17833072D01*
X10369643Y-17861643D01*
X10383928Y-17875929D01*
X10412500Y-17890214D01*
X10469643Y-17890214D01*
X10498214Y-17875929D01*
X10512500Y-17861643D01*
X10526786Y-17833072D01*
X10526786Y-17775929D01*
X10512500Y-17747357D01*
X10498214Y-17733072D01*
X10469643Y-17718786D01*
X10883928Y-17890214D02*
X10883928Y-17590214D01*
X11012500Y-17890214D02*
X11012500Y-17733072D01*
X10998214Y-17704500D01*
X10969643Y-17690214D01*
X10926786Y-17690214D01*
X10898214Y-17704500D01*
X10883928Y-17718786D01*
X11198214Y-17890214D02*
X11169643Y-17875929D01*
X11155357Y-17861643D01*
X11141071Y-17833072D01*
X11141071Y-17747357D01*
X11155357Y-17718786D01*
X11169643Y-17704500D01*
X11198214Y-17690214D01*
X11241071Y-17690214D01*
X11269643Y-17704500D01*
X11283928Y-17718786D01*
X11298214Y-17747357D01*
X11298214Y-17833072D01*
X11283928Y-17861643D01*
X11269643Y-17875929D01*
X11241071Y-17890214D01*
X11198214Y-17890214D01*
X11469643Y-17890214D02*
X11441071Y-17875929D01*
X11426786Y-17847357D01*
X11426786Y-17590214D01*
X11698214Y-17875929D02*
X11669643Y-17890214D01*
X11612500Y-17890214D01*
X11583928Y-17875929D01*
X11569643Y-17847357D01*
X11569643Y-17733072D01*
X11583928Y-17704500D01*
X11612500Y-17690214D01*
X11669643Y-17690214D01*
X11698214Y-17704500D01*
X11712500Y-17733072D01*
X11712500Y-17761643D01*
X11569643Y-17790214D01*
X11826786Y-17875929D02*
X11855357Y-17890214D01*
X11912500Y-17890214D01*
X11941071Y-17875929D01*
X11955357Y-17847357D01*
X11955357Y-17833072D01*
X11941071Y-17804500D01*
X11912500Y-17790214D01*
X11869643Y-17790214D01*
X11841071Y-17775929D01*
X11826786Y-17747357D01*
X11826786Y-17733072D01*
X11841071Y-17704500D01*
X11869643Y-17690214D01*
X11912500Y-17690214D01*
X11941071Y-17704500D01*
X12055357Y-18004500D02*
X12069643Y-17990214D01*
X12098214Y-17947357D01*
X12112500Y-17918786D01*
X12126786Y-17875929D01*
X12141071Y-17804500D01*
X12141071Y-17747357D01*
X12126786Y-17675929D01*
X12112500Y-17633072D01*
X12098214Y-17604500D01*
X12069643Y-17561643D01*
X12055357Y-17547357D01*
X4982856Y-18185856D02*
X4982856Y-18115144D01*
X4912144Y-18115144D01*
X4912144Y-18185856D01*
X4982856Y-18185856D01*
X5441071Y-18286214D02*
X5269643Y-18286214D01*
X5355357Y-18286214D02*
X5355357Y-17986214D01*
X5326786Y-18029072D01*
X5298214Y-18057643D01*
X5269643Y-18071929D01*
X5569643Y-18257643D02*
X5583928Y-18271929D01*
X5569643Y-18286214D01*
X5555357Y-18271929D01*
X5569643Y-18257643D01*
X5569643Y-18286214D01*
X5769643Y-17986214D02*
X5798214Y-17986214D01*
X5826786Y-18000500D01*
X5841071Y-18014786D01*
X5855357Y-18043357D01*
X5869643Y-18100500D01*
X5869643Y-18171929D01*
X5855357Y-18229072D01*
X5841071Y-18257643D01*
X5826786Y-18271929D01*
X5798214Y-18286214D01*
X5769643Y-18286214D01*
X5741071Y-18271929D01*
X5726786Y-18257643D01*
X5712500Y-18229072D01*
X5698214Y-18171929D01*
X5698214Y-18100500D01*
X5712500Y-18043357D01*
X5726786Y-18014786D01*
X5741071Y-18000500D01*
X5769643Y-17986214D01*
X6055357Y-17986214D02*
X6083928Y-17986214D01*
X6112500Y-18000500D01*
X6126786Y-18014786D01*
X6141071Y-18043357D01*
X6155357Y-18100500D01*
X6155357Y-18171929D01*
X6141071Y-18229072D01*
X6126786Y-18257643D01*
X6112500Y-18271929D01*
X6083928Y-18286214D01*
X6055357Y-18286214D01*
X6026786Y-18271929D01*
X6012500Y-18257643D01*
X5998214Y-18229072D01*
X5983928Y-18171929D01*
X5983928Y-18100500D01*
X5998214Y-18043357D01*
X6012500Y-18014786D01*
X6026786Y-18000500D01*
X6055357Y-17986214D01*
X6341071Y-17986214D02*
X6369643Y-17986214D01*
X6398214Y-18000500D01*
X6412500Y-18014786D01*
X6426786Y-18043357D01*
X6441071Y-18100500D01*
X6441071Y-18171929D01*
X6426786Y-18229072D01*
X6412500Y-18257643D01*
X6398214Y-18271929D01*
X6369643Y-18286214D01*
X6341071Y-18286214D01*
X6312500Y-18271929D01*
X6298214Y-18257643D01*
X6283928Y-18229072D01*
X6269643Y-18171929D01*
X6269643Y-18100500D01*
X6283928Y-18043357D01*
X6298214Y-18014786D01*
X6312500Y-18000500D01*
X6341071Y-17986214D01*
X6569643Y-18286214D02*
X6569643Y-18086214D01*
X6569643Y-18114786D02*
X6583928Y-18100500D01*
X6612500Y-18086214D01*
X6655357Y-18086214D01*
X6683928Y-18100500D01*
X6698214Y-18129072D01*
X6698214Y-18286214D01*
X6698214Y-18129072D02*
X6712500Y-18100500D01*
X6741071Y-18086214D01*
X6783928Y-18086214D01*
X6812500Y-18100500D01*
X6826786Y-18129072D01*
X6826786Y-18286214D01*
X6969643Y-18286214D02*
X6969643Y-18086214D01*
X6969643Y-18114786D02*
X6983928Y-18100500D01*
X7012500Y-18086214D01*
X7055357Y-18086214D01*
X7083928Y-18100500D01*
X7098214Y-18129072D01*
X7098214Y-18286214D01*
X7098214Y-18129072D02*
X7112500Y-18100500D01*
X7141071Y-18086214D01*
X7183928Y-18086214D01*
X7212500Y-18100500D01*
X7226786Y-18129072D01*
X7226786Y-18286214D01*
X7812500Y-17971929D02*
X7555357Y-18357643D01*
X8198214Y-17986214D02*
X8226786Y-17986214D01*
X8255357Y-18000500D01*
X8269643Y-18014786D01*
X8283928Y-18043357D01*
X8298214Y-18100500D01*
X8298214Y-18171929D01*
X8283928Y-18229072D01*
X8269643Y-18257643D01*
X8255357Y-18271929D01*
X8226786Y-18286214D01*
X8198214Y-18286214D01*
X8169643Y-18271929D01*
X8155357Y-18257643D01*
X8141071Y-18229072D01*
X8126786Y-18171929D01*
X8126786Y-18100500D01*
X8141071Y-18043357D01*
X8155357Y-18014786D01*
X8169643Y-18000500D01*
X8198214Y-17986214D01*
X8426786Y-18257643D02*
X8441071Y-18271929D01*
X8426786Y-18286214D01*
X8412500Y-18271929D01*
X8426786Y-18257643D01*
X8426786Y-18286214D01*
X8626786Y-17986214D02*
X8655357Y-17986214D01*
X8683928Y-18000500D01*
X8698214Y-18014786D01*
X8712500Y-18043357D01*
X8726786Y-18100500D01*
X8726786Y-18171929D01*
X8712500Y-18229072D01*
X8698214Y-18257643D01*
X8683928Y-18271929D01*
X8655357Y-18286214D01*
X8626786Y-18286214D01*
X8598214Y-18271929D01*
X8583928Y-18257643D01*
X8569643Y-18229072D01*
X8555357Y-18171929D01*
X8555357Y-18100500D01*
X8569643Y-18043357D01*
X8583928Y-18014786D01*
X8598214Y-18000500D01*
X8626786Y-17986214D01*
X8826786Y-17986214D02*
X9012500Y-17986214D01*
X8912500Y-18100500D01*
X8955357Y-18100500D01*
X8983928Y-18114786D01*
X8998214Y-18129072D01*
X9012500Y-18157643D01*
X9012500Y-18229072D01*
X8998214Y-18257643D01*
X8983928Y-18271929D01*
X8955357Y-18286214D01*
X8869643Y-18286214D01*
X8841071Y-18271929D01*
X8826786Y-18257643D01*
X9155357Y-18286214D02*
X9212500Y-18286214D01*
X9241071Y-18271929D01*
X9255357Y-18257643D01*
X9283928Y-18214786D01*
X9298214Y-18157643D01*
X9298214Y-18043357D01*
X9283928Y-18014786D01*
X9269643Y-18000500D01*
X9241071Y-17986214D01*
X9183928Y-17986214D01*
X9155357Y-18000500D01*
X9141071Y-18014786D01*
X9126786Y-18043357D01*
X9126786Y-18114786D01*
X9141071Y-18143357D01*
X9155357Y-18157643D01*
X9183928Y-18171929D01*
X9241071Y-18171929D01*
X9269643Y-18157643D01*
X9283928Y-18143357D01*
X9298214Y-18114786D01*
X9555357Y-18086214D02*
X9555357Y-18286214D01*
X9483928Y-17971929D02*
X9412500Y-18186214D01*
X9598214Y-18186214D01*
X9698214Y-17986214D02*
X9698214Y-18043357D01*
X9812500Y-17986214D02*
X9812500Y-18043357D01*
X10255357Y-18400500D02*
X10241071Y-18386214D01*
X10212500Y-18343357D01*
X10198214Y-18314786D01*
X10183928Y-18271929D01*
X10169643Y-18200500D01*
X10169643Y-18143357D01*
X10183928Y-18071929D01*
X10198214Y-18029072D01*
X10212500Y-18000500D01*
X10241071Y-17957643D01*
X10255357Y-17943357D01*
X10383928Y-18286214D02*
X10441071Y-18286214D01*
X10469643Y-18271929D01*
X10483928Y-18257643D01*
X10512500Y-18214786D01*
X10526786Y-18157643D01*
X10526786Y-18043357D01*
X10512500Y-18014786D01*
X10498214Y-18000500D01*
X10469643Y-17986214D01*
X10412500Y-17986214D01*
X10383928Y-18000500D01*
X10369643Y-18014786D01*
X10355357Y-18043357D01*
X10355357Y-18114786D01*
X10369643Y-18143357D01*
X10383928Y-18157643D01*
X10412500Y-18171929D01*
X10469643Y-18171929D01*
X10498214Y-18157643D01*
X10512500Y-18143357D01*
X10526786Y-18114786D01*
X10698214Y-18114786D02*
X10669643Y-18100500D01*
X10655357Y-18086214D01*
X10641071Y-18057643D01*
X10641071Y-18043357D01*
X10655357Y-18014786D01*
X10669643Y-18000500D01*
X10698214Y-17986214D01*
X10755357Y-17986214D01*
X10783928Y-18000500D01*
X10798214Y-18014786D01*
X10812500Y-18043357D01*
X10812500Y-18057643D01*
X10798214Y-18086214D01*
X10783928Y-18100500D01*
X10755357Y-18114786D01*
X10698214Y-18114786D01*
X10669643Y-18129072D01*
X10655357Y-18143357D01*
X10641071Y-18171929D01*
X10641071Y-18229072D01*
X10655357Y-18257643D01*
X10669643Y-18271929D01*
X10698214Y-18286214D01*
X10755357Y-18286214D01*
X10783928Y-18271929D01*
X10798214Y-18257643D01*
X10812500Y-18229072D01*
X10812500Y-18171929D01*
X10798214Y-18143357D01*
X10783928Y-18129072D01*
X10755357Y-18114786D01*
X11169643Y-18286214D02*
X11169643Y-17986214D01*
X11298214Y-18286214D02*
X11298214Y-18129072D01*
X11283928Y-18100500D01*
X11255357Y-18086214D01*
X11212500Y-18086214D01*
X11183928Y-18100500D01*
X11169643Y-18114786D01*
X11483928Y-18286214D02*
X11455357Y-18271929D01*
X11441071Y-18257643D01*
X11426786Y-18229072D01*
X11426786Y-18143357D01*
X11441071Y-18114786D01*
X11455357Y-18100500D01*
X11483928Y-18086214D01*
X11526786Y-18086214D01*
X11555357Y-18100500D01*
X11569643Y-18114786D01*
X11583928Y-18143357D01*
X11583928Y-18229072D01*
X11569643Y-18257643D01*
X11555357Y-18271929D01*
X11526786Y-18286214D01*
X11483928Y-18286214D01*
X11755357Y-18286214D02*
X11726786Y-18271929D01*
X11712500Y-18243357D01*
X11712500Y-17986214D01*
X11983928Y-18271929D02*
X11955357Y-18286214D01*
X11898214Y-18286214D01*
X11869643Y-18271929D01*
X11855357Y-18243357D01*
X11855357Y-18129072D01*
X11869643Y-18100500D01*
X11898214Y-18086214D01*
X11955357Y-18086214D01*
X11983928Y-18100500D01*
X11998214Y-18129072D01*
X11998214Y-18157643D01*
X11855357Y-18186214D01*
X12112500Y-18271929D02*
X12141071Y-18286214D01*
X12198214Y-18286214D01*
X12226786Y-18271929D01*
X12241071Y-18243357D01*
X12241071Y-18229072D01*
X12226786Y-18200500D01*
X12198214Y-18186214D01*
X12155357Y-18186214D01*
X12126786Y-18171929D01*
X12112500Y-18143357D01*
X12112500Y-18129072D01*
X12126786Y-18100500D01*
X12155357Y-18086214D01*
X12198214Y-18086214D01*
X12226786Y-18100500D01*
X12341071Y-18400500D02*
X12355357Y-18386214D01*
X12383928Y-18343357D01*
X12398214Y-18314786D01*
X12412500Y-18271929D01*
X12426786Y-18200500D01*
X12426786Y-18143357D01*
X12412500Y-18071929D01*
X12398214Y-18029072D01*
X12383928Y-18000500D01*
X12355357Y-17957643D01*
X12341071Y-17943357D01*
M02*
