G04 #@! TF.GenerationSoftware,KiCad,Pcbnew,(5.1.10)-1*
G04 #@! TF.CreationDate,2021-11-18T19:13:28-07:00*
G04 #@! TF.ProjectId,ATSAME51Demo,41545341-4d45-4353-9144-656d6f2e6b69,1.0*
G04 #@! TF.SameCoordinates,Original*
G04 #@! TF.FileFunction,Soldermask,Bot*
G04 #@! TF.FilePolarity,Negative*
%FSLAX46Y46*%
G04 Gerber Fmt 4.6, Leading zero omitted, Abs format (unit mm)*
G04 Created by KiCad (PCBNEW (5.1.10)-1) date 2021-11-18 19:13:28*
%MOMM*%
%LPD*%
G01*
G04 APERTURE LIST*
%ADD10O,1.700000X1.700000*%
%ADD11R,1.700000X1.700000*%
%ADD12C,0.500000*%
%ADD13C,1.540000*%
%ADD14C,0.900000*%
%ADD15R,4.400000X1.800000*%
%ADD16O,4.000000X1.800000*%
%ADD17O,1.800000X4.000000*%
G04 APERTURE END LIST*
D10*
X138100000Y-91560000D03*
D11*
X138100000Y-94100000D03*
D12*
X144975000Y-75265000D03*
X144975000Y-79225000D03*
D10*
X92164000Y-154234000D03*
X92164000Y-156774000D03*
X89624000Y-154234000D03*
X89624000Y-156774000D03*
X87084000Y-154234000D03*
X87084000Y-156774000D03*
X84544000Y-154234000D03*
X84544000Y-156774000D03*
X82004000Y-154234000D03*
X82004000Y-156774000D03*
X79464000Y-154234000D03*
D11*
X79464000Y-156774000D03*
D10*
X94185000Y-82690000D03*
X94185000Y-80150000D03*
X96725000Y-82690000D03*
X96725000Y-80150000D03*
X99265000Y-82690000D03*
X99265000Y-80150000D03*
X101805000Y-82690000D03*
X101805000Y-80150000D03*
X104345000Y-82690000D03*
X104345000Y-80150000D03*
X106885000Y-82690000D03*
X106885000Y-80150000D03*
X109425000Y-82690000D03*
D11*
X109425000Y-80150000D03*
D13*
X74310000Y-87270000D03*
X80810000Y-87270000D03*
X74310000Y-91770000D03*
X80810000Y-91770000D03*
X54025000Y-87270000D03*
X60525000Y-87270000D03*
X54025000Y-91770000D03*
X60525000Y-91770000D03*
D10*
X129460000Y-104300000D03*
X132000000Y-104300000D03*
X129460000Y-106840000D03*
X132000000Y-106840000D03*
X129460000Y-109380000D03*
X132000000Y-109380000D03*
X129460000Y-111920000D03*
X132000000Y-111920000D03*
X129460000Y-114460000D03*
X132000000Y-114460000D03*
X129460000Y-117000000D03*
D11*
X132000000Y-117000000D03*
D10*
X107080000Y-135460000D03*
X107080000Y-138000000D03*
X104540000Y-135460000D03*
X104540000Y-138000000D03*
X102000000Y-135460000D03*
X102000000Y-138000000D03*
X99460000Y-135460000D03*
X99460000Y-138000000D03*
X96920000Y-135460000D03*
X96920000Y-138000000D03*
X94380000Y-135460000D03*
X94380000Y-138000000D03*
X91840000Y-135460000D03*
X91840000Y-138000000D03*
X89300000Y-135460000D03*
D11*
X89300000Y-138000000D03*
D10*
X111780000Y-65000000D03*
X109240000Y-65000000D03*
X106700000Y-65000000D03*
X104160000Y-65000000D03*
X101620000Y-65000000D03*
X99080000Y-65000000D03*
X96540000Y-65000000D03*
D11*
X94000000Y-65000000D03*
D10*
X98890000Y-70310000D03*
D11*
X101430000Y-70310000D03*
D10*
X73540000Y-118240000D03*
X71000000Y-118240000D03*
X73540000Y-115700000D03*
X71000000Y-115700000D03*
X73540000Y-113160000D03*
X71000000Y-113160000D03*
X73540000Y-110620000D03*
X71000000Y-110620000D03*
X73540000Y-108080000D03*
X71000000Y-108080000D03*
X73540000Y-105540000D03*
X71000000Y-105540000D03*
X73540000Y-103000000D03*
D11*
X71000000Y-103000000D03*
D10*
X131700000Y-132740000D03*
X131700000Y-135280000D03*
X129160000Y-132740000D03*
D11*
X129160000Y-135280000D03*
D10*
X132000000Y-125770000D03*
X129460000Y-125770000D03*
X132000000Y-123230000D03*
D11*
X129460000Y-123230000D03*
D10*
X123914000Y-84384000D03*
D11*
X121374000Y-84384000D03*
D14*
X55350000Y-71650000D03*
X55350000Y-67250000D03*
D10*
X60668000Y-120452000D03*
D11*
X58128000Y-120452000D03*
D10*
X130800000Y-151610000D03*
X128260000Y-151610000D03*
X130800000Y-149070000D03*
X128260000Y-149070000D03*
X130800000Y-146530000D03*
D11*
X128260000Y-146530000D03*
D15*
X142425000Y-145300000D03*
D16*
X142425000Y-151100000D03*
D17*
X147225000Y-148300000D03*
M02*
